<mxfile host="app.diagrams.net" agent="Mozilla/5.0 (Windows NT 10.0; Win64; x64) AppleWebKit/537.36 (KHTML, like Gecko) Chrome/136.0.0.0 Safari/537.36" version="27.0.5">
  <diagram name="페이지-1" id="Sp5WrhgMZdlImFLOzCQE">
    <mxGraphModel dx="2653" dy="1198" grid="0" gridSize="10" guides="1" tooltips="1" connect="1" arrows="1" fold="1" page="0" pageScale="1" pageWidth="827" pageHeight="1169" math="0" shadow="0">
      <root>
        <mxCell id="0" />
        <mxCell id="1" parent="0" />
        <mxCell id="auokp5sfF3vydT2iOztg-3" value="" style="rounded=0;whiteSpace=wrap;html=1;" vertex="1" parent="1">
          <mxGeometry x="-348" y="50" width="724" height="429" as="geometry" />
        </mxCell>
        <mxCell id="auokp5sfF3vydT2iOztg-2" value="" style="points=[];aspect=fixed;html=1;align=center;shadow=0;dashed=0;fillColor=#FF6A00;strokeColor=none;shape=mxgraph.alibaba_cloud.vpc_virtual_private_cloud;" vertex="1" parent="1">
          <mxGeometry x="-398" y="15" width="93.44" height="60" as="geometry" />
        </mxCell>
        <mxCell id="auokp5sfF3vydT2iOztg-4" value="" style="points=[];aspect=fixed;html=1;align=center;shadow=0;dashed=0;fillColor=#FF6A00;strokeColor=none;shape=mxgraph.alibaba_cloud.alb_application_load_balancer_02;" vertex="1" parent="1">
          <mxGeometry x="-622" y="93" width="79" height="79" as="geometry" />
        </mxCell>
        <mxCell id="auokp5sfF3vydT2iOztg-5" value="VPC" style="text;html=1;align=center;verticalAlign=middle;resizable=0;points=[];autosize=1;strokeColor=none;fillColor=none;" vertex="1" parent="1">
          <mxGeometry x="-369.78" y="-18" width="43" height="26" as="geometry" />
        </mxCell>
        <mxCell id="auokp5sfF3vydT2iOztg-6" value="ALB" style="text;html=1;align=center;verticalAlign=middle;resizable=0;points=[];autosize=1;strokeColor=none;fillColor=none;" vertex="1" parent="1">
          <mxGeometry x="-603" y="186" width="41" height="26" as="geometry" />
        </mxCell>
        <mxCell id="auokp5sfF3vydT2iOztg-7" value="" style="endArrow=classic;html=1;rounded=0;" edge="1" parent="1" target="auokp5sfF3vydT2iOztg-10">
          <mxGeometry relative="1" as="geometry">
            <mxPoint x="-515" y="132" as="sourcePoint" />
            <mxPoint x="-415" y="132" as="targetPoint" />
          </mxGeometry>
        </mxCell>
        <mxCell id="auokp5sfF3vydT2iOztg-8" value="Load Balancing" style="edgeLabel;resizable=0;html=1;;align=center;verticalAlign=middle;" connectable="0" vertex="1" parent="auokp5sfF3vydT2iOztg-7">
          <mxGeometry relative="1" as="geometry" />
        </mxCell>
        <mxCell id="auokp5sfF3vydT2iOztg-9" value="" style="rounded=0;whiteSpace=wrap;html=1;" vertex="1" parent="1">
          <mxGeometry x="-257" y="140" width="615" height="315" as="geometry" />
        </mxCell>
        <mxCell id="auokp5sfF3vydT2iOztg-10" value="" style="outlineConnect=0;dashed=0;verticalLabelPosition=bottom;verticalAlign=top;align=center;html=1;shape=mxgraph.aws3.ecs;fillColor=#F58534;gradientColor=none;" vertex="1" parent="1">
          <mxGeometry x="-292" y="100" width="72" height="67.5" as="geometry" />
        </mxCell>
        <mxCell id="auokp5sfF3vydT2iOztg-12" value="ECS" style="text;html=1;align=center;verticalAlign=middle;resizable=0;points=[];autosize=1;strokeColor=none;fillColor=none;" vertex="1" parent="1">
          <mxGeometry x="-280" y="74" width="43" height="26" as="geometry" />
        </mxCell>
        <mxCell id="auokp5sfF3vydT2iOztg-20" value="" style="rounded=0;whiteSpace=wrap;html=1;" vertex="1" parent="1">
          <mxGeometry x="-128" y="153" width="450" height="130" as="geometry" />
        </mxCell>
        <mxCell id="auokp5sfF3vydT2iOztg-17" value="" style="sketch=0;pointerEvents=1;shadow=0;dashed=0;html=1;strokeColor=none;labelPosition=center;verticalLabelPosition=bottom;verticalAlign=top;outlineConnect=0;align=center;shape=mxgraph.office.servers.server_generic;fillColor=#2072B8;" vertex="1" parent="1">
          <mxGeometry x="-161" y="174.5" width="57" height="87" as="geometry" />
        </mxCell>
        <mxCell id="auokp5sfF3vydT2iOztg-19" value="Blue" style="text;html=1;align=center;verticalAlign=middle;resizable=0;points=[];autosize=1;strokeColor=none;fillColor=none;" vertex="1" parent="1">
          <mxGeometry x="-214" y="209" width="42" height="26" as="geometry" />
        </mxCell>
        <mxCell id="auokp5sfF3vydT2iOztg-21" value="" style="rounded=0;whiteSpace=wrap;html=1;" vertex="1" parent="1">
          <mxGeometry x="-128" y="300" width="450" height="130" as="geometry" />
        </mxCell>
        <mxCell id="auokp5sfF3vydT2iOztg-16" value="" style="sketch=0;pointerEvents=1;shadow=0;dashed=0;html=1;strokeColor=none;labelPosition=center;verticalLabelPosition=bottom;verticalAlign=top;outlineConnect=0;align=center;shape=mxgraph.office.servers.server_generic;fillColor=#7FBA42;" vertex="1" parent="1">
          <mxGeometry x="-162.5" y="322" width="57" height="86" as="geometry" />
        </mxCell>
        <mxCell id="auokp5sfF3vydT2iOztg-18" value="Green" style="text;html=1;align=center;verticalAlign=middle;resizable=0;points=[];autosize=1;strokeColor=none;fillColor=none;" vertex="1" parent="1">
          <mxGeometry x="-220" y="354" width="51" height="26" as="geometry" />
        </mxCell>
        <mxCell id="auokp5sfF3vydT2iOztg-22" value="" style="rounded=0;whiteSpace=wrap;html=1;" vertex="1" parent="1">
          <mxGeometry x="-60" y="177" width="128" height="89.5" as="geometry" />
        </mxCell>
        <mxCell id="auokp5sfF3vydT2iOztg-25" value="" style="shape=image;verticalLabelPosition=bottom;labelBackgroundColor=default;verticalAlign=top;aspect=fixed;imageAspect=0;image=data:image/png,iVBORw0KGgoAAAANSUhEUgAAAoAAAAFoCAYAAADHMkpRAAAgAElEQVR4Xu3dB3gVVd4/8O9N74X0hAQIgZBC79WKLgpKESu6olhARV3d1XXddXd197WtimJb7L2igqIogoUWOoSEkEYIKSSk937/zxll/67rLsmdmXvPzHxnn+f1fdd7zvmdz2/ehx8zc86x2e12O3hRgAIUoAAFKEABClhGwMYC0DK55kQpQAEKUIACFKCAIsACkDcCBShAAQpQgAIUsJgAC0CLJZzTpQAFKEABClCAAiwAeQ9QgAIUoAAFKEABiwmwALRYwjldClCAAhSgAAUowAKQ9wAFKEABClCAAhSwmAALQIslnNOlAAUoQAEKUIACLAB5D1CAAhSgAAUoQAGLCbAAtFjCOV0KUIACFKAABSjAApD3AAUoQAEKUIACFLCYAAtAiyWc06UABShAAQpQgAIsAHkPUIACFKAABShAAYsJsAC0WMI5XQpQgAIUoAAFKMACkPcABShAAQpQgAIUsJgAC0CLJZzTpQAFKEABClCAAiwAeQ9QgAIUoAAFKEABiwmwALRYwjldClCAAhSgAAUowAKQ9wAFKEABClCAAhSwmAALQIslnNOlAAUoQAEKUIACLAB5D1CAAhSgAAUoQAGLCbAAtFjCOV0KUIACFKAABSjAApD3AAUoQAEKUIACFLCYAAtAiyWc06UABShAAQpQgAIsAHkPUIACFKAABShAAYsJsAC0WMI5XQpQgAIUoAAFKMACkPcABShAAQpQgAIUsJgAC0CLJZzTpQAFKEABClCAAiwAeQ9QgAIUoAAFKEABiwmwALRYwjldClCAAhSgAAUowAKQ9wAFKEABClCAAhSwmAALQIslnNOlAAUoQAEKUIACLAB5D1CAAhSgAAUoQAGLCbAAtFjCOV0KUIACFKAABSjAApD3AAUoQAEKUIACFLCYAAtAiyWc06UABShAAQpQgAIsAHkPUIACFKAABShAAYsJsAC0WMI5XQpQgAIUoAAFKMACkPcABShAAQpQgAIUsJgAC0CLJZzTpQAFKEABClCAAiwAeQ9QgAIUoAAFKEABiwmwALRYwjldClCAAhSgAAUowAKQ9wAFKEABClCAAhSwmAALQIslnNOlAAUoQAEKUIACLAB5D1CAAhSgAAUoQAGLCbAAtFjCOV0KUIACFKAABSjAApD3AAUoQAEKUIACFLCYAAtAiyWc06UABShAAQpQgAIsAHkPUIACFKAABShAAYsJsAC0WMI5XQpQgAIUoAAFKMACkPcABShAAQpQgAIUsJgAC0CLJZzTpQAFKEABClCAAiwAeQ9QgAIUoAAFKEABiwmwALRYwjldClCAAhSgAAUowAKQ9wAFKEABClCAAhSwmAALQIslnNOlAAUoQAEKUIACLAB5D1CAAhSgAAUoQAGLCbAAtFjCOV0KUIACFKAABSjAApD3AAUoQAEKUIACFLCYAAtAiyWc06UABShAAQpQgAIsAHkPUIACFKAABShAAYsJsAC0WMI5XQpQgAIUoAAFKMACkPcABShAAQpQgAIUsJgAC0CLJZzTpQAFKEABClCAAiwAeQ9QgAIUoAAFKEABiwmwALRYwjldClCAAhSgAAUowAKQ9wAFKEABClCAAhSwmAALQIslnNOlAAUoQAEKUIACLAB5D1CAAhSgAAUoQAGLCbAAtFjCOV0KUIACFKAABSjAApD3AAUoQAEKUIACFLCYAAtAiyWc06VAXwV67N3Irz6AI3XZKKrNQk3rcTS0VaOrp7OvXfH3GgvYYIOnuw+CfcIR7heLQf3SMCgkFQNDUzUeid1RgAJmE2ABaLaMcj4UUCnQY+9Bd08njtXnYnfZJhyo2Iy61gqVvbK5MwViAhMxMnoGRkZPR1RgAjxsHrDZ3JwZAseiAAUkF2ABKHmCGB4FnCXQbe9CQ1sNCmozsaNkPQqqD6Cju9VZw3McHQR8PAKQGjkRE/qfiwEhyfDzDISbzV2HkdglBShgNAEWgEbLGOOlgMYCdtjR0F6DotpsbC3+FPnV+9DR3abxKOzOlQL+XsFIi5yMcXFnISF4GPy9AgHYXBkSx6YABVwswALQxQng8BRwpYB43XukNgsZJV/gYMVWNLbXuDIcjq2zQJhfjPJqeGzc2UgIHqrzaOyeAhSQWYAFoMzZYWwU0FGguaMee8q/wfZjn6O47pCOI7FrmQTEwpGksFGYNuBCDI+aCk93L5nCYywUoICTBFgAOgmaw1BAJoHK5hJsLHwP+8q/RXNHnUyhMRYnCYT5xSrfBk5LmIMgnzAnjcphKEABWQRYAMqSCcZBAScJHKvPw/r815FduR2d3e1OGpXDyCjg6xmgvBL+1dBfI8w3WsYQGRMFKKCTAAtAnWDZLQVkFDhal4N1uS8jt2o39/GTMUEuiMnT3RujY87A+cnXoJ9vlAsi4JAUoIArBFgAukKdY1LABQIVTcVYk/NPHKzYArH4gxcFTgqIrWGmJJyP84Zeg0DvUMJQgAIWEGABaIEkc4oUaGyvxRd5r+K7oo+IQYFfFHCzeeC85MU4feACeHv4UokCFDC5AAtAkyeY06NAZ08HMo59gQ8OPoFuezdBKPBfBQK8Q3H5iN8hLXIiN4zmfUIBkwuwADR5gjk9awuITZ6L63Lx6t77caL5mLUxOPteCSSFjcblI36LCP+4Xv2eP6IABYwpwALQmHlj1BTolYB4+vdu5uPIOLauV7/njyggBOYMux5nJV4CdzcPglCAAiYVYAFo0sRyWhQQAtmVGXhx9594tBtvhz4JhPpG4sYJDyE2MLFP7fhjClDAOAIsAI2TK0ZKgT4JtHW1YsW25Sipz+1TO/6YAkJgTOxZWDzmT8SgAAVMKsAC0KSJ5bQo8GX+W1ib808AdmJQoM8CYn/Aa8b8BelRk/vclg0oQAH5BVgAyp8jRkiBPgucaC5Vnv7Vt1X1uS0bUOCkQHTAINw5/Tl4u/sQhQIUMJkAC0CTJZTToYAQeGXPA9hb/jU3fObtoErAw81TOSbu3KQrVfXDxhSggHwCLADlywkjooAqgewTO/DW/of49E+VIhufFAj3i8XSiQ8j0j+eKBSggIkEWACaKJmcCgVaO5vw6t4HkH0iA3Ye98YbQgMBDzcvjO9/LhamL4enm5cGPbILClBABgEWgDJkgTFQQAOBHns3Nh9di/V5r6KhvUaDHtkFBX4QiPCPx0VptyA1ciJJKEABkwiwADRJIjkNCpQ1HsEHB59EXvUeYlBAUwE3mztGx56BeanLEOwdpmnf7IwCFHCNAAtA17hzVApoKtDe1YpNR97H1wXvoK2rWdO+2RkFhECwTzjOG3oNJsb/Cu42d6JQgAIGF2ABaPAEMnwKCIGCmgP4MOspHOOmz7whdBRIiZiIualLERs4SMdR2DUFKOAMARaAzlDmGBTQUaCpow5f5r+J74pWo7unS8eR2LXVBbzdfXF+8rWYOmAOvLg3oNVvB87f4AIsAA2eQIZvbQG73Y7cqj14Zd/9aGqvtTYGZ+8UAXE+8KJRv0d88FCnjMdBKEABfQRYAOrjyl4p4BQBsdr3vYNPYH/5t04Zj4NQwAYbZg65EmcPvhS+Hv4EoQAFDCrAAtCgiWPYFBD7/B04vhkv7P4jMSjgVAEvdz8sn/I4BgQnA7A5dWwORgEKaCPAAlAbR/ZCAacLNLbX4umMO1HakO/0sTkgBUZEz8CVo34PHw8/YlCAAgYUYAFowKQxZAoIgS/yXsdnh18gBgVcJnDd2AcwIma6y8bnwBSggOMCLAAdt2NLCrhM4HhTER7bcjNaOxtdFgMHpkBM4CDcPOkxBHn3IwYFKGAwARaABksYw6VAV08nXtn7APaXf0MMCrhcYGbSlbhg2BKXx8EAKECBvgmwAOybF39NAZcL7CnbiDf3P4SO7jaXx8IAKBDoHYYbxv8dA0KGEYMCFDCQAAtAAyWLoVKgob0aL+66D0dqD8IOO0Eo4HIBN5sbxIKQq0f/Ee5uHi6PhwFQgAK9E2AB2Dsn/ooCUgisy30VmwrFeb8tUsRjxCACvEMR7B0GcapFS1czGtqr0NLRYMSpSBNzoHc/zEtZhvH9Z0oTEwOhAAX+twALQN4hFDCIQElDPt7a/zCO1R82SMTyhOnt4Ych4WMwNuYMDO43En5eARAbGouTVJo66lFQewAZx75AfvV+9Nh5nF5fMycsh4SNwuKxf0aAV0hfm/P3FKCACwRYALoAnUNSoK8C4ozf1dnPYEvxGnT3dPa1uWV/LwqT6MBBuDDleqRGTlKKvv92tXe1YF/5d9hQ8DYqmoshNtrm1XsBX89AnD34MswcfBlsNrfeN+QvKUABlwiwAHQJOwelQO8FxFOqg5Xb8Mmh51HRVNT7hhb/pSj2EvuNwCXDf4OYwIG91jhSm6VYi+8se+zdvW7HHwKD+43AgvTliA8aQg4KUEByARaAkieI4VGgvq0Ka3NWIaNkPcCFH72+IeKDh+LqMfch0r9/r9uc/GFh7UG8l/k4yhoKuNimD3oe7l44Y9DFOCfpCp4Q0gc3/pQCrhBgAegKdY5JgV4KiNe9u8s2YU3Oc6hvq+5lK/5MvI68ftzfkBQ20mEMUXC/l/kYt9vpo6B45T4/9SYMCx8Hm43nBPeRjz+ngNMEWAA6jZoDUaDvAieaS/Bh1kpkVW7re2MLt5iScAEuG3GHKoHO7g48t+Nu5FbvVtWP1RqLV+9TBszBeUOvRpB3mNWmz/lSwDACLAANkyoGajUBsdHztmPrsObQ83wK1Yfke7p54zfTnkH/oKQ+tPrln+4u3YhX9v5FdT9W6yDQO1T59jI9agrcbdwb0Gr553yNIcAC0Bh5YpQWFKhoPoZ/7rwHlU3FFpy941MW3/7dOvlJeHv4Ot7Jjy2bOxrw542Xoa2rSXVfVutgWMR4XDHyboT4hFtt6pwvBQwhwALQEGlikFYTEOf9rj28CpsK3uMihD4mf1zcTFw+8nfwdPPqY8v//Lk4beXh765HSUOu6r6s1oGHmycuSr8Nk+Nnwc3mbrXpc74UkF6ABaD0KWKAVhQobyzCQ99fC7H/H6++CcwYtADzUpZCFCBaXM/u+D2yK7dq0ZXl+gj2CccfTnsNvp7+lps7J0wB2QVYAMqeIcZnOQGx99zK7Xcir3qP5eauxYSnD1yA+anaFYDP7bwHWRVbtAjNkn2ckXgJ5qUu/Z+bcFsShpOmgIsFWAC6OAEcngI/F9hTtgkv7/kzYRwUmD5wPuanLtPsCSALQAcT8WMzcSrI3dNfRGxQorqO2JoCFNBUgAWgppzsjALqBBraa/D41ltQ1VyiriPJWovXsT4e/vBy91G+aWzvakN7VzO6dTh31wgFoPgmTniIV6Pubp7KmcSd3e1o7qxX/mm2a1j4BCwZ9xeIM5l5UYACcgiwAJQjD4yCAui2d+Ozwy9hY+E7pvn2z98rGNEBAxEXnKScyBHoFaocr1bfXoOKpqMobchHRVMxxDm8Wl0yF4BuNjeE+kYhISQFCcHJCPeLUQpBkXux4ri8qRBFtdkobShAa2ejViQu78fDzQsXp/8GkxNmuTwWBkABCvwgwAKQdwIFJBEoqD6A1/f/HdUt5ZJE5HgY4rVfdMAAiBW5KZETEBMw8D9eybZ1NaO0oRCZFVuwq/SrH086sTs+6I8tZS0ARfE3LGICJsbPwuDQ4Qjy6fcf38WJJ4FljT+Y7Cz9yjRbAInNofsHJ2PxmPsQ4R+rOsfsgAIUUC/AAlC9IXuggGqB1q4mvJ+5AnvLN0FsAWPkS2zEnBQ2CtMHzsWQsFGnPBO2qaMOmce3Yl3uS6hrO6F66rIWgGNiz8I5SYsQ14tv4dq6WpBdmYHvilbjSG2W8tTU6JfYl3HGwIswO/kaiGKYFwUo4FoBFoCu9efoFFAEdpR8qez7V9daaWgR8Y3fuLhzcGbiQoT7xcLdrXenQIjv3vaUb8I7B/6Brp4OVQYyFoADQtKweOyfEOYb3eu5dfZ0oKyhEJsK30dmxWYTnAZjQ0zgICxMv1X5iwEvClDAtQIsAF3rz9EpgJqW41idvVJ57ddj7zGsiCj2zkm6EjMGzkOAV3Cf5yGKwLcyH8Wuki/73PanDWQrAMUij9unrMSAkGF9npfd3oPGjnp8VfA2thWvQXtXa5/7kKmBuEcm9p+FeanLTvlkWKa4GQsFzCjAAtCMWeWcDCXwzZEP8dnhFyG+iTPyddnI32Fi3Lm9fur3S3OtbanEnzddquqVp2wF4Ni4s3HFiN/B093b4fSKzwI2FLyDL/JeMfwCoX6+Ubgg5QaMjT3LYQ82pAAF1AuwAFRvyB4o4LBAcX0uPsp+GvnV+xzuw9UNxWvfq0b9ASNjZmgSytMZdyLnxE6H+5KrALRh8Zg/YVTM6Zp89yb+svDJoedUvyZ3GFejhqIovnDYDQj1jdSoR3ZDAQr0VYAFYF/F+HsKaCQgXudtOvI+1uW+DPGqz4iXOOrrkuG/QVrkZE0KHGGwPv8NfJqzymEOmQpAX89ALJ/0BPoHJzk8n5833Hbsc6w59BzE4hmjXj6eAZiXsgwT+6t7YmzU+TNuCsggwAJQhiwwBssJiIKvoCYTb2c+atCtPmzKHnZzUq7HiKhpmp26IW6EjNIv8cbevzl8T8hUAPbzjcHNk/6BCP84h+fz84ZiRXBGyXp8nvsKalsrNOvX2R0NCRuNi9JvRWzgIGcPzfEoQAHuA8h7gAKuERCb/q49/AK2HP3ENQGoHDXSPwG/GnIVRsZMV0730PLaemwd3t7/kMNdylQAiiekt0x6HFEBCQ7P55cadnS3YWfJV/iy4A1lEZERL3EayuxhS5RFQ97uvkacAmOmgKEF+ATQ0Olj8EYUEE//Dp7IUJ5ytRjwtIcwv1hlP7uxsWdC7O2m9bUmZxW+yn/D4W5lKgA93bxw44SHMSR81H9s+uzwBH9sKO6d7cc+V7aJqWsz5vZB4f5xWDz6T4gPSdbcR60v21PA7AIsAM2eYc5POgFx7NlzO+9BfvVe6WI7VUBB3v1w1uDLMDn+PPh6Bpzq5w79+0c3L8XRumyH2opGMhWAIp7zk6/FzMGXq1od/d8wxHeA3x75CN8f/QjNHfUOm7my4eSE2bg4/VaI4+J4UYACzhNgAeg8a45EAUXgu6KPsTrrKXTbuwwl4u3hh+kD5uLswZfB3ytIl9jzqvfjmYw7Va1yla0AjAoYiDunPavbvncN7TX47PDL2Fn6JTq723TJi56dirOQrx33VwwLH6fnMOybAhT4mQALQN4SFHCiQGNHHf72zVWGe1ojzvZNj5yCRaPugp+nPsWfOAf3iW23obBG3ZY4shWA4tizc5KuwvnJi3W702paj+PN/Q8jr3qvIVeUxwUNwd0zXtDNhx1TgAL/KcACkHcFBZwo8Pq+v2NHyXonjqjNUME+kbh7+ioEeIdo0+Ev9CK+/dtU+K7qs5BlKwDFVMUJGIvH/Bkjo6fr5GeH2FPyxV1/RI0BVwbbYMOC9Ftx2sB5OvmwWwpQ4OcCLAB5T1DASQJHag9i5fY7DHemq4ebJ26buhIDgvt+lNmpaO2wo7unExsL38eGgrfQ2tl0qian/PcyFoAiaPGN28L02zCh/zmabpvzU5AdJV/h3cx/oKPbeEfGiW9K/3j66wj07nfKHPMHFKCAegEWgOoN2QMFTikgNn3+5657kVe9G+JVp1EusYr1gpQbcfqgBZqHLL6BrGouw8bC97C77GuIxTFaXLIWgGJuPh5+mDrgQpwx6CKl0BGvh7W+3s18DFuOroEoro10iW1hJsWfj4Xpy3UrkI3kwVgpoLcAC0C9hdm/5QXEti9bj32GtTmrDPbtnw1jYs/EolF3QxSCWl6d3R0orM3EhoK3kVu1R9XZvz+PS+YCUMQqzgQW31OeNfhSxAUN1rzYEXsErth2K4rrcrRMmVP6CvEJx6JR9yA5fKxTxuMgFLCyAAtAK2efc3eKQEVTMd468AiO1GQa6qlMTGAifj36XsQGJWq6R5so/rIqtynF39G6Q5rnQPYCUExYPO0a3G+EsqJ6SNgopSjU8iqsPYiXdt+H+rYqLbvVvS93mwfSo6bikhG/QaCXft+b6j4RDkABAwiwADRAkhiicQU6u9vxZf6b+PbIB2jtajbMRPw8A3Fhyo0YHzdT0+JEHGO2s/QrbCx4F2WNhbp4GKEAPDnxhJBhyqbaqZETNX3K2t3Tha8L38Vnh19Aj8HOmRanp5w39Bplr0mbzabLPcJOKUABgAUg7wIK6CggtuVYnf00SurzdBxF+67FQoU5ydchxDdS0843H/0EGwreQXVLmab9/rQzIxWAIu7YoMGYnbwEaZGTNP0msLrlON4+8CgOV+3UzVqPjsWWQ8nh4zA/9SbEBA7UYwj2SQEK8Cxg3gMU0E+gqaMe6/Negyh6uno69RtI454jAxIwL2UpUjUuSLYd+wyf5ryIhvZqjSP+9+6MVgCK6CMD4nHx8N8gOWyMZjZikU3m8a14J/NRg317CohNx8WT0TMSF2r6ZFQzXHZEARMI8AmgCZLIKcgpkFmxFe8dfAJ1BtqXTXyDdXriQswacpXyh7BW167Sr/HxoadR36Zv8SfiNWIBKOIO8YnAjRMfQlzgYK3Y0dhei89zX8H3Rz/WrE9ndZQQnIwFabcgsd9wZw3JcShgKQEWgJZKNyfrLAGxGa/Y2Hh36QbAQNtxDAhJxfy0m5EYmqYZ1eGq3Xj7wCOobinXrM//1ZFRC0Axp1DfaNwxdSWCfSI0srIjq3IHPji4AlUtpRr16ZxuxKtgcYayWCij17nTzpkJR6GAnAIsAOXMC6MysIBY6LCv/Du8uvd+Tbc30ZtErEQ9beACXJhyg2ZDlTcW4Y19f0dx/WHN+jxVR0YuAMWJGEPCx+GG8Q/Ay93nVFPt1b8X+yuKs4K/KXrfUHtQismJvRIXj7kPSWEjNV2J3is4/ogCJhdgAWjyBHN6zheoai7Fa/v+DnHyh3EuGxJCknH5iLsQF5SoSdgN7TX4MOsp7Cv/xqkrUY1cAAp4UfhNHXABZidfq1kReOjETnyU/QzKdVp5rckN8186Gd//XOWb1EDvUD2HYd8UsJwAC0DLpZwT1lNAfHj/7ZEPlT9sjXSJomPagLmYl7pUk7Dbulrw7ZHV2Fj4Llo6GzTps7edGL0AFPMM9Y3C+cnXYlzsWco5wmovcRLNx4eexfZj6wy1IEnMWxxFePWY+zA8aqqmq6TVmrI9BYwuwALQ6Blk/FIJiFeeT2fcifq2E1LFdapgIv3jcc3YvygnU6i9uu3dyK7cjk8OPQexCbazLzMUgMJsUGga5qfegoGhKZoQZlVm4MOsJ3GiuUST/pzZifg29frxDyDIO8yZw3IsCphagAWgqdPLyTlbQLz63Vmy3tnDqhpPnEoxOWE2Lhl+uybfWYnFBquznkZmxRZVcTna2CwFoIebF6YkzMa5Q65EkHc/Rzn+1a6tqxlv7X8EB45/D/Gk2mjXnGHXKVvD8KIABbQRYAGojSN7oQCyKrfjxd1/gjj9w0iXeP27fPKTGBCSrDrs9u5WbD66BusOvwRxJq0rLrMUgMJOnIoxN2UpRsecrsmr4J2lG7A6ayWaOmpdkRpVY4oi+JbJjyM6gJtDq4JkYwr8KMACkLcCBTQQEN+8rdi6HCUNxjrxQ0w9JWICbhj/fxoUGHaUNhTin7vuQU3LcQ1UHevCTAXgyfxclLZc2Sxa7dXS2YRnMn6L4rpDhjqX+uS8R8TMwHVj71fLwPYUoABPAuE9QAFtBNbnvYEv8l4x3Af2YvZLxj2AkdHTVUOI007ez3oSW4+udeneh2YrAMWr4AVpN2Ni/1nwdPdSnSdxr36e9zLEecFGu8Tm5FeN+gNGRE8zWuiMlwLSCfAJoHQpYUBGEzjRVILndt6NyuZjRgsdgd7heODs9yC+A1R7HavPwz823wCxCMSVl9kKQGEZFTAASyc8hDC/GNW0lc0lePi7JRCv64132RAfPBS3TlkBb3df44XPiCkgkQALQImSwVCMJ9Bj78G7mY9jR8kX6OrpMNwEzky8DPNSb1Qdt91ux/M7f4+sym2q+1LbgRkLQGEizgqemjBbk2L9mYzf4dCJDLXULmkvTgWZmXSFckKI2DibFwUo4JgAC0DH3NiKAsprTnHMltjs+IQBn/6Jc3/vmPYM4oPVL/44WpeDRzdrd4KImtvLrAVgmF+ckq9ArxA1PErbnaVf4bW9D6jux1UdiKeAi0bdg9jAQa4KgeNSwPACLAANn0JOwFUCje21WJ39NPaUbTTUkW8nveKChuA3U1eqPm1CHH338p77sa98k6tS8W/jmrUAFJO8ZMQdmJZwgWrnpo56/HnjpRDHxBnx8nL3xbQBF+C85MV8FWzEBDJmKQRYAEqRBgZhNAFR9GQcW491uS+hzmCbPp+0Pjvpcpw/9BrlpAU1V1njETy+5SaIfeZkuMxcAMYEDsKd056Hl7u3aupnd/we2ZVbVffjqg5iAhMxN3UpUiMmuCoEjksBQwuwADR0+hi8qwSONx3Fx9nPSvHNmyMG7m6euH7835ASPh42m5sjXfyrzSc5q7Cp4B1pNhc2cwEo0G+c8AjSItUXPWK/xncz/6Eq965sLD5hmBg/C+cNXYxgH54Q4spccGxjCrAANGbeGLULBcQGx1uK12Ld4ZeleerVV44I/3gsnfAgIvz797Xpv/1evAZ/dsddOFaf69KtX34alNkLwBHRM3DdOPV74Ym/xDz83fXo7HHNht2qbrwfG4uj4eal3oQxsadrsjhGi5jYBwWMIsAC0CiZYpzSCJTU5+GN/Q+h1ICbPp9EHBN7JsTmwoHeoapc95Z/g/cPrkBje42qfrRsbPYCMMArBL+d/k/0841SxSa+/1ux7dYfi3dVXbm0cXrUVMxPvQkR/nEujYODU8BoAiwAjZYxxutSgdauZmzIfxsbCt4y5MKPk3izh9IcsyQAACAASURBVC3B6QMvgreHur3U3j34BDKKP0OnRFvgmL0AFBtDL0y/DVMSzlf1/wti4+4Psp7ClqOfqOrH1Y093b2xMO1WjO8/E8KGFwUo0DsBFoC9c+KvKKAIiM2OV2xbbtjVk2IO4g/JxWPuQ3rUFLip+P6voa0aL+35MwpqDkh1d5i9ABTfbI6Ino4lY/+qyl0sZNp2bB3eOfCoqn5kaCw+aVg28WGE+8XKEA5joIAhBFgAGiJNDFIGAfHt36t7/4YDx7+TIRyHYxB/WP569L0YEDLM4T5Ew0MnduKDrBWobJLrBBSzF4DCXrzuvGXS4whV8RrYDjuO1GThye23obunU9W9IEPjXw29GucmLVK9ql2GuTAGCjhDgAWgM5Q5hikEDlZsw/M77zb8XJLDx2Fh+q2ICkhQNZeNhe/hy/w30NxRr6ofrRtboQAUix/EnoAjoqaq4qtqKcPTGb9FVXOJqn5kaCz2Bvzt9OcRHTBAhnAYAwWkF2ABKH2KGKAMAmLj3BVbb8XxpiMyhKMqhknx52F28rUI9gl3uJ/O7g6szl6JbcWfSbP9y8nJWKEA9PHww5mJl2LW0F87nEPRsL6tCm/uf9iwx8L9fPLDo6Zj8Zg/wdOd3wKqujHY2BICLAAtkWZOUq3A53mvYt3hl9R2I0X7c5IWKeeoijNVHb2qW8rx/sEnkFW53dEudGtnhQJQ7IE3MuY0XDnq96peeYqnt2tyVmFr8Vrd8uHsjheP+TPGxJ7h7GE5HgUMJ8AC0HApY8DOFihpyMezGXehob3K2UNrPp6bzUPZMkMco+Xu5uFw/0dqs/Bh1kocrct2uA+9GlqhABR2iaHDcfWY+xDqG+EwZVtXCzYWvovPc19xuA/ZGsYGDsaySY8g2JubQ8uWG8YjlwALQLnywWgkE+i2dymvyHaXbjD0ti8nWf08g3Dx8NsxNvZMVdL7j2/GJ4eew4lmuRaAiElZpQAUhc5lI+7EwNBUh3PZ1dOhHGn4TqbxVwKfRBCn3IjTQc5JusJhFzakgBUEWABaIcuco8MChbUH8eqe+1HTetzhPmRqGOYXo+whlxY5SVVYW4s/w9rDq9DUXquqHz0aW6UAFFuezE29CSOjpznM2GPvwYHjm/Hq3vshikFzXDb0D0pSjjpUs0raHBacBQX+uwALQN4dFPgfAquzn8WWox9DbAFjhks8NboofTmGhI1yeDqiaBArgMVrw47uVof70auhVQpAsRL4vORrMDVhtirKvKp9yn6OTR3yFfOOTszfKxhzkq/D1AFzHO2C7ShgegEWgKZPMSfoqICsGx07Oh/RbkBIKhak3YxBoWkOd9PR3Y51uS9jY8E7EHvJyXZZpQD09QzEzMGXY2bS5apSUFR3SHkCWNVcqqofmRq72dyVzbKvHv1HVd+6yjQnxkIBrQVYAGotyv5MIyD2/RNbnZwwwR5pJ5MyJHyMsghEvCJz9GrpaMDawy9gs6RHiFmlAPRy98HpiRdjTvK1jqZSaVdcn4s39v0d5Y3G3+LopxD9g4di0ci7ERc0WJUPG1PArAIsAM2aWc5LlYB4srWh4B1syH8TLZ2NqvqSqXFKxETMTV2K2MBBDofV0F6NNTn/RMaxLxzuQ8+GVikAxWKHqQkXYEHaTRBPvBy9ShsK8Nb+h1Fcn+NoF1K2E9//XTjsRoyNU7fgScrJMSgKaCDAAlADRHZhPoH2rlZ8kPUUdpR8YYrVvyczlBo5CXNTlyFGxWkJNa0VWHPoeewu+1rKxFulABRF36T487EwfbmqvQDLGgvx9oF/oKj2oJT5dDQoHw9/nDX4UvxqyJUAbI52w3YUMK0AC0DTppYTUyMgjsh6P/MJZJ/IUNONdG3F5sEXptyICL9Yh2Orbj2uFIB7yjY63IeeDWcMWoB5KUtVFUU/je/5nffgYMUWPUN2qG8bbBgbdxYuTr9d1abeZQ2iAHwURXVZDsUhayM3mxsm9p+lHHvo6e4ta5iMiwIuE2AB6DJ6DiyzQFFdDlZnPYUjJnsqMirmDFyYcgPC/WIc5hdb4nwicQGo9RPAZ3f8DtmVMv5FwIYxMWfgkuG3w88ryOF8mrUAFCDDo6fhkvTbVR176DAsG1JAcgEWgJIniOG5RiCnahc+yn4GZQ0FrglAp1FHRM/AXPEE0D/O4RHEE0BRAO6V9Ang+LhzcNnI38LTTZvzYB/8fglK6/Mc9tKroQ1uGBc3ExcPvw3ibGBHLzMXgMnhY3FR+q2IVvHJg6OubEcB2QVYAMqeIcbnEgGxOe7Hkp50oQYkJXIi5qUsQ0zgQIe7qW2txCc5zyuno8h4xQcn47YpT0KsklV7iQVA9319Kdq6mtR2pXl78Q3glITZWJB2i6rX3Wb9BlCAD+43QvGJDx6quT87pIDRBVgAGj2DjF8Xgd2lXytFTm1rhS79u6rTYRETMC91mapVwI3ttVib809sO7bOVdP4n+N6uHnirukvIFpFkXtygP3Hv8cLu/4ISLjfoZjntAFzlXyK790cvcRZ1+K4w5L6w452IW27ASEpmJ92MxJD06WNkYFRwFUCLABdJc9xpRbYVfo11piwAEwKG6XsA6jmiYh4KvZpzgv4/ujH0uZQfAd4cfqtquN7avsdyK3apbofPTrwdvfFGYmX4Pzkxaq6L647jNf2/Q0VTUdV9SNj47igJMxLvQnJ4WNkDI8xUcClAiwAXcrPwWUV2FW64ccCsFLWEB2KS4uTQDq7O/B53ivYUPA27PYeh+LQu5F4PfrHM96AOC/XkUvsA7n/+Ga8tvd+dHa3O9KF7m38PINwzpBFOCvxElVjHanNxit7/4qalnJV/cjYOCFkGOan3ozB/YbLGB5jooBLBVgAupSfg8sqsK/8O3yS85ypjscS1tGBg7AwbTmGqngiIoqjb4+sxmeHX0RbV7OsKVSOvbt+/N8Q5N2vTzHa7XZUNB/DC7vulfqpWLBPOM5PXoLJ8bP6NL+f/ljkUpwF/OLu+9DSWe9wP7I2HNRvuPIN4IDgZFlDZFwUcJkAC0CX0XNgmQWyT+zAx9nPoryxUOYw+xxbqG80Lk6/DelRk/vc9qcNdpSsV04DqW+rUtWPno3FU0Cx7+Hsodcg3D+2V6dliKeb4ki0T3NfUl79dvd06Rmiqr7D/eMwP/UWDFeRyx57Nw4c/x6v7L1f6rk6CjUkbDQWpC9HXGCio12wHQVMK8AC0LSp5cTUCBTWHsTqrJU4WndITTfStfX1DFA2DhYbCIuNhB29sioz8HH2MzjeVORoF05p5+HmhaFhYzB5wGwMCklFoHfoLy6YEIWQKGZzq/Zha/FaJe/ddnmLP4Envm+7fOTvkKDi6VZnTwe2H1uH9zIfd0o+nD1IWuRkZZucfr7Rzh6a41FAegEWgNKniAG6QqCiqRjvH1yBw5IuAHDURKwWvTBlKWYMnAtRHDl6HavPw4dZT6Kg5oCjXTitnZizePIpXnsPDElBpH8CAryDlX0C27pb0dLRgOONRRBFf371ftS1GeG7TxuSwkZi8Zj7+vyK+6fw4hX+hsJ3sD73Naflw1kD2Wy2H/ZJTBf7JPo7a1iOQwHDCLAANEyqGKgzBVo6G/DBwaewu2wDeiRd6OCox9mDL8PMpCvg5xnoaBdoaK/F+wefwL7yb6XcIuWXJiZeCQd4BSPYJwJ+ngFwd/NUFni0djWjrrUSTR3iGzi7wybObOju5oExsWfhipF3wd3m7vDQYs5iv8sMSbf0cXhigLIP5OmDFmJ28rUQxSAvClDg3wVYAPKOoMAvCIii74u817Cp8D2pFzo4krwJ/c/FnGHXIcQnwpHmShvxynRNzip8V7Ra2lWyDk/OAA3FEy1RxJ+TdIWqaOvaTuC1ff+HvKrdqvqRsbGySGbotZiccJ6M4TEmCrhcgAWgy1PAAGQV2F22CWsOPQdx9q2ZLvFh/MXDb1d9PNbW4s/wWe6LaGirNhOPIeYiipvLR96F1IgJquI90VyKlRl3oqalTFU/MjaOCUzEpSPu4CbQMiaHMUkhwAJQijQwCBkFKptK8Nq+B0y3ECTMLw5Xj/4jBoamqGIvqsvB2wceNt15yapQnNQ4KiABt01+CgHeIQ6PKLaAya/aj5UZt5vuMwfAhuSIcbhu7P3w9vB12IgNKWBmARaAZs4u56Za4I39D0JsCt3d06m6L1k6EN++XT36XoyInt6rrVH+W9wd3W3KMWk5J3ZCFBO8nCMgFrWMiT0bvx79B1UDitf4W4rXmnIFsHhFLr51PXfIlaqM2JgCZhZgAWjm7HJuqgUOVGzFu5mPmu4156yhV+PMxEvg4+GnyujzvFexseAdtHW1qOqHjXsvIFZvi+1fxsfN7H2jX/hlV08H3s18AtuPfaaqHxkbR/j3x5Jx9yOW+//JmB7GJIkAC0BJEsEw5BRo72rDql33Ird6F8QJEWa5xNO/S4b/RtUWIsKioCYTr+69H7WtFWahkX4eQT7huGv6KtW5E1vAPLblZtNtdi5We0+MPw+Xj7hT+lwyQAq4UoAFoCv1ObYhBA5WbMOre/9qqqdcYX4xWDrhYYhvydRc4jXwqp334rDJCmQ1Jnq3nRh/PhaN/J3qYUob8vHo5hvRZaLPGwRKiE8kbpzwEOKCePqH6puEHZhagAWgqdPLyWkhII4D++FbwK+06E6KPsRTkmvH/hXDo6bAZnNTFZNYDSz2BBSvFHnpKyDyduvkp5DYL031QF8Xvquc5mK26/zka/GrIVeZbVqcDwU0F2ABqDkpOzSjQEXzMazYuhyN7TWmmd7pgy7ChSk3wsPNU9WcGttr8ejmZahpNd9WIqpgdGicGDoCyyc/DrERtNrryW23I696j9pupGofH5yMmyY+An+vYKniYjAUkFGABaCMWWFMUgpsLHwPH2U/LWVsjgQVFTAAv53+PLzd1W+T8dnhl/FF3iuOhME2fRBYMu4BjIye3ocWv/xT8c3mA99cBfEK3yyXOO3jxvEPITVyolmmxHlQQFcBFoC68rJzMwk0ddTh2Yy7UFyfY4ppideJyyc/gcH9RqieT3NHPf6y6Qq0djaq7osd/LJA/6ChuGXyY6qO8DvZ8/fFa/DegX+Yinps7Nm4bMSd3PfPVFnlZPQUYAGopy77NpWAWAV86MQOPLtD/Qf4ssBMSZij/KGpxbU+/w18mrNKi67Yxy8I/Hr0vcr5v2IfQLXXo1uW4WhtltpupGkvzrVePnkF4oIGSxMTA6GA7AIsAGXPEOOTSqCxvQ4fZq/EbpMsCPH1CMTfZn4IT3dv1c6tnc24/5sr0djOo+FUY/6sg6Sw0crGz2rObz7ZZWlDAR7bssw0r3/Fq99ZQxfjjEELVe9rqXXe2B8FZBZgAShzdhibhAJ25FcfwCt7/4r6tioJ4+t7SItG3YOJ/c/te8OftegWJ0scXYPV2SshVk7z0kZAfKMpNn4eGT1D9eIPcWLLJ4eexzeF76Pbbo4ciYUfwqd/UJI24OyFAhYRYAFokURzmtoJNHc24OuCd7Gp8F1T7KE2KDRdWVkqTphQe9W1ncBre/+GvOq9artie0DZomdc3EzMSV6CUN9I1SYNbdVYmXGnaTZ/FifZzBl2PSbHnw9Pd/X3r2pgdkABAwmwADRQshiqPAJHarPwYdZKHK3LlicoByPxcvfGDRMexNCwMQ728P+biSd/mRVb8P7BFWjgq2DVnmKj7gVpt2BYxHjYYFPd3/dHP8GnOS+gpbNBdV+u7kB4pEdNxYUpN6je0NzVc+H4FHCFAAtAV6hzTMMLiO0zvj2yGl8VvGX4la9iUcHomDNx5ajfq37FKBIrVkt/mf8Wvi9abYonpK66WcXChjMSL8ZpAxfA19NfdRhNHfV4c/+DyK7MQI+9W3V/ru4g1DcKs5OXYFzc2ZosjHH1fDg+BZwtwALQ2eIczzQCFU3F+CDrSeSc2Gn4OfXzjcavx/wRiaHpmsylpD4PH2U/g1yTbTSsCU4vOhFb9KRFTsa81GWI8I/rRYtT/2RP2Ubl+7+a1uOn/rHkv3C3eWBs3NmYm7oUgV4hkkfL8CggpwALQDnzwqgMINBj78H2Y59jXe5Lhl8QIr7/mxD/K1ySfhtE8aH26u7pxN7y7/BZ7ouoai5V253l2otNuhem34qh4WM0efXb1F6Hjw49g92lX5ti8Yd4Nb4w/TYkh4+13L3BCVNAKwEWgFpJsh9LCrR1teD1ff+HgxVbDP9aLSZwEBam344hYSM1yaV4Tb6h4B18c+QDw78m1wSkl534ewXhvKHXYkrC+aqP6Ts55J6yb7Am5zlUt5T3Mgp5fya2LJocPxvzUpdq5iPvbBkZBfQTYAGony17tohAbvU+vL73AYgVsEa+xGs1sTH0grSbNfkWUFiIIvCN/Q/hQPl3pnjypHd+xdPXaQPmYn7aMoh8aHGJp3+fHn4BW4s/hdgGxuhXuF8sbp70GML8Yow+FcZPAZcKsAB0KT8HN4vAm/sfxo6SLwz/FDA6YCAuTL0R6ZGTNUuN2Hrk+Z334Fj9YVMUIJrB/Kwjsao1JXISlk54ULMhRMG3t/xbvH/wCTS112rWr6s68nDzVLZ9OTPxYleFwHEpYBoBFoCmSSUn4kqB2tYKPLblJsM/BRSGUxJmY86w6xCg4cf1xxuLsGr3vahsOubKNEk7tnjyNyA0DTdNeFjTs2yrW48rCz/2lm2Udu59CSwuKAl3TnuOr377gsbfUuC/CLAA5K1BAY0EvjnyIVZnrYQdPRr16Jpugn3CcWHKjRgTc4Zmr4LFTI7UZePt/Y+YZhNirbIjir+kfiOxaNTvNdns+WRcXT2d2FW6Ae8dfByd3e1aheuyfrzcfbBk3ANIiRjvshg4MAXMJMAC0EzZ5FxcKtDZ04Gntt2OI7UHXRqHFoOnRk5SNiCO9O+vRXf/6qOgJhMfZz+DIhNsoK0FjHilOTRsLC5IuR6xQYmarPgVcYlXv2UNhXhj/4Moqc/VIlSX9zGh/yxcOepul8fBAChgFgEWgGbJJOchhcDhqj14Yde9aOtqliIeR4MQ28LMGno1Ths4X9NXknZ7DwpqM7E+7zUIK/F/W/XycvdFetRkzBx8hVL8iQ25tbrE0z9xUs3mox9r1aVL+xELPpZOeAhiexxeFKCANgIsALVxZC8UUASUP3izV2JzkfH/4BUnLVwx8i4MDRutnEmr1dVt71aeSm0sfBeZFdvQ2d2mVdeG6cfPMwhj487CjIHzEOkfr2nxJxD2lG3C2wceMfxfRE4mdH7qzZgxaD7cNdij0jA3CQOlgM4CLAB1Bmb31hIQr97EKRgv7/kLTjSXGH7yg0LTsWziI/Dx8NN0LuIosqqWMmw+ulZZPd3cUa9p/zJ3FugdiukD5in7/AX5hGn22vfknE80l+LpjDtMseefmFNS2CjlLyJi+xdeFKCAdgIsALWzZE8UUAQ6utux5egarM5eaXgR8VpyasIFuHj47ZrPRRTLrZ1N2FX6Nb7Kf8MUK6hPhSQW2MxOvg4jY6bD10P9+b4/H088XX0m47fIrdp9qlAM8e/Fwg+xOGZk9HRNTqgxxKQZJAWcJMAC0EnQHMZaAuWNR/Be5hPIr9ln+ImLVaqXj7wLE/ufq8tcRNGSX7NfOTu4rD7ftHsFJvUbjYXpyxEdOEC3YmZtzgvYWPiO8imCGa6J8edhdvK1CPEJN8N0OAcKSCXAAlCqdDAYswiIc4LFq833D65QTsMw+iWexCyfvAIDQpIB2HSZjngauPbwC9h+bB26ujtMUQiKJ6hiQc3ZSYswa8iVuriJTsVimj3l3+DDrCfRaIINn8WcQnyjcHH6bRgeNUU3N3ZMASsLsAC0cvY5d10FxCa8n+aswu6yjSZY7WqD2IR3ybi/6v4tVk7VLnyZ9yZKG/KUV8RGPL5MPDX19QxQFtCcmXgJBoQM03QhzU9vXFH8FdYexLuZj0E8eTbD5e7mgdMGLsCvhlylOPKiAAW0F2ABqL0pe6TAvwTEasw1Oc+b4oN8sWddetQ0zE+7CaE+EbpmubmzATtKvlJOsDjeVITWTrGtjvzn2Ionfv5ewegfPBQjo2dgVMwM+HsG6WYliuPjjUfxUfbTEIWzWbbViQ9OxrzUmzAkbKRuduyYAlYXYAFo9TuA89dVoKWjEWsPr0LGsc8hNoo2+uXj4Y+J8bNw9uBLEaJzEShWCh9vKsa+8m+RX71PebolVgvL+UTQBrG6Nz54KNIiJyn7+/XzjdY93dUt5ViX+wr2lG1ElwnuLwHm6xGAMxIvxjlJl8PdzVN3Qw5AAasKsAC0auY5b6cJ5Ffvx3uZj6O8yRyv50ShMyVhDqYPnItg7zDdHcUxZpXNJRCniIhC8GjdIdS0Htd93N4OIPbxiw9JRnLYWAzql4Yo/wTYbPp8J/nTmBraqvFVwdvKN5NG33j85LzEfpOD+43E5SPuRITGp9D0Np/8HQWsIsAC0CqZ5jxdJiBWZH6R+xq+KfoA7V0tLotDy4GDvMOUjXmnJVwAfy/9XnH+NGbxRLCmtQIVjcUoqDmgnC1c1lCAls4GLafWq77E/OOCh2BAcDIS+6UrJ1T0843qVVstfiTmvD7vDWw/9rlL5q/FHH6pD/H6XJxDPTn+PL2GYL8UoMCPAiwAeStQwAkCta2VeH7nH5SFDUb4lq03JKIIOnPwJZiaMEfzjaJPNb5YHFLfXq18W1lUm43i+lxlA+7GjhpdvoMTizqCfSLQP2iIshI6ITgZYf6xCPIOhXgt7sxL/IVCbJmzs/RLZZGMWS7x9C8tYjKuGn0PF36YJamch9QCLAClTg+DM5NARsmXeOfAI6b5VkvkRhxpdtqgBTg3aRHEyk1nX2LRQ3t3G9q7WpXtT060lOBYfR7EaRhlDYVKQdjW1QS7vfcLSMRxY94eAcoTvajABIT7xSlFX4RfHPy8guDt7gtPd2/Nj2/rrd07mY9jZ8kXpthe6KdzFlsN3TLpcQwMTe0tBX9HAQqoEGABqAKPTSnQFwHxCnPF1ttRWLu/L82k/+0PW3ZchHmpS10cqx09drvyBFD5T0832rtble8F69qq0NRRj9bORnQr/30bWjrqEeAdCk83T3i4eyHAKxgBnsHKkz6xytnLw0fZukX5j81Nt21ceovW3dOF1/b9HfvKv4G4l8x2zRg4HxelLXfK95Nms+N8KOCIAAtAR9TYhgIOCoiVrA99twTd9i4He5C32cT+s3DJ8Nvh6e6l22bR8s5ev8jE08uG9mq8deBRHDqRocsrbv2i713PYuXvA2d/qBTdvChAAecIsAB0jjNHocC/BD44+BS+LfrQNN8CnpyYeEqWGjkZc1NuVDaLdsUrYbPdZmJrl+K6w1iT808cqc0y5ZM/d5uHctb0lITZZksf50MBqQVYAEqdHgZnRgGxfcdjW29GdUuZ6aYnFkskhAzDOUmLMCRslNMXh5gJVGx+nX0iA1/mv6GsdjbrNSRsDG6c8CC83L3NOkXOiwJSCrAAlDItDMrMAuL7rW3F6/BB1pOmWhDy05yJPdzEN11jYk5HkI/+ewWa6X4R3zCKVePiCMGtxZ+iqqXUTNP7t7kEeIXgqtF/wLDwcS7/xtK0yJwYBf6LAAtA3hoUcIFAfVs13j7wCLIqt7lgdOcMKbaJGRVzOibGn4u4oMEQr/p4/W+BHnuPssehKPyyKzNMtcffL81c/CXh/ORr4OcZyFuDAhRwsgALQCeDczgKCAGxCORgxVa8m/mYsn2JWS9Pdx/EBw9RTg4ZH3c2xCtiXr8sIF757ij5EjtKvkBJQy5EMWjmKzpwIC4dficSQ9O58tfMiebcpBVgAShtahiY2QVE4fd53iv4vuhjs08Vob5RSImYgBkD5ylPA3n9u0Be9X58e+RDFNYeMPVfCE7O2sPNE7OGXo3TBi6At4cvbwcKUMAFAiwAXYDOISkgBMT2HjlVu7A6ayWONxWZHsXDzQuhvpE4bdBFytNAvvYD6tuqlOPcdpSsR1VLmSlX+f7SjZ0cPhZzU5ehf1CS6e97TpACsgqwAJQ1M4zLEgKdPR34IvdVbCh42zJ/+Hu6eSMuKEn59is5fIwlP/7v6G5DZsVWbCh4C2JvSLHJs1UuX89AnD/0GswYONeSubdKnjlP+QVYAMqfI0ZocgFxdNnq7KeQX22uE0JOlTZvDz+kRU7GmYkLERs0GOK1oA22UzUz7L8XT3w7etpQUp+PrwveUbZ46e7pNOx8HAlc5HdE9HQsTL8VwT7hjnTBNhSggEYCLAA1gmQ3FFAjIJ4AfpX/Jlo6G9V0Y8i2/l4hGBkzA1Piz0eYX7TyathMi0W6ejqVvJY2FGD7sS9wsGKz6c7x7e2NJ85XnjPsBoyLO6u3Tfg7ClBAJwEWgDrBslsK9EWgru2Esi1MzoldlnkV/HMff69QpEdOQnrUZMQGJSLYO9ywCwTssKOtqwV1rSdwtO4QMiu2IKtimymPAOztfS6e8I6OPROXDv8NvNx55Ftv3fg7CuglwAJQL1n2S4E+Cuwq3aAsCGnsMO+2ML0hEcVBYr8RykkiA0JSEOEfC7GnoCggZL/E077atkpUNh1DUd0h5FfvQ1Fttmk3/O5LPsTm4ItG3YPE0LS+NONvKUABnQRYAOoEy24p0FeB9q5WvH3gUewt32j6PeB6YyNWDYf7xSE2aBASgpOV7wSjAuKVLWVk+law296N2tbjON54FOWNRThafwil9QWobauw1OKO/5VTcS702YMvVxb+yJS73tyH/A0FzCrAAtCsmeW8DClQ0pCPldvvQHNHnSHj1ytoXw9/hPhGQXxD1j94CKL8EyA2Eg73i4GvZ4Bew/5iv+L1bnNHPapaynG8sQjlTUU43ngE1S3lqGurQntXi1PjMcJgMYGJWDbxYYT4RBghXMZIAUsIsAC0RJo5SaMIiOLi89xX8Xnuy0YJ2elxern7wt8rEP6ecmf33AAADulJREFUwQj0DkVUwABEBSQg3D8OEX4xCPAK1fTbwZbOJjS116KypRRVzWWobC5WXvGKV/WiEBQLPDq7253uYKQBl4y9X1now4sCFJBHgAWgPLlgJBRQBFq7mvHw99ejqrmEIqcQEK8TPdy94OXuDfHK2NPNCwHeoejnG4Mg734I8g5VikQ/ryD4evrDy80booB0s9kA+w+dd6MH4vV7l70DLR1NSlEnTmkRBV5Dew1ONB9DW2czOnra0dXdAbF3o/inKNZ5nVogNXIyrht3vyG+4Tz1bPgLCphHgAWgeXLJmZhIIKtiO57beZeJZuS8qYii0GZT/idgc1P++cP/La6T+wyKf/68gPuhpBP79dnRI/4XpcjrsSv/rfMmYKKR3Nw8cO9prysLeXhRgAJyCbAAlCsfjIYCioB4pfjynr8is2IzRShgSAFRcs8csgjnDbkaYhEILwpQQC4BFoBy5YPRUEAREE+ejtbm4Jkdd6K1s4kqFDCcQFTAQCyd8CDC/GIMFzsDpoAVBFgAWiHLnKMhBUTh91XBW8qxYT32bkPOgUFbU0Ds5Tg/9WZM6H8uPN29rInAWVNAcgEWgJIniOFZW0BsC/Pm/odRUn/Y2hCcvaEE0iOnYH7azYjwjzNU3AyWAlYSYAFopWxzroYTaO9uw5aja5VtYdq6mg0XPwO2nkCwTzjmpizF6JjT+e2f9dLPGRtIgAWggZLFUK0pcLzpKD7OfhZZldusCcBZG0bAzeaOif1nKSd+BPuEGSZuBkoBKwqwALRi1jlnQwl093RhR8l6rMt9GXVtJwwVO4O1loA48WNu6lKkRIznkW/WSj1na0ABFoAGTBpDtp5AU0c9Pji4AnvKNv2wRx0vCkgm4OnujWkD5mJO8hIu/JAsNwyHAr8kwAKQ9wUFDCKQXZmBD7KeUk6m4EUB2QQSgpNx5ah7lDOaeVGAAvILsACUP0eMkAL/EhArgneVfomunk6qUEAaAR8Pf5w1+DL8asiV0sTEQChAgf8twAKQdwgFDCRQ3liEl/bch+ONRQaKmqGaWUCc+DEgJAVLJz4MP89AM0+Vc6OAqQRYAJoqnZyMFQTW57+hbAsjFofwooCrBbw9/LBo5O8xKmaGq0Ph+BSgQB8EWAD2AYs/pYAMAs0d9Xhmx10orjskQziMweICo2LOwOIxf4Kbzc3iEpw+BYwlwALQWPlitBRQBLIqM7Bq5z3otvMpIG8J1wkEeIdi+aQnEMOFH65LAkemgIMCLAAdhGMzCrhSQJwN/Pr+B7Gr5EtXhsGxLS5wwbAbMDPpcosrcPoUMKYAC0Bj5o1RUwAVTcVYse02NLZXU4MCTheIDxmGpeP/D4He/Zw+NgekAAXUC7AAVG/IHijgEgHx+vfbIx/io+xnXDI+B7WugM3mhmvH/BUjoqdC/O+8KEAB4wmwADRezhgxBf4lUN1Sjpf2/BnFdTlUoYDTBMbFnYP5qcsQ6B3qtDE5EAUooK0AC0BtPdkbBZwq0G3vxr7yb/Ha3gcgvgvkRQG9BQK8QnHtuL8gqd9IvYdi/xSggI4CLAB1xGXXFHCGQE1rBdbk/BN7Sr+GHXZnDMkxLCrgbvPAmYMvwdmDL+Omzxa9Bzht8wiwADRPLjkTCwtkVmzF+wefQG1rhYUVOHW9BeKDh2JB2i0Y3G+E3kOxfwpQQGcBFoA6A7N7CjhDoLGjDuvzXsOWo2vR1dPhjCE5hsUEfD0DlCd/pw+6CF7uPhabPadLAfMJsAA0X045I4sK5FXvw+rsp1FSn2tRAU5bLwFx3m9yxDjMT72Zmz7rhcx+KeBkARaATgbncBTQS6Cjuw1f5b+Fb4s+RGtnk17DsF8LCgT7hGPW0MWYHH8ej3yzYP45ZXMKsAA0Z145K4sKnGguwWv7/o6i2iyLCnDaWgu42dyRHjUFl4/8Hfw9g7Tunv1RgAIuEmAB6CJ4DksBPQTs9h5sLv4Unx1eheaOBj2GYJ8WExBP/xaNugfDwsdabOacLgXMLcAC0Nz55ewsKCBOCFm5/Q4UVO/ntjAWzL+WUxZP/yb0PxeXjfgtX/1qCcu+KCCBAAtACZLAECigtUBezX48v+NutHe1aN01+7OQgJ9nEO457SUE+0RYaNacKgWsIcAC0Bp55iwtKPD6vgexo+RzC86cU9ZCQJzxOzd1Gc4ctFCL7tgHBSggmQALQMkSwnAooJVAXdsJPLr5RtS3VWnVJfuxkEB88DDcMe0ZuNvcLTRrTpUC1hFgAWidXHOmFhT4rugjfJj1JHrsPRacPafsqICPhz+uHXc/F344Csh2FDCAAAtAAySJIVLAUQGxH+CqXfcir3qvo12wnQUFpiTMwcL05fBw87Lg7DllClhDgAWgNfLMWVpUQGwLk31iB17b+3e0dNZbVIHT7otApH8Cfj36XsSHDIU4AYQXBShgTgEWgObMK2dFgX8JtHY246v8N/FVwZtUocD/FBBP/Oan3oRJ8bPg6e5NLQpQwMQCLABNnFxOjQJCwA47KhqL8fGhZ5FVuY0oFPivAlMSZuO8oYshNn/mRQEKmFuABaC588vZUUAREEVgfvUBfJT9NI7VH6YKBf5DIC1yEi5MuRHRgQP56pf3BwUsIMAC0AJJ5hQpcFIgqzIDa3KeR3lDIU8J4W2hCIj9/gaFpmFuylLln7woQAFrCLAAtEaeOUsK/EvgwPHN+DzvVZQ1FKDH3k0ZCwuIPf4G9RuBOcOWIDE03cISnDoFrCfAAtB6OeeMKYDDVXuwPv91FNYcQHdPF0UsKODt4YehYaNxXvI16B+UZEEBTpkC1hZgAWjt/HP2FhYoazyCTYXvIatyOxrbaywsYb2ph/vHYVzsTEwdMAchXPBhvRuAM6aA+PzDbrfbKUEBClhToKWzEfvKv8WO0i9RVJOFbjufBpr5ThAnfCSFjcKE/udiRPQ0HvNm5mRzbhQ4hQALQN4iFLC4gNgsurg+F5kVm7G//HtUNB3lAhGT3RPubp6IC0rCuLizkBoxEZEB8Vzpa7IcczoU6KsAC8C+ivH3FDChgNgmpq2zGaUNBThYuQ37j3+P6pYyiOKQl3EFROEXGzgYY2LPwNDwMYgOSICXu49xJ8TIKUABzQRYAGpGyY4oYHyBHnsP2rtaUNNaidzqPcg8vhkFNfsh/ntexhEQRd6QsDEYFXMahoSNRIB3iFL48Wg34+SQkVJAbwEWgHoLs38KGFLAjm57j7JCWOwZmFezH3lV+1DWWIC6tkpDzsjMQYu9/ML9+iMmcBBSIscjKXQEwvyi4e7mATebu5mnzrlRgAIOCrAAdBCOzShgNQGxQKSquRwnmktQ116Flo5GqxFIN18bAH/vEIT6RCAqIAEhPhFws7lJFycDogAF5BNgAShfThgRBShAAQpQgAIU0FWABaCuvOycAhSgAAUoQAEKyCfAAlC+nDAiClCAAhSgAAUooKsAC0Bdedk5BShAAQpQgAIUkE+ABaB8OWFEFKAABShAAQpQQFcBFoC68rJzClCAAhSgAAUoIJ8AC0D5csKIKEABClCAAhSggK4CLAB15WXnFKAABShAAQpQQD4BFoDy5YQRUYACFKAABShAAV0FWADqysvOKUABClCAAhSggHwCLADlywkjogAFKEABClCAAroKsADUlZedU4ACFKAABShAAfkEWADKlxNGRAEKUIACFKAABXQVYAGoKy87pwAFKEABClCAAvIJsACULyeMiAIUoAAFKEABCugqwAJQV152TgEKUIACFKAABeQTYAEoX04YEQUoQAEKUIACFNBVgAWgrrzsnAIUoAAFKEABCsgnwAJQvpwwIgpQgAIUoAAFKKCrAAtAXXnZOQUoQAEKUIACFJBPgAWgfDlhRBSgAAUoQAEKUEBXARaAuvKycwpQgAIUoAAFKCCfAAtA+XLCiChAAQpQgAIUoICuAiwAdeVl5xSgAAUoQAEKUEA+ARaA8uWEEVGAAhSgAAUoQAFdBVgA6srLzilAAQpQgAIUoIB8AiwA5csJI6IABShAAQpQgAK6CrAA1JWXnVOAAhSgAAUoQAH5BFgAypcTRkQBClCAAhSgAAV0FWABqCsvO6cABShAAQpQgALyCbAAlC8njIgCFKAABShAAQroKsACUFdedk4BClCAAhSgAAXkE2ABKF9OGBEFKEABClCAAhTQVYAFoK687JwCFKAABShAAQrIJ8ACUL6cMCIKUIACFKAABSigqwALQF152TkFKEABClCAAhSQT4AFoHw5YUQUoAAFKEABClBAVwEWgLrysnMKUIACFKAABSggnwALQPlywogoQAEKUIACFKCArgIsAHXlZecUoAAFKEABClBAPgEWgPLlhBFRgAIUoAAFKEABXQVYAOrKy84pQAEKUIACFKCAfAIsAOXLCSOiAAUoQAEKUIACugqwANSVl51TgAIUoAAFKEAB+QRYAMqXE0ZEAQpQgAIUoAAFdBVgAagrLzunAAUoQAEKUIAC8gmwAJQvJ4yIAhSgAAUoQAEK6CrAAlBXXnZOAQpQgAIUoAAF5BNgAShfThgRBShAAQpQgAIU0FWABaCuvOycAhSgAAUoQAEKyCfAAlC+nDAiClCAAhSgAAUooKsAC0Bdedk5BShAAQpQgAIUkE+ABaB8OWFEFKAABShAAQpQQFcBFoC68rJzClCAAhSgAAUoIJ8AC0D5csKIKEABClCAAhSggK4CLAB15WXnFKAABShAAQpQQD4BFoDy5YQRUYACFKAABShAAV0FWADqysvOKUABClCAAhSggHwCLADlywkjogAFKEABClCAAroKsADUlZedU4ACFKAABShAAfkEWADKlxNGRAEKUIACFKAABXQVYAGoKy87pwAFKEABClCAAvIJsACULyeMiAIUoAAFKEABCugqwAJQV152TgEKUIACFKAABeQTYAEoX04YEQUoQAEKUIACFNBVgAWgrrzsnAIUoAAFKEABCsgnwAJQvpwwIgpQgAIUoAAFKKCrAAtAXXnZOQUoQAEKUIACFJBPgAWgfDlhRBSgAAUoQAEKUEBXARaAuvKycwpQgAIUoAAFKCCfAAtA+XLCiChAAQpQgAIUoICuAv8PkP+5T3f7S6MAAAAASUVORK5CYII=;" vertex="1" parent="1">
          <mxGeometry x="-51" y="186" width="108.45" height="61" as="geometry" />
        </mxCell>
        <mxCell id="auokp5sfF3vydT2iOztg-23" value="" style="image;sketch=0;aspect=fixed;html=1;points=[];align=center;fontSize=12;image=img/lib/mscae/Docker.svg;" vertex="1" parent="1">
          <mxGeometry x="-86" y="161" width="50" height="41" as="geometry" />
        </mxCell>
        <mxCell id="auokp5sfF3vydT2iOztg-26" value="" style="rounded=0;whiteSpace=wrap;html=1;" vertex="1" parent="1">
          <mxGeometry x="116" y="177" width="128" height="89.5" as="geometry" />
        </mxCell>
        <mxCell id="auokp5sfF3vydT2iOztg-27" value="" style="shape=image;verticalLabelPosition=bottom;labelBackgroundColor=default;verticalAlign=top;aspect=fixed;imageAspect=0;image=data:image/png,iVBORw0KGgoAAAANSUhEUgAAAoAAAAFoCAYAAADHMkpRAAAgAElEQVR4Xu3dB3gVVd4/8O9N74X0hAQIgZBC79WKLgpKESu6olhARV3d1XXddXd197WtimJb7L2igqIogoUWOoSEkEYIKSSk937/zxll/67rLsmdmXvPzHxnn+f1fdd7zvmdz2/ehx8zc86x2e12O3hRgAIUoAAFKEABClhGwMYC0DK55kQpQAEKUIACFKCAIsACkDcCBShAAQpQgAIUsJgAC0CLJZzTpQAFKEABClCAAiwAeQ9QgAIUoAAFKEABiwmwALRYwjldClCAAhSgAAUowAKQ9wAFKEABClCAAhSwmAALQIslnNOlAAUoQAEKUIACLAB5D1CAAhSgAAUoQAGLCbAAtFjCOV0KUIACFKAABSjAApD3AAUoQAEKUIACFLCYAAtAiyWc06UABShAAQpQgAIsAHkPUIACFKAABShAAYsJsAC0WMI5XQpQgAIUoAAFKMACkPcABShAAQpQgAIUsJgAC0CLJZzTpQAFKEABClCAAiwAeQ9QgAIUoAAFKEABiwmwALRYwjldClCAAhSgAAUowAKQ9wAFKEABClCAAhSwmAALQIslnNOlAAUoQAEKUIACLAB5D1CAAhSgAAUoQAGLCbAAtFjCOV0KUIACFKAABSjAApD3AAUoQAEKUIACFLCYAAtAiyWc06UABShAAQpQgAIsAHkPUIACFKAABShAAYsJsAC0WMI5XQpQgAIUoAAFKMACkPcABShAAQpQgAIUsJgAC0CLJZzTpQAFKEABClCAAiwAeQ9QgAIUoAAFKEABiwmwALRYwjldClCAAhSgAAUowAKQ9wAFKEABClCAAhSwmAALQIslnNOlAAUoQAEKUIACLAB5D1CAAhSgAAUoQAGLCbAAtFjCOV0KUIACFKAABSjAApD3AAUoQAEKUIACFLCYAAtAiyWc06UABShAAQpQgAIsAHkPUIACFKAABShAAYsJsAC0WMI5XQpQgAIUoAAFKMACkPcABShAAQpQgAIUsJgAC0CLJZzTpQAFKEABClCAAiwAeQ9QgAIUoAAFKEABiwmwALRYwjldClCAAhSgAAUowAKQ9wAFKEABClCAAhSwmAALQIslnNOlAAUoQAEKUIACLAB5D1CAAhSgAAUoQAGLCbAAtFjCOV0KUIACFKAABSjAApD3AAUoQAEKUIACFLCYAAtAiyWc06UABShAAQpQgAIsAHkPUIACFKAABShAAYsJsAC0WMI5XQpQgAIUoAAFKMACkPcABShAAQpQgAIUsJgAC0CLJZzTpQAFKEABClCAAiwAeQ9QgAIUoAAFKEABiwmwALRYwjldClCAAhSgAAUowAKQ9wAFKEABClCAAhSwmAALQIslnNOlAAUoQAEKUIACLAB5D1CAAhSgAAUoQAGLCbAAtFjCOV0KUIACFKAABSjAApD3AAUoQAEKUIACFLCYAAtAiyWc06UABShAAQpQgAIsAHkPUIACFKAABShAAYsJsAC0WMI5XQpQgAIUoAAFKMACkPcABShAAQpQgAIUsJgAC0CLJZzTpQAFKEABClCAAiwAeQ9QgAIUoAAFKEABiwmwALRYwjldClCAAhSgAAUowAKQ9wAFKEABClCAAhSwmAALQIslnNOlAAUoQAEKUIACLAB5D1CAAhSgAAUoQAGLCbAAtFjCOV0KUIACFKAABSjAApD3AAUoQAEKUIACFLCYAAtAiyWc06VAXwV67N3Irz6AI3XZKKrNQk3rcTS0VaOrp7OvXfH3GgvYYIOnuw+CfcIR7heLQf3SMCgkFQNDUzUeid1RgAJmE2ABaLaMcj4UUCnQY+9Bd08njtXnYnfZJhyo2Iy61gqVvbK5MwViAhMxMnoGRkZPR1RgAjxsHrDZ3JwZAseiAAUkF2ABKHmCGB4FnCXQbe9CQ1sNCmozsaNkPQqqD6Cju9VZw3McHQR8PAKQGjkRE/qfiwEhyfDzDISbzV2HkdglBShgNAEWgEbLGOOlgMYCdtjR0F6DotpsbC3+FPnV+9DR3abxKOzOlQL+XsFIi5yMcXFnISF4GPy9AgHYXBkSx6YABVwswALQxQng8BRwpYB43XukNgsZJV/gYMVWNLbXuDIcjq2zQJhfjPJqeGzc2UgIHqrzaOyeAhSQWYAFoMzZYWwU0FGguaMee8q/wfZjn6O47pCOI7FrmQTEwpGksFGYNuBCDI+aCk93L5nCYywUoICTBFgAOgmaw1BAJoHK5hJsLHwP+8q/RXNHnUyhMRYnCYT5xSrfBk5LmIMgnzAnjcphKEABWQRYAMqSCcZBAScJHKvPw/r815FduR2d3e1OGpXDyCjg6xmgvBL+1dBfI8w3WsYQGRMFKKCTAAtAnWDZLQVkFDhal4N1uS8jt2o39/GTMUEuiMnT3RujY87A+cnXoJ9vlAsi4JAUoIArBFgAukKdY1LABQIVTcVYk/NPHKzYArH4gxcFTgqIrWGmJJyP84Zeg0DvUMJQgAIWEGABaIEkc4oUaGyvxRd5r+K7oo+IQYFfFHCzeeC85MU4feACeHv4UokCFDC5AAtAkyeY06NAZ08HMo59gQ8OPoFuezdBKPBfBQK8Q3H5iN8hLXIiN4zmfUIBkwuwADR5gjk9awuITZ6L63Lx6t77caL5mLUxOPteCSSFjcblI36LCP+4Xv2eP6IABYwpwALQmHlj1BTolYB4+vdu5uPIOLauV7/njyggBOYMux5nJV4CdzcPglCAAiYVYAFo0sRyWhQQAtmVGXhx9594tBtvhz4JhPpG4sYJDyE2MLFP7fhjClDAOAIsAI2TK0ZKgT4JtHW1YsW25Sipz+1TO/6YAkJgTOxZWDzmT8SgAAVMKsAC0KSJ5bQo8GX+W1ib808AdmJQoM8CYn/Aa8b8BelRk/vclg0oQAH5BVgAyp8jRkiBPgucaC5Vnv7Vt1X1uS0bUOCkQHTAINw5/Tl4u/sQhQIUMJkAC0CTJZTToYAQeGXPA9hb/jU3fObtoErAw81TOSbu3KQrVfXDxhSggHwCLADlywkjooAqgewTO/DW/of49E+VIhufFAj3i8XSiQ8j0j+eKBSggIkEWACaKJmcCgVaO5vw6t4HkH0iA3Ye98YbQgMBDzcvjO9/LhamL4enm5cGPbILClBABgEWgDJkgTFQQAOBHns3Nh9di/V5r6KhvUaDHtkFBX4QiPCPx0VptyA1ciJJKEABkwiwADRJIjkNCpQ1HsEHB59EXvUeYlBAUwE3mztGx56BeanLEOwdpmnf7IwCFHCNAAtA17hzVApoKtDe1YpNR97H1wXvoK2rWdO+2RkFhECwTzjOG3oNJsb/Cu42d6JQgAIGF2ABaPAEMnwKCIGCmgP4MOspHOOmz7whdBRIiZiIualLERs4SMdR2DUFKOAMARaAzlDmGBTQUaCpow5f5r+J74pWo7unS8eR2LXVBbzdfXF+8rWYOmAOvLg3oNVvB87f4AIsAA2eQIZvbQG73Y7cqj14Zd/9aGqvtTYGZ+8UAXE+8KJRv0d88FCnjMdBKEABfQRYAOrjyl4p4BQBsdr3vYNPYH/5t04Zj4NQwAYbZg65EmcPvhS+Hv4EoQAFDCrAAtCgiWPYFBD7/B04vhkv7P4jMSjgVAEvdz8sn/I4BgQnA7A5dWwORgEKaCPAAlAbR/ZCAacLNLbX4umMO1HakO/0sTkgBUZEz8CVo34PHw8/YlCAAgYUYAFowKQxZAoIgS/yXsdnh18gBgVcJnDd2AcwIma6y8bnwBSggOMCLAAdt2NLCrhM4HhTER7bcjNaOxtdFgMHpkBM4CDcPOkxBHn3IwYFKGAwARaABksYw6VAV08nXtn7APaXf0MMCrhcYGbSlbhg2BKXx8EAKECBvgmwAOybF39NAZcL7CnbiDf3P4SO7jaXx8IAKBDoHYYbxv8dA0KGEYMCFDCQAAtAAyWLoVKgob0aL+66D0dqD8IOO0Eo4HIBN5sbxIKQq0f/Ee5uHi6PhwFQgAK9E2AB2Dsn/ooCUgisy30VmwrFeb8tUsRjxCACvEMR7B0GcapFS1czGtqr0NLRYMSpSBNzoHc/zEtZhvH9Z0oTEwOhAAX+twALQN4hFDCIQElDPt7a/zCO1R82SMTyhOnt4Ych4WMwNuYMDO43En5eARAbGouTVJo66lFQewAZx75AfvV+9Nh5nF5fMycsh4SNwuKxf0aAV0hfm/P3FKCACwRYALoAnUNSoK8C4ozf1dnPYEvxGnT3dPa1uWV/LwqT6MBBuDDleqRGTlKKvv92tXe1YF/5d9hQ8DYqmoshNtrm1XsBX89AnD34MswcfBlsNrfeN+QvKUABlwiwAHQJOwelQO8FxFOqg5Xb8Mmh51HRVNT7hhb/pSj2EvuNwCXDf4OYwIG91jhSm6VYi+8se+zdvW7HHwKD+43AgvTliA8aQg4KUEByARaAkieI4VGgvq0Ka3NWIaNkPcCFH72+IeKDh+LqMfch0r9/r9uc/GFh7UG8l/k4yhoKuNimD3oe7l44Y9DFOCfpCp4Q0gc3/pQCrhBgAegKdY5JgV4KiNe9u8s2YU3Oc6hvq+5lK/5MvI68ftzfkBQ20mEMUXC/l/kYt9vpo6B45T4/9SYMCx8Hm43nBPeRjz+ngNMEWAA6jZoDUaDvAieaS/Bh1kpkVW7re2MLt5iScAEuG3GHKoHO7g48t+Nu5FbvVtWP1RqLV+9TBszBeUOvRpB3mNWmz/lSwDACLAANkyoGajUBsdHztmPrsObQ83wK1Yfke7p54zfTnkH/oKQ+tPrln+4u3YhX9v5FdT9W6yDQO1T59jI9agrcbdwb0Gr553yNIcAC0Bh5YpQWFKhoPoZ/7rwHlU3FFpy941MW3/7dOvlJeHv4Ot7Jjy2bOxrw542Xoa2rSXVfVutgWMR4XDHyboT4hFtt6pwvBQwhwALQEGlikFYTEOf9rj28CpsK3uMihD4mf1zcTFw+8nfwdPPqY8v//Lk4beXh765HSUOu6r6s1oGHmycuSr8Nk+Nnwc3mbrXpc74UkF6ABaD0KWKAVhQobyzCQ99fC7H/H6++CcwYtADzUpZCFCBaXM/u+D2yK7dq0ZXl+gj2CccfTnsNvp7+lps7J0wB2QVYAMqeIcZnOQGx99zK7Xcir3qP5eauxYSnD1yA+anaFYDP7bwHWRVbtAjNkn2ckXgJ5qUu/Z+bcFsShpOmgIsFWAC6OAEcngI/F9hTtgkv7/kzYRwUmD5wPuanLtPsCSALQAcT8WMzcSrI3dNfRGxQorqO2JoCFNBUgAWgppzsjALqBBraa/D41ltQ1VyiriPJWovXsT4e/vBy91G+aWzvakN7VzO6dTh31wgFoPgmTniIV6Pubp7KmcSd3e1o7qxX/mm2a1j4BCwZ9xeIM5l5UYACcgiwAJQjD4yCAui2d+Ozwy9hY+E7pvn2z98rGNEBAxEXnKScyBHoFaocr1bfXoOKpqMobchHRVMxxDm8Wl0yF4BuNjeE+kYhISQFCcHJCPeLUQpBkXux4ri8qRBFtdkobShAa2ejViQu78fDzQsXp/8GkxNmuTwWBkABCvwgwAKQdwIFJBEoqD6A1/f/HdUt5ZJE5HgY4rVfdMAAiBW5KZETEBMw8D9eybZ1NaO0oRCZFVuwq/SrH086sTs+6I8tZS0ARfE3LGICJsbPwuDQ4Qjy6fcf38WJJ4FljT+Y7Cz9yjRbAInNofsHJ2PxmPsQ4R+rOsfsgAIUUC/AAlC9IXuggGqB1q4mvJ+5AnvLN0FsAWPkS2zEnBQ2CtMHzsWQsFGnPBO2qaMOmce3Yl3uS6hrO6F66rIWgGNiz8I5SYsQ14tv4dq6WpBdmYHvilbjSG2W8tTU6JfYl3HGwIswO/kaiGKYFwUo4FoBFoCu9efoFFAEdpR8qez7V9daaWgR8Y3fuLhzcGbiQoT7xcLdrXenQIjv3vaUb8I7B/6Brp4OVQYyFoADQtKweOyfEOYb3eu5dfZ0oKyhEJsK30dmxWYTnAZjQ0zgICxMv1X5iwEvClDAtQIsAF3rz9EpgJqW41idvVJ57ddj7zGsiCj2zkm6EjMGzkOAV3Cf5yGKwLcyH8Wuki/73PanDWQrAMUij9unrMSAkGF9npfd3oPGjnp8VfA2thWvQXtXa5/7kKmBuEcm9p+FeanLTvlkWKa4GQsFzCjAAtCMWeWcDCXwzZEP8dnhFyG+iTPyddnI32Fi3Lm9fur3S3OtbanEnzddquqVp2wF4Ni4s3HFiN/B093b4fSKzwI2FLyDL/JeMfwCoX6+Ubgg5QaMjT3LYQ82pAAF1AuwAFRvyB4o4LBAcX0uPsp+GvnV+xzuw9UNxWvfq0b9ASNjZmgSytMZdyLnxE6H+5KrALRh8Zg/YVTM6Zp89yb+svDJoedUvyZ3GFejhqIovnDYDQj1jdSoR3ZDAQr0VYAFYF/F+HsKaCQgXudtOvI+1uW+DPGqz4iXOOrrkuG/QVrkZE0KHGGwPv8NfJqzymEOmQpAX89ALJ/0BPoHJzk8n5833Hbsc6w59BzE4hmjXj6eAZiXsgwT+6t7YmzU+TNuCsggwAJQhiwwBssJiIKvoCYTb2c+atCtPmzKHnZzUq7HiKhpmp26IW6EjNIv8cbevzl8T8hUAPbzjcHNk/6BCP84h+fz84ZiRXBGyXp8nvsKalsrNOvX2R0NCRuNi9JvRWzgIGcPzfEoQAHuA8h7gAKuERCb/q49/AK2HP3ENQGoHDXSPwG/GnIVRsZMV0730PLaemwd3t7/kMNdylQAiiekt0x6HFEBCQ7P55cadnS3YWfJV/iy4A1lEZERL3EayuxhS5RFQ97uvkacAmOmgKEF+ATQ0Olj8EYUEE//Dp7IUJ5ytRjwtIcwv1hlP7uxsWdC7O2m9bUmZxW+yn/D4W5lKgA93bxw44SHMSR81H9s+uzwBH9sKO6d7cc+V7aJqWsz5vZB4f5xWDz6T4gPSdbcR60v21PA7AIsAM2eYc5POgFx7NlzO+9BfvVe6WI7VUBB3v1w1uDLMDn+PPh6Bpzq5w79+0c3L8XRumyH2opGMhWAIp7zk6/FzMGXq1od/d8wxHeA3x75CN8f/QjNHfUOm7my4eSE2bg4/VaI4+J4UYACzhNgAeg8a45EAUXgu6KPsTrrKXTbuwwl4u3hh+kD5uLswZfB3ytIl9jzqvfjmYw7Va1yla0AjAoYiDunPavbvncN7TX47PDL2Fn6JTq723TJi56dirOQrx33VwwLH6fnMOybAhT4mQALQN4SFHCiQGNHHf72zVWGe1ojzvZNj5yCRaPugp+nPsWfOAf3iW23obBG3ZY4shWA4tizc5KuwvnJi3W702paj+PN/Q8jr3qvIVeUxwUNwd0zXtDNhx1TgAL/KcACkHcFBZwo8Pq+v2NHyXonjqjNUME+kbh7+ioEeIdo0+Ev9CK+/dtU+K7qs5BlKwDFVMUJGIvH/Bkjo6fr5GeH2FPyxV1/RI0BVwbbYMOC9Ftx2sB5OvmwWwpQ4OcCLAB5T1DASQJHag9i5fY7DHemq4ebJ26buhIDgvt+lNmpaO2wo7unExsL38eGgrfQ2tl0qian/PcyFoAiaPGN28L02zCh/zmabpvzU5AdJV/h3cx/oKPbeEfGiW9K/3j66wj07nfKHPMHFKCAegEWgOoN2QMFTikgNn3+5657kVe9G+JVp1EusYr1gpQbcfqgBZqHLL6BrGouw8bC97C77GuIxTFaXLIWgGJuPh5+mDrgQpwx6CKl0BGvh7W+3s18DFuOroEoro10iW1hJsWfj4Xpy3UrkI3kwVgpoLcAC0C9hdm/5QXEti9bj32GtTmrDPbtnw1jYs/EolF3QxSCWl6d3R0orM3EhoK3kVu1R9XZvz+PS+YCUMQqzgQW31OeNfhSxAUN1rzYEXsErth2K4rrcrRMmVP6CvEJx6JR9yA5fKxTxuMgFLCyAAtAK2efc3eKQEVTMd468AiO1GQa6qlMTGAifj36XsQGJWq6R5so/rIqtynF39G6Q5rnQPYCUExYPO0a3G+EsqJ6SNgopSjU8iqsPYiXdt+H+rYqLbvVvS93mwfSo6bikhG/QaCXft+b6j4RDkABAwiwADRAkhiicQU6u9vxZf6b+PbIB2jtajbMRPw8A3Fhyo0YHzdT0+JEHGO2s/QrbCx4F2WNhbp4GKEAPDnxhJBhyqbaqZETNX3K2t3Tha8L38Vnh19Aj8HOmRanp5w39Bplr0mbzabLPcJOKUABgAUg7wIK6CggtuVYnf00SurzdBxF+67FQoU5ydchxDdS0843H/0EGwreQXVLmab9/rQzIxWAIu7YoMGYnbwEaZGTNP0msLrlON4+8CgOV+3UzVqPjsWWQ8nh4zA/9SbEBA7UYwj2SQEK8Cxg3gMU0E+gqaMe6/Negyh6uno69RtI454jAxIwL2UpUjUuSLYd+wyf5ryIhvZqjSP+9+6MVgCK6CMD4nHx8N8gOWyMZjZikU3m8a14J/NRg317CohNx8WT0TMSF2r6ZFQzXHZEARMI8AmgCZLIKcgpkFmxFe8dfAJ1BtqXTXyDdXriQswacpXyh7BW167Sr/HxoadR36Zv8SfiNWIBKOIO8YnAjRMfQlzgYK3Y0dhei89zX8H3Rz/WrE9ndZQQnIwFabcgsd9wZw3JcShgKQEWgJZKNyfrLAGxGa/Y2Hh36QbAQNtxDAhJxfy0m5EYmqYZ1eGq3Xj7wCOobinXrM//1ZFRC0Axp1DfaNwxdSWCfSI0srIjq3IHPji4AlUtpRr16ZxuxKtgcYayWCij17nTzpkJR6GAnAIsAOXMC6MysIBY6LCv/Du8uvd+Tbc30ZtErEQ9beACXJhyg2ZDlTcW4Y19f0dx/WHN+jxVR0YuAMWJGEPCx+GG8Q/Ay93nVFPt1b8X+yuKs4K/KXrfUHtQismJvRIXj7kPSWEjNV2J3is4/ogCJhdgAWjyBHN6zheoai7Fa/v+DnHyh3EuGxJCknH5iLsQF5SoSdgN7TX4MOsp7Cv/xqkrUY1cAAp4UfhNHXABZidfq1kReOjETnyU/QzKdVp5rckN8186Gd//XOWb1EDvUD2HYd8UsJwAC0DLpZwT1lNAfHj/7ZEPlT9sjXSJomPagLmYl7pUk7Dbulrw7ZHV2Fj4Llo6GzTps7edGL0AFPMM9Y3C+cnXYlzsWco5wmovcRLNx4eexfZj6wy1IEnMWxxFePWY+zA8aqqmq6TVmrI9BYwuwALQ6Blk/FIJiFeeT2fcifq2E1LFdapgIv3jcc3YvygnU6i9uu3dyK7cjk8OPQexCbazLzMUgMJsUGga5qfegoGhKZoQZlVm4MOsJ3GiuUST/pzZifg29frxDyDIO8yZw3IsCphagAWgqdPLyTlbQLz63Vmy3tnDqhpPnEoxOWE2Lhl+uybfWYnFBquznkZmxRZVcTna2CwFoIebF6YkzMa5Q65EkHc/Rzn+1a6tqxlv7X8EB45/D/Gk2mjXnGHXKVvD8KIABbQRYAGojSN7oQCyKrfjxd1/gjj9w0iXeP27fPKTGBCSrDrs9u5WbD66BusOvwRxJq0rLrMUgMJOnIoxN2UpRsecrsmr4J2lG7A6ayWaOmpdkRpVY4oi+JbJjyM6gJtDq4JkYwr8KMACkLcCBTQQEN+8rdi6HCUNxjrxQ0w9JWICbhj/fxoUGHaUNhTin7vuQU3LcQ1UHevCTAXgyfxclLZc2Sxa7dXS2YRnMn6L4rpDhjqX+uS8R8TMwHVj71fLwPYUoABPAuE9QAFtBNbnvYEv8l4x3Af2YvZLxj2AkdHTVUOI007ez3oSW4+udeneh2YrAMWr4AVpN2Ni/1nwdPdSnSdxr36e9zLEecFGu8Tm5FeN+gNGRE8zWuiMlwLSCfAJoHQpYUBGEzjRVILndt6NyuZjRgsdgd7heODs9yC+A1R7HavPwz823wCxCMSVl9kKQGEZFTAASyc8hDC/GNW0lc0lePi7JRCv64132RAfPBS3TlkBb3df44XPiCkgkQALQImSwVCMJ9Bj78G7mY9jR8kX6OrpMNwEzky8DPNSb1Qdt91ux/M7f4+sym2q+1LbgRkLQGEizgqemjBbk2L9mYzf4dCJDLXULmkvTgWZmXSFckKI2DibFwUo4JgAC0DH3NiKAsprTnHMltjs+IQBn/6Jc3/vmPYM4oPVL/44WpeDRzdrd4KImtvLrAVgmF+ckq9ArxA1PErbnaVf4bW9D6jux1UdiKeAi0bdg9jAQa4KgeNSwPACLAANn0JOwFUCje21WJ39NPaUbTTUkW8nveKChuA3U1eqPm1CHH338p77sa98k6tS8W/jmrUAFJO8ZMQdmJZwgWrnpo56/HnjpRDHxBnx8nL3xbQBF+C85MV8FWzEBDJmKQRYAEqRBgZhNAFR9GQcW491uS+hzmCbPp+0Pjvpcpw/9BrlpAU1V1njETy+5SaIfeZkuMxcAMYEDsKd056Hl7u3aupnd/we2ZVbVffjqg5iAhMxN3UpUiMmuCoEjksBQwuwADR0+hi8qwSONx3Fx9nPSvHNmyMG7m6euH7835ASPh42m5sjXfyrzSc5q7Cp4B1pNhc2cwEo0G+c8AjSItUXPWK/xncz/6Eq965sLD5hmBg/C+cNXYxgH54Q4spccGxjCrAANGbeGLULBcQGx1uK12Ld4ZeleerVV44I/3gsnfAgIvz797Xpv/1evAZ/dsddOFaf69KtX34alNkLwBHRM3DdOPV74Ym/xDz83fXo7HHNht2qbrwfG4uj4eal3oQxsadrsjhGi5jYBwWMIsAC0CiZYpzSCJTU5+GN/Q+h1ICbPp9EHBN7JsTmwoHeoapc95Z/g/cPrkBje42qfrRsbPYCMMArBL+d/k/0841SxSa+/1ux7dYfi3dVXbm0cXrUVMxPvQkR/nEujYODU8BoAiwAjZYxxutSgdauZmzIfxsbCt4y5MKPk3izh9IcsyQAACAASURBVC3B6QMvgreHur3U3j34BDKKP0OnRFvgmL0AFBtDL0y/DVMSzlf1/wti4+4Psp7ClqOfqOrH1Y093b2xMO1WjO8/E8KGFwUo0DsBFoC9c+KvKKAIiM2OV2xbbtjVk2IO4g/JxWPuQ3rUFLip+P6voa0aL+35MwpqDkh1d5i9ABTfbI6Ino4lY/+qyl0sZNp2bB3eOfCoqn5kaCw+aVg28WGE+8XKEA5joIAhBFgAGiJNDFIGAfHt36t7/4YDx7+TIRyHYxB/WP569L0YEDLM4T5Ew0MnduKDrBWobJLrBBSzF4DCXrzuvGXS4whV8RrYDjuO1GThye23obunU9W9IEPjXw29GucmLVK9ql2GuTAGCjhDgAWgM5Q5hikEDlZsw/M77zb8XJLDx2Fh+q2ICkhQNZeNhe/hy/w30NxRr6ofrRtboQAUix/EnoAjoqaq4qtqKcPTGb9FVXOJqn5kaCz2Bvzt9OcRHTBAhnAYAwWkF2ABKH2KGKAMAmLj3BVbb8XxpiMyhKMqhknx52F28rUI9gl3uJ/O7g6szl6JbcWfSbP9y8nJWKEA9PHww5mJl2LW0F87nEPRsL6tCm/uf9iwx8L9fPLDo6Zj8Zg/wdOd3wKqujHY2BICLAAtkWZOUq3A53mvYt3hl9R2I0X7c5IWKeeoijNVHb2qW8rx/sEnkFW53dEudGtnhQJQ7IE3MuY0XDnq96peeYqnt2tyVmFr8Vrd8uHsjheP+TPGxJ7h7GE5HgUMJ8AC0HApY8DOFihpyMezGXehob3K2UNrPp6bzUPZMkMco+Xu5uFw/0dqs/Bh1kocrct2uA+9GlqhABR2iaHDcfWY+xDqG+EwZVtXCzYWvovPc19xuA/ZGsYGDsaySY8g2JubQ8uWG8YjlwALQLnywWgkE+i2dymvyHaXbjD0ti8nWf08g3Dx8NsxNvZMVdL7j2/GJ4eew4lmuRaAiElZpQAUhc5lI+7EwNBUh3PZ1dOhHGn4TqbxVwKfRBCn3IjTQc5JusJhFzakgBUEWABaIcuco8MChbUH8eqe+1HTetzhPmRqGOYXo+whlxY5SVVYW4s/w9rDq9DUXquqHz0aW6UAFFuezE29CSOjpznM2GPvwYHjm/Hq3vshikFzXDb0D0pSjjpUs0raHBacBQX+uwALQN4dFPgfAquzn8WWox9DbAFjhks8NboofTmGhI1yeDqiaBArgMVrw47uVof70auhVQpAsRL4vORrMDVhtirKvKp9yn6OTR3yFfOOTszfKxhzkq/D1AFzHO2C7ShgegEWgKZPMSfoqICsGx07Oh/RbkBIKhak3YxBoWkOd9PR3Y51uS9jY8E7EHvJyXZZpQD09QzEzMGXY2bS5apSUFR3SHkCWNVcqqofmRq72dyVzbKvHv1HVd+6yjQnxkIBrQVYAGotyv5MIyD2/RNbnZwwwR5pJ5MyJHyMsghEvCJz9GrpaMDawy9gs6RHiFmlAPRy98HpiRdjTvK1jqZSaVdcn4s39v0d5Y3G3+LopxD9g4di0ci7ERc0WJUPG1PArAIsAM2aWc5LlYB4srWh4B1syH8TLZ2NqvqSqXFKxETMTV2K2MBBDofV0F6NNTn/RMaxLxzuQ8+GVikAxWKHqQkXYEHaTRBPvBy9ShsK8Nb+h1Fcn+NoF1K2E9//XTjsRoyNU7fgScrJMSgKaCDAAlADRHZhPoH2rlZ8kPUUdpR8YYrVvyczlBo5CXNTlyFGxWkJNa0VWHPoeewu+1rKxFulABRF36T487EwfbmqvQDLGgvx9oF/oKj2oJT5dDQoHw9/nDX4UvxqyJUAbI52w3YUMK0AC0DTppYTUyMgjsh6P/MJZJ/IUNONdG3F5sEXptyICL9Yh2Orbj2uFIB7yjY63IeeDWcMWoB5KUtVFUU/je/5nffgYMUWPUN2qG8bbBgbdxYuTr9d1abeZQ2iAHwURXVZDsUhayM3mxsm9p+lHHvo6e4ta5iMiwIuE2AB6DJ6DiyzQFFdDlZnPYUjJnsqMirmDFyYcgPC/WIc5hdb4nwicQGo9RPAZ3f8DtmVMv5FwIYxMWfgkuG3w88ryOF8mrUAFCDDo6fhkvTbVR176DAsG1JAcgEWgJIniOG5RiCnahc+yn4GZQ0FrglAp1FHRM/AXPEE0D/O4RHEE0BRAO6V9Ang+LhzcNnI38LTTZvzYB/8fglK6/Mc9tKroQ1uGBc3ExcPvw3ibGBHLzMXgMnhY3FR+q2IVvHJg6OubEcB2QVYAMqeIcbnEgGxOe7Hkp50oQYkJXIi5qUsQ0zgQIe7qW2txCc5zyuno8h4xQcn47YpT0KsklV7iQVA9319Kdq6mtR2pXl78Q3glITZWJB2i6rX3Wb9BlCAD+43QvGJDx6quT87pIDRBVgAGj2DjF8Xgd2lXytFTm1rhS79u6rTYRETMC91mapVwI3ttVib809sO7bOVdP4n+N6uHnirukvIFpFkXtygP3Hv8cLu/4ISLjfoZjntAFzlXyK790cvcRZ1+K4w5L6w452IW27ASEpmJ92MxJD06WNkYFRwFUCLABdJc9xpRbYVfo11piwAEwKG6XsA6jmiYh4KvZpzgv4/ujH0uZQfAd4cfqtquN7avsdyK3apbofPTrwdvfFGYmX4Pzkxaq6L647jNf2/Q0VTUdV9SNj47igJMxLvQnJ4WNkDI8xUcClAiwAXcrPwWUV2FW64ccCsFLWEB2KS4uTQDq7O/B53ivYUPA27PYeh+LQu5F4PfrHM96AOC/XkUvsA7n/+Ga8tvd+dHa3O9KF7m38PINwzpBFOCvxElVjHanNxit7/4qalnJV/cjYOCFkGOan3ozB/YbLGB5jooBLBVgAupSfg8sqsK/8O3yS85ypjscS1tGBg7AwbTmGqngiIoqjb4+sxmeHX0RbV7OsKVSOvbt+/N8Q5N2vTzHa7XZUNB/DC7vulfqpWLBPOM5PXoLJ8bP6NL+f/ljkUpwF/OLu+9DSWe9wP7I2HNRvuPIN4IDgZFlDZFwUcJkAC0CX0XNgmQWyT+zAx9nPoryxUOYw+xxbqG80Lk6/DelRk/vc9qcNdpSsV04DqW+rUtWPno3FU0Cx7+Hsodcg3D+2V6dliKeb4ki0T3NfUl79dvd06Rmiqr7D/eMwP/UWDFeRyx57Nw4c/x6v7L1f6rk6CjUkbDQWpC9HXGCio12wHQVMK8AC0LSp5cTUCBTWHsTqrJU4WndITTfStfX1DFA2DhYbCIuNhB29sioz8HH2MzjeVORoF05p5+HmhaFhYzB5wGwMCklFoHfoLy6YEIWQKGZzq/Zha/FaJe/ddnmLP4Envm+7fOTvkKDi6VZnTwe2H1uH9zIfd0o+nD1IWuRkZZucfr7Rzh6a41FAegEWgNKniAG6QqCiqRjvH1yBw5IuAHDURKwWvTBlKWYMnAtRHDl6HavPw4dZT6Kg5oCjXTitnZizePIpXnsPDElBpH8CAryDlX0C27pb0dLRgOONRRBFf371ftS1GeG7TxuSwkZi8Zj7+vyK+6fw4hX+hsJ3sD73Naflw1kD2Wy2H/ZJTBf7JPo7a1iOQwHDCLAANEyqGKgzBVo6G/DBwaewu2wDeiRd6OCox9mDL8PMpCvg5xnoaBdoaK/F+wefwL7yb6XcIuWXJiZeCQd4BSPYJwJ+ngFwd/NUFni0djWjrrUSTR3iGzi7wybObOju5oExsWfhipF3wd3m7vDQYs5iv8sMSbf0cXhigLIP5OmDFmJ28rUQxSAvClDg3wVYAPKOoMAvCIii74u817Cp8D2pFzo4krwJ/c/FnGHXIcQnwpHmShvxynRNzip8V7Ra2lWyDk/OAA3FEy1RxJ+TdIWqaOvaTuC1ff+HvKrdqvqRsbGySGbotZiccJ6M4TEmCrhcgAWgy1PAAGQV2F22CWsOPQdx9q2ZLvFh/MXDb1d9PNbW4s/wWe6LaGirNhOPIeYiipvLR96F1IgJquI90VyKlRl3oqalTFU/MjaOCUzEpSPu4CbQMiaHMUkhwAJQijQwCBkFKptK8Nq+B0y3ECTMLw5Xj/4jBoamqGIvqsvB2wceNt15yapQnNQ4KiABt01+CgHeIQ6PKLaAya/aj5UZt5vuMwfAhuSIcbhu7P3w9vB12IgNKWBmARaAZs4u56Za4I39D0JsCt3d06m6L1k6EN++XT36XoyInt6rrVH+W9wd3W3KMWk5J3ZCFBO8nCMgFrWMiT0bvx79B1UDitf4W4rXmnIFsHhFLr51PXfIlaqM2JgCZhZgAWjm7HJuqgUOVGzFu5mPmu4156yhV+PMxEvg4+GnyujzvFexseAdtHW1qOqHjXsvIFZvi+1fxsfN7H2jX/hlV08H3s18AtuPfaaqHxkbR/j3x5Jx9yOW+//JmB7GJIkAC0BJEsEw5BRo72rDql33Ird6F8QJEWa5xNO/S4b/RtUWIsKioCYTr+69H7WtFWahkX4eQT7huGv6KtW5E1vAPLblZtNtdi5We0+MPw+Xj7hT+lwyQAq4UoAFoCv1ObYhBA5WbMOre/9qqqdcYX4xWDrhYYhvydRc4jXwqp334rDJCmQ1Jnq3nRh/PhaN/J3qYUob8vHo5hvRZaLPGwRKiE8kbpzwEOKCePqH6puEHZhagAWgqdPLyWkhII4D++FbwK+06E6KPsRTkmvH/hXDo6bAZnNTFZNYDSz2BBSvFHnpKyDyduvkp5DYL031QF8Xvquc5mK26/zka/GrIVeZbVqcDwU0F2ABqDkpOzSjQEXzMazYuhyN7TWmmd7pgy7ChSk3wsPNU9WcGttr8ejmZahpNd9WIqpgdGicGDoCyyc/DrERtNrryW23I696j9pupGofH5yMmyY+An+vYKniYjAUkFGABaCMWWFMUgpsLHwPH2U/LWVsjgQVFTAAv53+PLzd1W+T8dnhl/FF3iuOhME2fRBYMu4BjIye3ocWv/xT8c3mA99cBfEK3yyXOO3jxvEPITVyolmmxHlQQFcBFoC68rJzMwk0ddTh2Yy7UFyfY4ppideJyyc/gcH9RqieT3NHPf6y6Qq0djaq7osd/LJA/6ChuGXyY6qO8DvZ8/fFa/DegX+Yinps7Nm4bMSd3PfPVFnlZPQUYAGopy77NpWAWAV86MQOPLtD/Qf4ssBMSZij/KGpxbU+/w18mrNKi67Yxy8I/Hr0vcr5v2IfQLXXo1uW4WhtltpupGkvzrVePnkF4oIGSxMTA6GA7AIsAGXPEOOTSqCxvQ4fZq/EbpMsCPH1CMTfZn4IT3dv1c6tnc24/5sr0djOo+FUY/6sg6Sw0crGz2rObz7ZZWlDAR7bssw0r3/Fq99ZQxfjjEELVe9rqXXe2B8FZBZgAShzdhibhAJ25FcfwCt7/4r6tioJ4+t7SItG3YOJ/c/te8OftegWJ0scXYPV2SshVk7z0kZAfKMpNn4eGT1D9eIPcWLLJ4eexzeF76Pbbo4ciYUfwqd/UJI24OyFAhYRYAFokURzmtoJNHc24OuCd7Gp8F1T7KE2KDRdWVkqTphQe9W1ncBre/+GvOq9artie0DZomdc3EzMSV6CUN9I1SYNbdVYmXGnaTZ/FifZzBl2PSbHnw9Pd/X3r2pgdkABAwmwADRQshiqPAJHarPwYdZKHK3LlicoByPxcvfGDRMexNCwMQ728P+biSd/mRVb8P7BFWjgq2DVnmKj7gVpt2BYxHjYYFPd3/dHP8GnOS+gpbNBdV+u7kB4pEdNxYUpN6je0NzVc+H4FHCFAAtAV6hzTMMLiO0zvj2yGl8VvGX4la9iUcHomDNx5ajfq37FKBIrVkt/mf8Wvi9abYonpK66WcXChjMSL8ZpAxfA19NfdRhNHfV4c/+DyK7MQI+9W3V/ru4g1DcKs5OXYFzc2ZosjHH1fDg+BZwtwALQ2eIczzQCFU3F+CDrSeSc2Gn4OfXzjcavx/wRiaHpmsylpD4PH2U/g1yTbTSsCU4vOhFb9KRFTsa81GWI8I/rRYtT/2RP2Ubl+7+a1uOn/rHkv3C3eWBs3NmYm7oUgV4hkkfL8CggpwALQDnzwqgMINBj78H2Y59jXe5Lhl8QIr7/mxD/K1ySfhtE8aH26u7pxN7y7/BZ7ouoai5V253l2otNuhem34qh4WM0efXb1F6Hjw49g92lX5ti8Yd4Nb4w/TYkh4+13L3BCVNAKwEWgFpJsh9LCrR1teD1ff+HgxVbDP9aLSZwEBam344hYSM1yaV4Tb6h4B18c+QDw78m1wSkl534ewXhvKHXYkrC+aqP6Ts55J6yb7Am5zlUt5T3Mgp5fya2LJocPxvzUpdq5iPvbBkZBfQTYAGony17tohAbvU+vL73AYgVsEa+xGs1sTH0grSbNfkWUFiIIvCN/Q/hQPl3pnjypHd+xdPXaQPmYn7aMoh8aHGJp3+fHn4BW4s/hdgGxuhXuF8sbp70GML8Yow+FcZPAZcKsAB0KT8HN4vAm/sfxo6SLwz/FDA6YCAuTL0R6ZGTNUuN2Hrk+Z334Fj9YVMUIJrB/Kwjsao1JXISlk54ULMhRMG3t/xbvH/wCTS112rWr6s68nDzVLZ9OTPxYleFwHEpYBoBFoCmSSUn4kqB2tYKPLblJsM/BRSGUxJmY86w6xCg4cf1xxuLsGr3vahsOubKNEk7tnjyNyA0DTdNeFjTs2yrW48rCz/2lm2Udu59CSwuKAl3TnuOr377gsbfUuC/CLAA5K1BAY0EvjnyIVZnrYQdPRr16Jpugn3CcWHKjRgTc4Zmr4LFTI7UZePt/Y+YZhNirbIjir+kfiOxaNTvNdns+WRcXT2d2FW6Ae8dfByd3e1aheuyfrzcfbBk3ANIiRjvshg4MAXMJMAC0EzZ5FxcKtDZ04Gntt2OI7UHXRqHFoOnRk5SNiCO9O+vRXf/6qOgJhMfZz+DIhNsoK0FjHilOTRsLC5IuR6xQYmarPgVcYlXv2UNhXhj/4Moqc/VIlSX9zGh/yxcOepul8fBAChgFgEWgGbJJOchhcDhqj14Yde9aOtqliIeR4MQ28LMGno1Ths4X9NXknZ7DwpqM7E+7zUIK/F/W/XycvdFetRkzBx8hVL8iQ25tbrE0z9xUs3mox9r1aVL+xELPpZOeAhiexxeFKCANgIsALVxZC8UUASUP3izV2JzkfH/4BUnLVwx8i4MDRutnEmr1dVt71aeSm0sfBeZFdvQ2d2mVdeG6cfPMwhj487CjIHzEOkfr2nxJxD2lG3C2wceMfxfRE4mdH7qzZgxaD7cNdij0jA3CQOlgM4CLAB1Bmb31hIQr97EKRgv7/kLTjSXGH7yg0LTsWziI/Dx8NN0LuIosqqWMmw+ulZZPd3cUa9p/zJ3FugdiukD5in7/AX5hGn22vfknE80l+LpjDtMseefmFNS2CjlLyJi+xdeFKCAdgIsALWzZE8UUAQ6utux5egarM5eaXgR8VpyasIFuHj47ZrPRRTLrZ1N2FX6Nb7Kf8MUK6hPhSQW2MxOvg4jY6bD10P9+b4/H088XX0m47fIrdp9qlAM8e/Fwg+xOGZk9HRNTqgxxKQZJAWcJMAC0EnQHMZaAuWNR/Be5hPIr9ln+ImLVaqXj7wLE/ufq8tcRNGSX7NfOTu4rD7ftHsFJvUbjYXpyxEdOEC3YmZtzgvYWPiO8imCGa6J8edhdvK1CPEJN8N0OAcKSCXAAlCqdDAYswiIc4LFq833D65QTsMw+iWexCyfvAIDQpIB2HSZjngauPbwC9h+bB26ujtMUQiKJ6hiQc3ZSYswa8iVuriJTsVimj3l3+DDrCfRaIINn8WcQnyjcHH6bRgeNUU3N3ZMASsLsAC0cvY5d10FxCa8n+aswu6yjSZY7WqD2IR3ybi/6v4tVk7VLnyZ9yZKG/KUV8RGPL5MPDX19QxQFtCcmXgJBoQM03QhzU9vXFH8FdYexLuZj0E8eTbD5e7mgdMGLsCvhlylOPKiAAW0F2ABqL0pe6TAvwTEasw1Oc+b4oN8sWddetQ0zE+7CaE+EbpmubmzATtKvlJOsDjeVITWTrGtjvzn2Ionfv5ewegfPBQjo2dgVMwM+HsG6WYliuPjjUfxUfbTEIWzWbbViQ9OxrzUmzAkbKRuduyYAlYXYAFo9TuA89dVoKWjEWsPr0LGsc8hNoo2+uXj4Y+J8bNw9uBLEaJzEShWCh9vKsa+8m+RX71PebolVgvL+UTQBrG6Nz54KNIiJyn7+/XzjdY93dUt5ViX+wr2lG1ElwnuLwHm6xGAMxIvxjlJl8PdzVN3Qw5AAasKsAC0auY5b6cJ5Ffvx3uZj6O8yRyv50ShMyVhDqYPnItg7zDdHcUxZpXNJRCniIhC8GjdIdS0Htd93N4OIPbxiw9JRnLYWAzql4Yo/wTYbPp8J/nTmBraqvFVwdvKN5NG33j85LzEfpOD+43E5SPuRITGp9D0Np/8HQWsIsAC0CqZ5jxdJiBWZH6R+xq+KfoA7V0tLotDy4GDvMOUjXmnJVwAfy/9XnH+NGbxRLCmtQIVjcUoqDmgnC1c1lCAls4GLafWq77E/OOCh2BAcDIS+6UrJ1T0843qVVstfiTmvD7vDWw/9rlL5q/FHH6pD/H6XJxDPTn+PL2GYL8UoMCPAiwAeStQwAkCta2VeH7nH5SFDUb4lq03JKIIOnPwJZiaMEfzjaJPNb5YHFLfXq18W1lUm43i+lxlA+7GjhpdvoMTizqCfSLQP2iIshI6ITgZYf6xCPIOhXgt7sxL/IVCbJmzs/RLZZGMWS7x9C8tYjKuGn0PF36YJamch9QCLAClTg+DM5NARsmXeOfAI6b5VkvkRhxpdtqgBTg3aRHEyk1nX2LRQ3t3G9q7WpXtT060lOBYfR7EaRhlDYVKQdjW1QS7vfcLSMRxY94eAcoTvajABIT7xSlFX4RfHPy8guDt7gtPd2/Nj2/rrd07mY9jZ8kXpthe6KdzFlsN3TLpcQwMTe0tBX9HAQqoEGABqAKPTSnQFwHxCnPF1ttRWLu/L82k/+0PW3ZchHmpS10cqx09drvyBFD5T0832rtble8F69qq0NRRj9bORnQr/30bWjrqEeAdCk83T3i4eyHAKxgBnsHKkz6xytnLw0fZukX5j81Nt21ceovW3dOF1/b9HfvKv4G4l8x2zRg4HxelLXfK95Nms+N8KOCIAAtAR9TYhgIOCoiVrA99twTd9i4He5C32cT+s3DJ8Nvh6e6l22bR8s5ev8jE08uG9mq8deBRHDqRocsrbv2i713PYuXvA2d/qBTdvChAAecIsAB0jjNHocC/BD44+BS+LfrQNN8CnpyYeEqWGjkZc1NuVDaLdsUrYbPdZmJrl+K6w1iT808cqc0y5ZM/d5uHctb0lITZZksf50MBqQVYAEqdHgZnRgGxfcdjW29GdUuZ6aYnFkskhAzDOUmLMCRslNMXh5gJVGx+nX0iA1/mv6GsdjbrNSRsDG6c8CC83L3NOkXOiwJSCrAAlDItDMrMAuL7rW3F6/BB1pOmWhDy05yJPdzEN11jYk5HkI/+ewWa6X4R3zCKVePiCMGtxZ+iqqXUTNP7t7kEeIXgqtF/wLDwcS7/xtK0yJwYBf6LAAtA3hoUcIFAfVs13j7wCLIqt7lgdOcMKbaJGRVzOibGn4u4oMEQr/p4/W+BHnuPssehKPyyKzNMtcffL81c/CXh/ORr4OcZyFuDAhRwsgALQCeDczgKCAGxCORgxVa8m/mYsn2JWS9Pdx/EBw9RTg4ZH3c2xCtiXr8sIF757ij5EjtKvkBJQy5EMWjmKzpwIC4dficSQ9O58tfMiebcpBVgAShtahiY2QVE4fd53iv4vuhjs08Vob5RSImYgBkD5ylPA3n9u0Be9X58e+RDFNYeMPVfCE7O2sPNE7OGXo3TBi6At4cvbwcKUMAFAiwAXYDOISkgBMT2HjlVu7A6ayWONxWZHsXDzQuhvpE4bdBFytNAvvYD6tuqlOPcdpSsR1VLmSlX+f7SjZ0cPhZzU5ehf1CS6e97TpACsgqwAJQ1M4zLEgKdPR34IvdVbCh42zJ/+Hu6eSMuKEn59is5fIwlP/7v6G5DZsVWbCh4C2JvSLHJs1UuX89AnD/0GswYONeSubdKnjlP+QVYAMqfI0ZocgFxdNnq7KeQX22uE0JOlTZvDz+kRU7GmYkLERs0GOK1oA22UzUz7L8XT3w7etpQUp+PrwveUbZ46e7pNOx8HAlc5HdE9HQsTL8VwT7hjnTBNhSggEYCLAA1gmQ3FFAjIJ4AfpX/Jlo6G9V0Y8i2/l4hGBkzA1Piz0eYX7TyathMi0W6ejqVvJY2FGD7sS9wsGKz6c7x7e2NJ85XnjPsBoyLO6u3Tfg7ClBAJwEWgDrBslsK9EWgru2Esi1MzoldlnkV/HMff69QpEdOQnrUZMQGJSLYO9ywCwTssKOtqwV1rSdwtO4QMiu2IKtimymPAOztfS6e8I6OPROXDv8NvNx55Ftv3fg7CuglwAJQL1n2S4E+Cuwq3aAsCGnsMO+2ML0hEcVBYr8RykkiA0JSEOEfC7GnoCggZL/E077atkpUNh1DUd0h5FfvQ1Fttmk3/O5LPsTm4ItG3YPE0LS+NONvKUABnQRYAOoEy24p0FeB9q5WvH3gUewt32j6PeB6YyNWDYf7xSE2aBASgpOV7wSjAuKVLWVk+law296N2tbjON54FOWNRThafwil9QWobauw1OKO/5VTcS702YMvVxb+yJS73tyH/A0FzCrAAtCsmeW8DClQ0pCPldvvQHNHnSHj1ytoXw9/hPhGQXxD1j94CKL8EyA2Eg73i4GvZ4Bew/5iv+L1bnNHPapaynG8sQjlTUU43ngE1S3lqGurQntXi1PjMcJgMYGJWDbxYYT4RBghXMZIAUsIsAC0RJo5SaMIiOLi89xX8Xnuy0YJ2elxern7wt8rEP6ecmf33AAADulJREFUwQj0DkVUwABEBSQg3D8OEX4xCPAK1fTbwZbOJjS116KypRRVzWWobC5WXvGKV/WiEBQLPDq7253uYKQBl4y9X1now4sCFJBHgAWgPLlgJBRQBFq7mvHw99ejqrmEIqcQEK8TPdy94OXuDfHK2NPNCwHeoejnG4Mg734I8g5VikQ/ryD4evrDy80booB0s9kA+w+dd6MH4vV7l70DLR1NSlEnTmkRBV5Dew1ONB9DW2czOnra0dXdAbF3o/inKNZ5nVogNXIyrht3vyG+4Tz1bPgLCphHgAWgeXLJmZhIIKtiO57beZeJZuS8qYii0GZT/idgc1P++cP/La6T+wyKf/68gPuhpBP79dnRI/4XpcjrsSv/rfMmYKKR3Nw8cO9prysLeXhRgAJyCbAAlCsfjIYCioB4pfjynr8is2IzRShgSAFRcs8csgjnDbkaYhEILwpQQC4BFoBy5YPRUEAREE+ejtbm4Jkdd6K1s4kqFDCcQFTAQCyd8CDC/GIMFzsDpoAVBFgAWiHLnKMhBUTh91XBW8qxYT32bkPOgUFbU0Ds5Tg/9WZM6H8uPN29rInAWVNAcgEWgJIniOFZW0BsC/Pm/odRUn/Y2hCcvaEE0iOnYH7azYjwjzNU3AyWAlYSYAFopWxzroYTaO9uw5aja5VtYdq6mg0XPwO2nkCwTzjmpizF6JjT+e2f9dLPGRtIgAWggZLFUK0pcLzpKD7OfhZZldusCcBZG0bAzeaOif1nKSd+BPuEGSZuBkoBKwqwALRi1jlnQwl093RhR8l6rMt9GXVtJwwVO4O1loA48WNu6lKkRIznkW/WSj1na0ABFoAGTBpDtp5AU0c9Pji4AnvKNv2wRx0vCkgm4OnujWkD5mJO8hIu/JAsNwyHAr8kwAKQ9wUFDCKQXZmBD7KeUk6m4EUB2QQSgpNx5ah7lDOaeVGAAvILsACUP0eMkAL/EhArgneVfomunk6qUEAaAR8Pf5w1+DL8asiV0sTEQChAgf8twAKQdwgFDCRQ3liEl/bch+ONRQaKmqGaWUCc+DEgJAVLJz4MP89AM0+Vc6OAqQRYAJoqnZyMFQTW57+hbAsjFofwooCrBbw9/LBo5O8xKmaGq0Ph+BSgQB8EWAD2AYs/pYAMAs0d9Xhmx10orjskQziMweICo2LOwOIxf4Kbzc3iEpw+BYwlwALQWPlitBRQBLIqM7Bq5z3otvMpIG8J1wkEeIdi+aQnEMOFH65LAkemgIMCLAAdhGMzCrhSQJwN/Pr+B7Gr5EtXhsGxLS5wwbAbMDPpcosrcPoUMKYAC0Bj5o1RUwAVTcVYse02NLZXU4MCTheIDxmGpeP/D4He/Zw+NgekAAXUC7AAVG/IHijgEgHx+vfbIx/io+xnXDI+B7WugM3mhmvH/BUjoqdC/O+8KEAB4wmwADRezhgxBf4lUN1Sjpf2/BnFdTlUoYDTBMbFnYP5qcsQ6B3qtDE5EAUooK0AC0BtPdkbBZwq0G3vxr7yb/Ha3gcgvgvkRQG9BQK8QnHtuL8gqd9IvYdi/xSggI4CLAB1xGXXFHCGQE1rBdbk/BN7Sr+GHXZnDMkxLCrgbvPAmYMvwdmDL+Omzxa9Bzht8wiwADRPLjkTCwtkVmzF+wefQG1rhYUVOHW9BeKDh2JB2i0Y3G+E3kOxfwpQQGcBFoA6A7N7CjhDoLGjDuvzXsOWo2vR1dPhjCE5hsUEfD0DlCd/pw+6CF7uPhabPadLAfMJsAA0X045I4sK5FXvw+rsp1FSn2tRAU5bLwFx3m9yxDjMT72Zmz7rhcx+KeBkARaATgbncBTQS6Cjuw1f5b+Fb4s+RGtnk17DsF8LCgT7hGPW0MWYHH8ej3yzYP45ZXMKsAA0Z145K4sKnGguwWv7/o6i2iyLCnDaWgu42dyRHjUFl4/8Hfw9g7Tunv1RgAIuEmAB6CJ4DksBPQTs9h5sLv4Unx1eheaOBj2GYJ8WExBP/xaNugfDwsdabOacLgXMLcAC0Nz55ewsKCBOCFm5/Q4UVO/ntjAWzL+WUxZP/yb0PxeXjfgtX/1qCcu+KCCBAAtACZLAECigtUBezX48v+NutHe1aN01+7OQgJ9nEO457SUE+0RYaNacKgWsIcAC0Bp55iwtKPD6vgexo+RzC86cU9ZCQJzxOzd1Gc4ctFCL7tgHBSggmQALQMkSwnAooJVAXdsJPLr5RtS3VWnVJfuxkEB88DDcMe0ZuNvcLTRrTpUC1hFgAWidXHOmFhT4rugjfJj1JHrsPRacPafsqICPhz+uHXc/F344Csh2FDCAAAtAAySJIVLAUQGxH+CqXfcir3qvo12wnQUFpiTMwcL05fBw87Lg7DllClhDgAWgNfLMWVpUQGwLk31iB17b+3e0dNZbVIHT7otApH8Cfj36XsSHDIU4AYQXBShgTgEWgObMK2dFgX8JtHY246v8N/FVwZtUocD/FBBP/Oan3oRJ8bPg6e5NLQpQwMQCLABNnFxOjQJCwA47KhqL8fGhZ5FVuY0oFPivAlMSZuO8oYshNn/mRQEKmFuABaC588vZUUAREEVgfvUBfJT9NI7VH6YKBf5DIC1yEi5MuRHRgQP56pf3BwUsIMAC0AJJ5hQpcFIgqzIDa3KeR3lDIU8J4W2hCIj9/gaFpmFuylLln7woQAFrCLAAtEaeOUsK/EvgwPHN+DzvVZQ1FKDH3k0ZCwuIPf4G9RuBOcOWIDE03cISnDoFrCfAAtB6OeeMKYDDVXuwPv91FNYcQHdPF0UsKODt4YehYaNxXvI16B+UZEEBTpkC1hZgAWjt/HP2FhYoazyCTYXvIatyOxrbaywsYb2ph/vHYVzsTEwdMAchXPBhvRuAM6aA+PzDbrfbKUEBClhToKWzEfvKv8WO0i9RVJOFbjufBpr5ThAnfCSFjcKE/udiRPQ0HvNm5mRzbhQ4hQALQN4iFLC4gNgsurg+F5kVm7G//HtUNB3lAhGT3RPubp6IC0rCuLizkBoxEZEB8Vzpa7IcczoU6KsAC8C+ivH3FDChgNgmpq2zGaUNBThYuQ37j3+P6pYyiOKQl3EFROEXGzgYY2LPwNDwMYgOSICXu49xJ8TIKUABzQRYAGpGyY4oYHyBHnsP2rtaUNNaidzqPcg8vhkFNfsh/ntexhEQRd6QsDEYFXMahoSNRIB3iFL48Wg34+SQkVJAbwEWgHoLs38KGFLAjm57j7JCWOwZmFezH3lV+1DWWIC6tkpDzsjMQYu9/ML9+iMmcBBSIscjKXQEwvyi4e7mATebu5mnzrlRgAIOCrAAdBCOzShgNQGxQKSquRwnmktQ116Flo5GqxFIN18bAH/vEIT6RCAqIAEhPhFws7lJFycDogAF5BNgAShfThgRBShAAQpQgAIU0FWABaCuvOycAhSgAAUoQAEKyCfAAlC+nDAiClCAAhSgAAUooKsAC0Bdedk5BShAAQpQgAIUkE+ABaB8OWFEFKAABShAAQpQQFcBFoC68rJzClCAAhSgAAUoIJ8AC0D5csKIKEABClCAAhSggK4CLAB15WXnFKAABShAAQpQQD4BFoDy5YQRUYACFKAABShAAV0FWADqysvOKUABClCAAhSggHwCLADlywkjogAFKEABClCAAroKsADUlZedU4ACFKAABShAAfkEWADKlxNGRAEKUIACFKAABXQVYAGoKy87pwAFKEABClCAAvIJsACULyeMiAIUoAAFKEABCugqwAJQV152TgEKUIACFKAABeQTYAEoX04YEQUoQAEKUIACFNBVgAWgrrzsnAIUoAAFKEABCsgnwAJQvpwwIgpQgAIUoAAFKKCrAAtAXXnZOQUoQAEKUIACFJBPgAWgfDlhRBSgAAUoQAEKUEBXARaAuvKycwpQgAIUoAAFKCCfAAtA+XLCiChAAQpQgAIUoICuAiwAdeVl5xSgAAUoQAEKUEA+ARaA8uWEEVGAAhSgAAUoQAFdBVgA6srLzilAAQpQgAIUoIB8AiwA5csJI6IABShAAQpQgAK6CrAA1JWXnVOAAhSgAAUoQAH5BFgAypcTRkQBClCAAhSgAAV0FWABqCsvO6cABShAAQpQgALyCbAAlC8njIgCFKAABShAAQroKsACUFdedk4BClCAAhSgAAXkE2ABKF9OGBEFKEABClCAAhTQVYAFoK687JwCFKAABShAAQrIJ8ACUL6cMCIKUIACFKAABSigqwALQF152TkFKEABClCAAhSQT4AFoHw5YUQUoAAFKEABClBAVwEWgLrysnMKUIACFKAABSggnwALQPlywogoQAEKUIACFKCArgIsAHXlZecUoAAFKEABClBAPgEWgPLlhBFRgAIUoAAFKEABXQVYAOrKy84pQAEKUIACFKCAfAIsAOXLCSOiAAUoQAEKUIACugqwANSVl51TgAIUoAAFKEAB+QRYAMqXE0ZEAQpQgAIUoAAFdBVgAagrLzunAAUoQAEKUIAC8gmwAJQvJ4yIAhSgAAUoQAEK6CrAAlBXXnZOAQpQgAIUoAAF5BNgAShfThgRBShAAQpQgAIU0FWABaCuvOycAhSgAAUoQAEKyCfAAlC+nDAiClCAAhSgAAUooKsAC0Bdedk5BShAAQpQgAIUkE+ABaB8OWFEFKAABShAAQpQQFcBFoC68rJzClCAAhSgAAUoIJ8AC0D5csKIKEABClCAAhSggK4CLAB15WXnFKAABShAAQpQQD4BFoDy5YQRUYACFKAABShAAV0FWADqysvOKUABClCAAhSggHwCLADlywkjogAFKEABClCAAroKsADUlZedU4ACFKAABShAAfkEWADKlxNGRAEKUIACFKAABXQVYAGoKy87pwAFKEABClCAAvIJsACULyeMiAIUoAAFKEABCugqwAJQV152TgEKUIACFKAABeQTYAEoX04YEQUoQAEKUIACFNBVgAWgrrzsnAIUoAAFKEABCsgnwAJQvpwwIgpQgAIUoAAFKKCrAAtAXXnZOQUoQAEKUIACFJBPgAWgfDlhRBSgAAUoQAEKUEBXARaAuvKycwpQgAIUoAAFKCCfAAtA+XLCiChAAQpQgAIUoICuAv8PkP+5T3f7S6MAAAAASUVORK5CYII=;" vertex="1" parent="1">
          <mxGeometry x="125" y="186" width="108.45" height="61" as="geometry" />
        </mxCell>
        <mxCell id="auokp5sfF3vydT2iOztg-28" value="" style="image;sketch=0;aspect=fixed;html=1;points=[];align=center;fontSize=12;image=img/lib/mscae/Docker.svg;" vertex="1" parent="1">
          <mxGeometry x="90" y="161" width="50" height="41" as="geometry" />
        </mxCell>
        <mxCell id="auokp5sfF3vydT2iOztg-29" value="" style="rounded=0;whiteSpace=wrap;html=1;" vertex="1" parent="1">
          <mxGeometry x="-57" y="325" width="128" height="89.5" as="geometry" />
        </mxCell>
        <mxCell id="auokp5sfF3vydT2iOztg-30" value="" style="shape=image;verticalLabelPosition=bottom;labelBackgroundColor=default;verticalAlign=top;aspect=fixed;imageAspect=0;image=data:image/png,iVBORw0KGgoAAAANSUhEUgAAAoAAAAFoCAYAAADHMkpRAAAgAElEQVR4Xu3dB3gVVd4/8O9N74X0hAQIgZBC79WKLgpKESu6olhARV3d1XXddXd197WtimJb7L2igqIogoUWOoSEkEYIKSSk937/zxll/67rLsmdmXvPzHxnn+f1fdd7zvmdz2/ehx8zc86x2e12O3hRgAIUoAAFKEABClhGwMYC0DK55kQpQAEKUIACFKCAIsACkDcCBShAAQpQgAIUsJgAC0CLJZzTpQAFKEABClCAAiwAeQ9QgAIUoAAFKEABiwmwALRYwjldClCAAhSgAAUowAKQ9wAFKEABClCAAhSwmAALQIslnNOlAAUoQAEKUIACLAB5D1CAAhSgAAUoQAGLCbAAtFjCOV0KUIACFKAABSjAApD3AAUoQAEKUIACFLCYAAtAiyWc06UABShAAQpQgAIsAHkPUIACFKAABShAAYsJsAC0WMI5XQpQgAIUoAAFKMACkPcABShAAQpQgAIUsJgAC0CLJZzTpQAFKEABClCAAiwAeQ9QgAIUoAAFKEABiwmwALRYwjldClCAAhSgAAUowAKQ9wAFKEABClCAAhSwmAALQIslnNOlAAUoQAEKUIACLAB5D1CAAhSgAAUoQAGLCbAAtFjCOV0KUIACFKAABSjAApD3AAUoQAEKUIACFLCYAAtAiyWc06UABShAAQpQgAIsAHkPUIACFKAABShAAYsJsAC0WMI5XQpQgAIUoAAFKMACkPcABShAAQpQgAIUsJgAC0CLJZzTpQAFKEABClCAAiwAeQ9QgAIUoAAFKEABiwmwALRYwjldClCAAhSgAAUowAKQ9wAFKEABClCAAhSwmAALQIslnNOlAAUoQAEKUIACLAB5D1CAAhSgAAUoQAGLCbAAtFjCOV0KUIACFKAABSjAApD3AAUoQAEKUIACFLCYAAtAiyWc06UABShAAQpQgAIsAHkPUIACFKAABShAAYsJsAC0WMI5XQpQgAIUoAAFKMACkPcABShAAQpQgAIUsJgAC0CLJZzTpQAFKEABClCAAiwAeQ9QgAIUoAAFKEABiwmwALRYwjldClCAAhSgAAUowAKQ9wAFKEABClCAAhSwmAALQIslnNOlAAUoQAEKUIACLAB5D1CAAhSgAAUoQAGLCbAAtFjCOV0KUIACFKAABSjAApD3AAUoQAEKUIACFLCYAAtAiyWc06UABShAAQpQgAIsAHkPUIACFKAABShAAYsJsAC0WMI5XQpQgAIUoAAFKMACkPcABShAAQpQgAIUsJgAC0CLJZzTpQAFKEABClCAAiwAeQ9QgAIUoAAFKEABiwmwALRYwjldClCAAhSgAAUowAKQ9wAFKEABClCAAhSwmAALQIslnNOlAAUoQAEKUIACLAB5D1CAAhSgAAUoQAGLCbAAtFjCOV0KUIACFKAABSjAApD3AAUoQAEKUIACFLCYAAtAiyWc06UABShAAQpQgAIsAHkPUIACFKAABShAAYsJsAC0WMI5XQpQgAIUoAAFKMACkPcABShAAQpQgAIUsJgAC0CLJZzTpQAFKEABClCAAiwAeQ9QgAIUoAAFKEABiwmwALRYwjldClCAAhSgAAUowAKQ9wAFKEABClCAAhSwmAALQIslnNOlAAUoQAEKUIACLAB5D1CAAhSgAAUoQAGLCbAAtFjCOV0KUIACFKAABSjAApD3AAUoQAEKUIACFLCYAAtAiyWc06VAXwV67N3Irz6AI3XZKKrNQk3rcTS0VaOrp7OvXfH3GgvYYIOnuw+CfcIR7heLQf3SMCgkFQNDUzUeid1RgAJmE2ABaLaMcj4UUCnQY+9Bd08njtXnYnfZJhyo2Iy61gqVvbK5MwViAhMxMnoGRkZPR1RgAjxsHrDZ3JwZAseiAAUkF2ABKHmCGB4FnCXQbe9CQ1sNCmozsaNkPQqqD6Cju9VZw3McHQR8PAKQGjkRE/qfiwEhyfDzDISbzV2HkdglBShgNAEWgEbLGOOlgMYCdtjR0F6DotpsbC3+FPnV+9DR3abxKOzOlQL+XsFIi5yMcXFnISF4GPy9AgHYXBkSx6YABVwswALQxQng8BRwpYB43XukNgsZJV/gYMVWNLbXuDIcjq2zQJhfjPJqeGzc2UgIHqrzaOyeAhSQWYAFoMzZYWwU0FGguaMee8q/wfZjn6O47pCOI7FrmQTEwpGksFGYNuBCDI+aCk93L5nCYywUoICTBFgAOgmaw1BAJoHK5hJsLHwP+8q/RXNHnUyhMRYnCYT5xSrfBk5LmIMgnzAnjcphKEABWQRYAMqSCcZBAScJHKvPw/r815FduR2d3e1OGpXDyCjg6xmgvBL+1dBfI8w3WsYQGRMFKKCTAAtAnWDZLQVkFDhal4N1uS8jt2o39/GTMUEuiMnT3RujY87A+cnXoJ9vlAsi4JAUoIArBFgAukKdY1LABQIVTcVYk/NPHKzYArH4gxcFTgqIrWGmJJyP84Zeg0DvUMJQgAIWEGABaIEkc4oUaGyvxRd5r+K7oo+IQYFfFHCzeeC85MU4feACeHv4UokCFDC5AAtAkyeY06NAZ08HMo59gQ8OPoFuezdBKPBfBQK8Q3H5iN8hLXIiN4zmfUIBkwuwADR5gjk9awuITZ6L63Lx6t77caL5mLUxOPteCSSFjcblI36LCP+4Xv2eP6IABYwpwALQmHlj1BTolYB4+vdu5uPIOLauV7/njyggBOYMux5nJV4CdzcPglCAAiYVYAFo0sRyWhQQAtmVGXhx9594tBtvhz4JhPpG4sYJDyE2MLFP7fhjClDAOAIsAI2TK0ZKgT4JtHW1YsW25Sipz+1TO/6YAkJgTOxZWDzmT8SgAAVMKsAC0KSJ5bQo8GX+W1ib808AdmJQoM8CYn/Aa8b8BelRk/vclg0oQAH5BVgAyp8jRkiBPgucaC5Vnv7Vt1X1uS0bUOCkQHTAINw5/Tl4u/sQhQIUMJkAC0CTJZTToYAQeGXPA9hb/jU3fObtoErAw81TOSbu3KQrVfXDxhSggHwCLADlywkjooAqgewTO/DW/of49E+VIhufFAj3i8XSiQ8j0j+eKBSggIkEWACaKJmcCgVaO5vw6t4HkH0iA3Ye98YbQgMBDzcvjO9/LhamL4enm5cGPbILClBABgEWgDJkgTFQQAOBHns3Nh9di/V5r6KhvUaDHtkFBX4QiPCPx0VptyA1ciJJKEABkwiwADRJIjkNCpQ1HsEHB59EXvUeYlBAUwE3mztGx56BeanLEOwdpmnf7IwCFHCNAAtA17hzVApoKtDe1YpNR97H1wXvoK2rWdO+2RkFhECwTzjOG3oNJsb/Cu42d6JQgAIGF2ABaPAEMnwKCIGCmgP4MOspHOOmz7whdBRIiZiIualLERs4SMdR2DUFKOAMARaAzlDmGBTQUaCpow5f5r+J74pWo7unS8eR2LXVBbzdfXF+8rWYOmAOvLg3oNVvB87f4AIsAA2eQIZvbQG73Y7cqj14Zd/9aGqvtTYGZ+8UAXE+8KJRv0d88FCnjMdBKEABfQRYAOrjyl4p4BQBsdr3vYNPYH/5t04Zj4NQwAYbZg65EmcPvhS+Hv4EoQAFDCrAAtCgiWPYFBD7/B04vhkv7P4jMSjgVAEvdz8sn/I4BgQnA7A5dWwORgEKaCPAAlAbR/ZCAacLNLbX4umMO1HakO/0sTkgBUZEz8CVo34PHw8/YlCAAgYUYAFowKQxZAoIgS/yXsdnh18gBgVcJnDd2AcwIma6y8bnwBSggOMCLAAdt2NLCrhM4HhTER7bcjNaOxtdFgMHpkBM4CDcPOkxBHn3IwYFKGAwARaABksYw6VAV08nXtn7APaXf0MMCrhcYGbSlbhg2BKXx8EAKECBvgmwAOybF39NAZcL7CnbiDf3P4SO7jaXx8IAKBDoHYYbxv8dA0KGEYMCFDCQAAtAAyWLoVKgob0aL+66D0dqD8IOO0Eo4HIBN5sbxIKQq0f/Ee5uHi6PhwFQgAK9E2AB2Dsn/ooCUgisy30VmwrFeb8tUsRjxCACvEMR7B0GcapFS1czGtqr0NLRYMSpSBNzoHc/zEtZhvH9Z0oTEwOhAAX+twALQN4hFDCIQElDPt7a/zCO1R82SMTyhOnt4Ych4WMwNuYMDO43En5eARAbGouTVJo66lFQewAZx75AfvV+9Nh5nF5fMycsh4SNwuKxf0aAV0hfm/P3FKCACwRYALoAnUNSoK8C4ozf1dnPYEvxGnT3dPa1uWV/LwqT6MBBuDDleqRGTlKKvv92tXe1YF/5d9hQ8DYqmoshNtrm1XsBX89AnD34MswcfBlsNrfeN+QvKUABlwiwAHQJOwelQO8FxFOqg5Xb8Mmh51HRVNT7hhb/pSj2EvuNwCXDf4OYwIG91jhSm6VYi+8se+zdvW7HHwKD+43AgvTliA8aQg4KUEByARaAkieI4VGgvq0Ka3NWIaNkPcCFH72+IeKDh+LqMfch0r9/r9uc/GFh7UG8l/k4yhoKuNimD3oe7l44Y9DFOCfpCp4Q0gc3/pQCrhBgAegKdY5JgV4KiNe9u8s2YU3Oc6hvq+5lK/5MvI68ftzfkBQ20mEMUXC/l/kYt9vpo6B45T4/9SYMCx8Hm43nBPeRjz+ngNMEWAA6jZoDUaDvAieaS/Bh1kpkVW7re2MLt5iScAEuG3GHKoHO7g48t+Nu5FbvVtWP1RqLV+9TBszBeUOvRpB3mNWmz/lSwDACLAANkyoGajUBsdHztmPrsObQ83wK1Yfke7p54zfTnkH/oKQ+tPrln+4u3YhX9v5FdT9W6yDQO1T59jI9agrcbdwb0Gr553yNIcAC0Bh5YpQWFKhoPoZ/7rwHlU3FFpy941MW3/7dOvlJeHv4Ot7Jjy2bOxrw542Xoa2rSXVfVutgWMR4XDHyboT4hFtt6pwvBQwhwALQEGlikFYTEOf9rj28CpsK3uMihD4mf1zcTFw+8nfwdPPqY8v//Lk4beXh765HSUOu6r6s1oGHmycuSr8Nk+Nnwc3mbrXpc74UkF6ABaD0KWKAVhQobyzCQ99fC7H/H6++CcwYtADzUpZCFCBaXM/u+D2yK7dq0ZXl+gj2CccfTnsNvp7+lps7J0wB2QVYAMqeIcZnOQGx99zK7Xcir3qP5eauxYSnD1yA+anaFYDP7bwHWRVbtAjNkn2ckXgJ5qUu/Z+bcFsShpOmgIsFWAC6OAEcngI/F9hTtgkv7/kzYRwUmD5wPuanLtPsCSALQAcT8WMzcSrI3dNfRGxQorqO2JoCFNBUgAWgppzsjALqBBraa/D41ltQ1VyiriPJWovXsT4e/vBy91G+aWzvakN7VzO6dTh31wgFoPgmTniIV6Pubp7KmcSd3e1o7qxX/mm2a1j4BCwZ9xeIM5l5UYACcgiwAJQjD4yCAui2d+Ozwy9hY+E7pvn2z98rGNEBAxEXnKScyBHoFaocr1bfXoOKpqMobchHRVMxxDm8Wl0yF4BuNjeE+kYhISQFCcHJCPeLUQpBkXux4ri8qRBFtdkobShAa2ejViQu78fDzQsXp/8GkxNmuTwWBkABCvwgwAKQdwIFJBEoqD6A1/f/HdUt5ZJE5HgY4rVfdMAAiBW5KZETEBMw8D9eybZ1NaO0oRCZFVuwq/SrH086sTs+6I8tZS0ARfE3LGICJsbPwuDQ4Qjy6fcf38WJJ4FljT+Y7Cz9yjRbAInNofsHJ2PxmPsQ4R+rOsfsgAIUUC/AAlC9IXuggGqB1q4mvJ+5AnvLN0FsAWPkS2zEnBQ2CtMHzsWQsFGnPBO2qaMOmce3Yl3uS6hrO6F66rIWgGNiz8I5SYsQ14tv4dq6WpBdmYHvilbjSG2W8tTU6JfYl3HGwIswO/kaiGKYFwUo4FoBFoCu9efoFFAEdpR8qez7V9daaWgR8Y3fuLhzcGbiQoT7xcLdrXenQIjv3vaUb8I7B/6Brp4OVQYyFoADQtKweOyfEOYb3eu5dfZ0oKyhEJsK30dmxWYTnAZjQ0zgICxMv1X5iwEvClDAtQIsAF3rz9EpgJqW41idvVJ57ddj7zGsiCj2zkm6EjMGzkOAV3Cf5yGKwLcyH8Wuki/73PanDWQrAMUij9unrMSAkGF9npfd3oPGjnp8VfA2thWvQXtXa5/7kKmBuEcm9p+FeanLTvlkWKa4GQsFzCjAAtCMWeWcDCXwzZEP8dnhFyG+iTPyddnI32Fi3Lm9fur3S3OtbanEnzddquqVp2wF4Ni4s3HFiN/B093b4fSKzwI2FLyDL/JeMfwCoX6+Ubgg5QaMjT3LYQ82pAAF1AuwAFRvyB4o4LBAcX0uPsp+GvnV+xzuw9UNxWvfq0b9ASNjZmgSytMZdyLnxE6H+5KrALRh8Zg/YVTM6Zp89yb+svDJoedUvyZ3GFejhqIovnDYDQj1jdSoR3ZDAQr0VYAFYF/F+HsKaCQgXudtOvI+1uW+DPGqz4iXOOrrkuG/QVrkZE0KHGGwPv8NfJqzymEOmQpAX89ALJ/0BPoHJzk8n5833Hbsc6w59BzE4hmjXj6eAZiXsgwT+6t7YmzU+TNuCsggwAJQhiwwBssJiIKvoCYTb2c+atCtPmzKHnZzUq7HiKhpmp26IW6EjNIv8cbevzl8T8hUAPbzjcHNk/6BCP84h+fz84ZiRXBGyXp8nvsKalsrNOvX2R0NCRuNi9JvRWzgIGcPzfEoQAHuA8h7gAKuERCb/q49/AK2HP3ENQGoHDXSPwG/GnIVRsZMV0730PLaemwd3t7/kMNdylQAiiekt0x6HFEBCQ7P55cadnS3YWfJV/iy4A1lEZERL3EayuxhS5RFQ97uvkacAmOmgKEF+ATQ0Olj8EYUEE//Dp7IUJ5ytRjwtIcwv1hlP7uxsWdC7O2m9bUmZxW+yn/D4W5lKgA93bxw44SHMSR81H9s+uzwBH9sKO6d7cc+V7aJqWsz5vZB4f5xWDz6T4gPSdbcR60v21PA7AIsAM2eYc5POgFx7NlzO+9BfvVe6WI7VUBB3v1w1uDLMDn+PPh6Bpzq5w79+0c3L8XRumyH2opGMhWAIp7zk6/FzMGXq1od/d8wxHeA3x75CN8f/QjNHfUOm7my4eSE2bg4/VaI4+J4UYACzhNgAeg8a45EAUXgu6KPsTrrKXTbuwwl4u3hh+kD5uLswZfB3ytIl9jzqvfjmYw7Va1yla0AjAoYiDunPavbvncN7TX47PDL2Fn6JTq723TJi56dirOQrx33VwwLH6fnMOybAhT4mQALQN4SFHCiQGNHHf72zVWGe1ojzvZNj5yCRaPugp+nPsWfOAf3iW23obBG3ZY4shWA4tizc5KuwvnJi3W702paj+PN/Q8jr3qvIVeUxwUNwd0zXtDNhx1TgAL/KcACkHcFBZwo8Pq+v2NHyXonjqjNUME+kbh7+ioEeIdo0+Ev9CK+/dtU+K7qs5BlKwDFVMUJGIvH/Bkjo6fr5GeH2FPyxV1/RI0BVwbbYMOC9Ftx2sB5OvmwWwpQ4OcCLAB5T1DASQJHag9i5fY7DHemq4ebJ26buhIDgvt+lNmpaO2wo7unExsL38eGgrfQ2tl0qian/PcyFoAiaPGN28L02zCh/zmabpvzU5AdJV/h3cx/oKPbeEfGiW9K/3j66wj07nfKHPMHFKCAegEWgOoN2QMFTikgNn3+5657kVe9G+JVp1EusYr1gpQbcfqgBZqHLL6BrGouw8bC97C77GuIxTFaXLIWgGJuPh5+mDrgQpwx6CKl0BGvh7W+3s18DFuOroEoro10iW1hJsWfj4Xpy3UrkI3kwVgpoLcAC0C9hdm/5QXEti9bj32GtTmrDPbtnw1jYs/EolF3QxSCWl6d3R0orM3EhoK3kVu1R9XZvz+PS+YCUMQqzgQW31OeNfhSxAUN1rzYEXsErth2K4rrcrRMmVP6CvEJx6JR9yA5fKxTxuMgFLCyAAtAK2efc3eKQEVTMd468AiO1GQa6qlMTGAifj36XsQGJWq6R5so/rIqtynF39G6Q5rnQPYCUExYPO0a3G+EsqJ6SNgopSjU8iqsPYiXdt+H+rYqLbvVvS93mwfSo6bikhG/QaCXft+b6j4RDkABAwiwADRAkhiicQU6u9vxZf6b+PbIB2jtajbMRPw8A3Fhyo0YHzdT0+JEHGO2s/QrbCx4F2WNhbp4GKEAPDnxhJBhyqbaqZETNX3K2t3Tha8L38Vnh19Aj8HOmRanp5w39Bplr0mbzabLPcJOKUABgAUg7wIK6CggtuVYnf00SurzdBxF+67FQoU5ydchxDdS0843H/0EGwreQXVLmab9/rQzIxWAIu7YoMGYnbwEaZGTNP0msLrlON4+8CgOV+3UzVqPjsWWQ8nh4zA/9SbEBA7UYwj2SQEK8Cxg3gMU0E+gqaMe6/Negyh6uno69RtI454jAxIwL2UpUjUuSLYd+wyf5ryIhvZqjSP+9+6MVgCK6CMD4nHx8N8gOWyMZjZikU3m8a14J/NRg317CohNx8WT0TMSF2r6ZFQzXHZEARMI8AmgCZLIKcgpkFmxFe8dfAJ1BtqXTXyDdXriQswacpXyh7BW167Sr/HxoadR36Zv8SfiNWIBKOIO8YnAjRMfQlzgYK3Y0dhei89zX8H3Rz/WrE9ndZQQnIwFabcgsd9wZw3JcShgKQEWgJZKNyfrLAGxGa/Y2Hh36QbAQNtxDAhJxfy0m5EYmqYZ1eGq3Xj7wCOobinXrM//1ZFRC0Axp1DfaNwxdSWCfSI0srIjq3IHPji4AlUtpRr16ZxuxKtgcYayWCij17nTzpkJR6GAnAIsAOXMC6MysIBY6LCv/Du8uvd+Tbc30ZtErEQ9beACXJhyg2ZDlTcW4Y19f0dx/WHN+jxVR0YuAMWJGEPCx+GG8Q/Ay93nVFPt1b8X+yuKs4K/KXrfUHtQismJvRIXj7kPSWEjNV2J3is4/ogCJhdgAWjyBHN6zheoai7Fa/v+DnHyh3EuGxJCknH5iLsQF5SoSdgN7TX4MOsp7Cv/xqkrUY1cAAp4UfhNHXABZidfq1kReOjETnyU/QzKdVp5rckN8186Gd//XOWb1EDvUD2HYd8UsJwAC0DLpZwT1lNAfHj/7ZEPlT9sjXSJomPagLmYl7pUk7Dbulrw7ZHV2Fj4Llo6GzTps7edGL0AFPMM9Y3C+cnXYlzsWco5wmovcRLNx4eexfZj6wy1IEnMWxxFePWY+zA8aqqmq6TVmrI9BYwuwALQ6Blk/FIJiFeeT2fcifq2E1LFdapgIv3jcc3YvygnU6i9uu3dyK7cjk8OPQexCbazLzMUgMJsUGga5qfegoGhKZoQZlVm4MOsJ3GiuUST/pzZifg29frxDyDIO8yZw3IsCphagAWgqdPLyTlbQLz63Vmy3tnDqhpPnEoxOWE2Lhl+uybfWYnFBquznkZmxRZVcTna2CwFoIebF6YkzMa5Q65EkHc/Rzn+1a6tqxlv7X8EB45/D/Gk2mjXnGHXKVvD8KIABbQRYAGojSN7oQCyKrfjxd1/gjj9w0iXeP27fPKTGBCSrDrs9u5WbD66BusOvwRxJq0rLrMUgMJOnIoxN2UpRsecrsmr4J2lG7A6ayWaOmpdkRpVY4oi+JbJjyM6gJtDq4JkYwr8KMACkLcCBTQQEN+8rdi6HCUNxjrxQ0w9JWICbhj/fxoUGHaUNhTin7vuQU3LcQ1UHevCTAXgyfxclLZc2Sxa7dXS2YRnMn6L4rpDhjqX+uS8R8TMwHVj71fLwPYUoABPAuE9QAFtBNbnvYEv8l4x3Af2YvZLxj2AkdHTVUOI007ez3oSW4+udeneh2YrAMWr4AVpN2Ni/1nwdPdSnSdxr36e9zLEecFGu8Tm5FeN+gNGRE8zWuiMlwLSCfAJoHQpYUBGEzjRVILndt6NyuZjRgsdgd7heODs9yC+A1R7HavPwz823wCxCMSVl9kKQGEZFTAASyc8hDC/GNW0lc0lePi7JRCv64132RAfPBS3TlkBb3df44XPiCkgkQALQImSwVCMJ9Bj78G7mY9jR8kX6OrpMNwEzky8DPNSb1Qdt91ux/M7f4+sym2q+1LbgRkLQGEizgqemjBbk2L9mYzf4dCJDLXULmkvTgWZmXSFckKI2DibFwUo4JgAC0DH3NiKAsprTnHMltjs+IQBn/6Jc3/vmPYM4oPVL/44WpeDRzdrd4KImtvLrAVgmF+ckq9ArxA1PErbnaVf4bW9D6jux1UdiKeAi0bdg9jAQa4KgeNSwPACLAANn0JOwFUCje21WJ39NPaUbTTUkW8nveKChuA3U1eqPm1CHH338p77sa98k6tS8W/jmrUAFJO8ZMQdmJZwgWrnpo56/HnjpRDHxBnx8nL3xbQBF+C85MV8FWzEBDJmKQRYAEqRBgZhNAFR9GQcW491uS+hzmCbPp+0Pjvpcpw/9BrlpAU1V1njETy+5SaIfeZkuMxcAMYEDsKd056Hl7u3aupnd/we2ZVbVffjqg5iAhMxN3UpUiMmuCoEjksBQwuwADR0+hi8qwSONx3Fx9nPSvHNmyMG7m6euH7835ASPh42m5sjXfyrzSc5q7Cp4B1pNhc2cwEo0G+c8AjSItUXPWK/xncz/6Eq965sLD5hmBg/C+cNXYxgH54Q4spccGxjCrAANGbeGLULBcQGx1uK12Ld4ZeleerVV44I/3gsnfAgIvz797Xpv/1evAZ/dsddOFaf69KtX34alNkLwBHRM3DdOPV74Ym/xDz83fXo7HHNht2qbrwfG4uj4eal3oQxsadrsjhGi5jYBwWMIsAC0CiZYpzSCJTU5+GN/Q+h1ICbPp9EHBN7JsTmwoHeoapc95Z/g/cPrkBje42qfrRsbPYCMMArBL+d/k/0841SxSa+/1ux7dYfi3dVXbm0cXrUVMxPvQkR/nEujYODU8BoAiwAjZYxxutSgdauZmzIfxsbCt4y5MKPk3izh9IcsyQAACAASURBVC3B6QMvgreHur3U3j34BDKKP0OnRFvgmL0AFBtDL0y/DVMSzlf1/wti4+4Psp7ClqOfqOrH1Y093b2xMO1WjO8/E8KGFwUo0DsBFoC9c+KvKKAIiM2OV2xbbtjVk2IO4g/JxWPuQ3rUFLip+P6voa0aL+35MwpqDkh1d5i9ABTfbI6Ino4lY/+qyl0sZNp2bB3eOfCoqn5kaCw+aVg28WGE+8XKEA5joIAhBFgAGiJNDFIGAfHt36t7/4YDx7+TIRyHYxB/WP569L0YEDLM4T5Ew0MnduKDrBWobJLrBBSzF4DCXrzuvGXS4whV8RrYDjuO1GThye23obunU9W9IEPjXw29GucmLVK9ql2GuTAGCjhDgAWgM5Q5hikEDlZsw/M77zb8XJLDx2Fh+q2ICkhQNZeNhe/hy/w30NxRr6ofrRtboQAUix/EnoAjoqaq4qtqKcPTGb9FVXOJqn5kaCz2Bvzt9OcRHTBAhnAYAwWkF2ABKH2KGKAMAmLj3BVbb8XxpiMyhKMqhknx52F28rUI9gl3uJ/O7g6szl6JbcWfSbP9y8nJWKEA9PHww5mJl2LW0F87nEPRsL6tCm/uf9iwx8L9fPLDo6Zj8Zg/wdOd3wKqujHY2BICLAAtkWZOUq3A53mvYt3hl9R2I0X7c5IWKeeoijNVHb2qW8rx/sEnkFW53dEudGtnhQJQ7IE3MuY0XDnq96peeYqnt2tyVmFr8Vrd8uHsjheP+TPGxJ7h7GE5HgUMJ8AC0HApY8DOFihpyMezGXehob3K2UNrPp6bzUPZMkMco+Xu5uFw/0dqs/Bh1kocrct2uA+9GlqhABR2iaHDcfWY+xDqG+EwZVtXCzYWvovPc19xuA/ZGsYGDsaySY8g2JubQ8uWG8YjlwALQLnywWgkE+i2dymvyHaXbjD0ti8nWf08g3Dx8NsxNvZMVdL7j2/GJ4eew4lmuRaAiElZpQAUhc5lI+7EwNBUh3PZ1dOhHGn4TqbxVwKfRBCn3IjTQc5JusJhFzakgBUEWABaIcuco8MChbUH8eqe+1HTetzhPmRqGOYXo+whlxY5SVVYW4s/w9rDq9DUXquqHz0aW6UAFFuezE29CSOjpznM2GPvwYHjm/Hq3vshikFzXDb0D0pSjjpUs0raHBacBQX+uwALQN4dFPgfAquzn8WWox9DbAFjhks8NboofTmGhI1yeDqiaBArgMVrw47uVof70auhVQpAsRL4vORrMDVhtirKvKp9yn6OTR3yFfOOTszfKxhzkq/D1AFzHO2C7ShgegEWgKZPMSfoqICsGx07Oh/RbkBIKhak3YxBoWkOd9PR3Y51uS9jY8E7EHvJyXZZpQD09QzEzMGXY2bS5apSUFR3SHkCWNVcqqofmRq72dyVzbKvHv1HVd+6yjQnxkIBrQVYAGotyv5MIyD2/RNbnZwwwR5pJ5MyJHyMsghEvCJz9GrpaMDawy9gs6RHiFmlAPRy98HpiRdjTvK1jqZSaVdcn4s39v0d5Y3G3+LopxD9g4di0ci7ERc0WJUPG1PArAIsAM2aWc5LlYB4srWh4B1syH8TLZ2NqvqSqXFKxETMTV2K2MBBDofV0F6NNTn/RMaxLxzuQ8+GVikAxWKHqQkXYEHaTRBPvBy9ShsK8Nb+h1Fcn+NoF1K2E9//XTjsRoyNU7fgScrJMSgKaCDAAlADRHZhPoH2rlZ8kPUUdpR8YYrVvyczlBo5CXNTlyFGxWkJNa0VWHPoeewu+1rKxFulABRF36T487EwfbmqvQDLGgvx9oF/oKj2oJT5dDQoHw9/nDX4UvxqyJUAbI52w3YUMK0AC0DTppYTUyMgjsh6P/MJZJ/IUNONdG3F5sEXptyICL9Yh2Orbj2uFIB7yjY63IeeDWcMWoB5KUtVFUU/je/5nffgYMUWPUN2qG8bbBgbdxYuTr9d1abeZQ2iAHwURXVZDsUhayM3mxsm9p+lHHvo6e4ta5iMiwIuE2AB6DJ6DiyzQFFdDlZnPYUjJnsqMirmDFyYcgPC/WIc5hdb4nwicQGo9RPAZ3f8DtmVMv5FwIYxMWfgkuG3w88ryOF8mrUAFCDDo6fhkvTbVR176DAsG1JAcgEWgJIniOG5RiCnahc+yn4GZQ0FrglAp1FHRM/AXPEE0D/O4RHEE0BRAO6V9Ang+LhzcNnI38LTTZvzYB/8fglK6/Mc9tKroQ1uGBc3ExcPvw3ibGBHLzMXgMnhY3FR+q2IVvHJg6OubEcB2QVYAMqeIcbnEgGxOe7Hkp50oQYkJXIi5qUsQ0zgQIe7qW2txCc5zyuno8h4xQcn47YpT0KsklV7iQVA9319Kdq6mtR2pXl78Q3glITZWJB2i6rX3Wb9BlCAD+43QvGJDx6quT87pIDRBVgAGj2DjF8Xgd2lXytFTm1rhS79u6rTYRETMC91mapVwI3ttVib809sO7bOVdP4n+N6uHnirukvIFpFkXtygP3Hv8cLu/4ISLjfoZjntAFzlXyK790cvcRZ1+K4w5L6w452IW27ASEpmJ92MxJD06WNkYFRwFUCLABdJc9xpRbYVfo11piwAEwKG6XsA6jmiYh4KvZpzgv4/ujH0uZQfAd4cfqtquN7avsdyK3apbofPTrwdvfFGYmX4Pzkxaq6L647jNf2/Q0VTUdV9SNj47igJMxLvQnJ4WNkDI8xUcClAiwAXcrPwWUV2FW64ccCsFLWEB2KS4uTQDq7O/B53ivYUPA27PYeh+LQu5F4PfrHM96AOC/XkUvsA7n/+Ga8tvd+dHa3O9KF7m38PINwzpBFOCvxElVjHanNxit7/4qalnJV/cjYOCFkGOan3ozB/YbLGB5jooBLBVgAupSfg8sqsK/8O3yS85ypjscS1tGBg7AwbTmGqngiIoqjb4+sxmeHX0RbV7OsKVSOvbt+/N8Q5N2vTzHa7XZUNB/DC7vulfqpWLBPOM5PXoLJ8bP6NL+f/ljkUpwF/OLu+9DSWe9wP7I2HNRvuPIN4IDgZFlDZFwUcJkAC0CX0XNgmQWyT+zAx9nPoryxUOYw+xxbqG80Lk6/DelRk/vc9qcNdpSsV04DqW+rUtWPno3FU0Cx7+Hsodcg3D+2V6dliKeb4ki0T3NfUl79dvd06Rmiqr7D/eMwP/UWDFeRyx57Nw4c/x6v7L1f6rk6CjUkbDQWpC9HXGCio12wHQVMK8AC0LSp5cTUCBTWHsTqrJU4WndITTfStfX1DFA2DhYbCIuNhB29sioz8HH2MzjeVORoF05p5+HmhaFhYzB5wGwMCklFoHfoLy6YEIWQKGZzq/Zha/FaJe/ddnmLP4Envm+7fOTvkKDi6VZnTwe2H1uH9zIfd0o+nD1IWuRkZZucfr7Rzh6a41FAegEWgNKniAG6QqCiqRjvH1yBw5IuAHDURKwWvTBlKWYMnAtRHDl6HavPw4dZT6Kg5oCjXTitnZizePIpXnsPDElBpH8CAryDlX0C27pb0dLRgOONRRBFf371ftS1GeG7TxuSwkZi8Zj7+vyK+6fw4hX+hsJ3sD73Naflw1kD2Wy2H/ZJTBf7JPo7a1iOQwHDCLAANEyqGKgzBVo6G/DBwaewu2wDeiRd6OCox9mDL8PMpCvg5xnoaBdoaK/F+wefwL7yb6XcIuWXJiZeCQd4BSPYJwJ+ngFwd/NUFni0djWjrrUSTR3iGzi7wybObOju5oExsWfhipF3wd3m7vDQYs5iv8sMSbf0cXhigLIP5OmDFmJ28rUQxSAvClDg3wVYAPKOoMAvCIii74u817Cp8D2pFzo4krwJ/c/FnGHXIcQnwpHmShvxynRNzip8V7Ra2lWyDk/OAA3FEy1RxJ+TdIWqaOvaTuC1ff+HvKrdqvqRsbGySGbotZiccJ6M4TEmCrhcgAWgy1PAAGQV2F22CWsOPQdx9q2ZLvFh/MXDb1d9PNbW4s/wWe6LaGirNhOPIeYiipvLR96F1IgJquI90VyKlRl3oqalTFU/MjaOCUzEpSPu4CbQMiaHMUkhwAJQijQwCBkFKptK8Nq+B0y3ECTMLw5Xj/4jBoamqGIvqsvB2wceNt15yapQnNQ4KiABt01+CgHeIQ6PKLaAya/aj5UZt5vuMwfAhuSIcbhu7P3w9vB12IgNKWBmARaAZs4u56Za4I39D0JsCt3d06m6L1k6EN++XT36XoyInt6rrVH+W9wd3W3KMWk5J3ZCFBO8nCMgFrWMiT0bvx79B1UDitf4W4rXmnIFsHhFLr51PXfIlaqM2JgCZhZgAWjm7HJuqgUOVGzFu5mPmu4156yhV+PMxEvg4+GnyujzvFexseAdtHW1qOqHjXsvIFZvi+1fxsfN7H2jX/hlV08H3s18AtuPfaaqHxkbR/j3x5Jx9yOW+//JmB7GJIkAC0BJEsEw5BRo72rDql33Ird6F8QJEWa5xNO/S4b/RtUWIsKioCYTr+69H7WtFWahkX4eQT7huGv6KtW5E1vAPLblZtNtdi5We0+MPw+Xj7hT+lwyQAq4UoAFoCv1ObYhBA5WbMOre/9qqqdcYX4xWDrhYYhvydRc4jXwqp334rDJCmQ1Jnq3nRh/PhaN/J3qYUob8vHo5hvRZaLPGwRKiE8kbpzwEOKCePqH6puEHZhagAWgqdPLyWkhII4D++FbwK+06E6KPsRTkmvH/hXDo6bAZnNTFZNYDSz2BBSvFHnpKyDyduvkp5DYL031QF8Xvquc5mK26/zka/GrIVeZbVqcDwU0F2ABqDkpOzSjQEXzMazYuhyN7TWmmd7pgy7ChSk3wsPNU9WcGttr8ejmZahpNd9WIqpgdGicGDoCyyc/DrERtNrryW23I696j9pupGofH5yMmyY+An+vYKniYjAUkFGABaCMWWFMUgpsLHwPH2U/LWVsjgQVFTAAv53+PLzd1W+T8dnhl/FF3iuOhME2fRBYMu4BjIye3ocWv/xT8c3mA99cBfEK3yyXOO3jxvEPITVyolmmxHlQQFcBFoC68rJzMwk0ddTh2Yy7UFyfY4ppideJyyc/gcH9RqieT3NHPf6y6Qq0djaq7osd/LJA/6ChuGXyY6qO8DvZ8/fFa/DegX+Yinps7Nm4bMSd3PfPVFnlZPQUYAGopy77NpWAWAV86MQOPLtD/Qf4ssBMSZij/KGpxbU+/w18mrNKi67Yxy8I/Hr0vcr5v2IfQLXXo1uW4WhtltpupGkvzrVePnkF4oIGSxMTA6GA7AIsAGXPEOOTSqCxvQ4fZq/EbpMsCPH1CMTfZn4IT3dv1c6tnc24/5sr0djOo+FUY/6sg6Sw0crGz2rObz7ZZWlDAR7bssw0r3/Fq99ZQxfjjEELVe9rqXXe2B8FZBZgAShzdhibhAJ25FcfwCt7/4r6tioJ4+t7SItG3YOJ/c/te8OftegWJ0scXYPV2SshVk7z0kZAfKMpNn4eGT1D9eIPcWLLJ4eexzeF76Pbbo4ciYUfwqd/UJI24OyFAhYRYAFokURzmtoJNHc24OuCd7Gp8F1T7KE2KDRdWVkqTphQe9W1ncBre/+GvOq9artie0DZomdc3EzMSV6CUN9I1SYNbdVYmXGnaTZ/FifZzBl2PSbHnw9Pd/X3r2pgdkABAwmwADRQshiqPAJHarPwYdZKHK3LlicoByPxcvfGDRMexNCwMQ728P+biSd/mRVb8P7BFWjgq2DVnmKj7gVpt2BYxHjYYFPd3/dHP8GnOS+gpbNBdV+u7kB4pEdNxYUpN6je0NzVc+H4FHCFAAtAV6hzTMMLiO0zvj2yGl8VvGX4la9iUcHomDNx5ajfq37FKBIrVkt/mf8Wvi9abYonpK66WcXChjMSL8ZpAxfA19NfdRhNHfV4c/+DyK7MQI+9W3V/ru4g1DcKs5OXYFzc2ZosjHH1fDg+BZwtwALQ2eIczzQCFU3F+CDrSeSc2Gn4OfXzjcavx/wRiaHpmsylpD4PH2U/g1yTbTSsCU4vOhFb9KRFTsa81GWI8I/rRYtT/2RP2Ubl+7+a1uOn/rHkv3C3eWBs3NmYm7oUgV4hkkfL8CggpwALQDnzwqgMINBj78H2Y59jXe5Lhl8QIr7/mxD/K1ySfhtE8aH26u7pxN7y7/BZ7ouoai5V253l2otNuhem34qh4WM0efXb1F6Hjw49g92lX5ti8Yd4Nb4w/TYkh4+13L3BCVNAKwEWgFpJsh9LCrR1teD1ff+HgxVbDP9aLSZwEBam344hYSM1yaV4Tb6h4B18c+QDw78m1wSkl534ewXhvKHXYkrC+aqP6Ts55J6yb7Am5zlUt5T3Mgp5fya2LJocPxvzUpdq5iPvbBkZBfQTYAGony17tohAbvU+vL73AYgVsEa+xGs1sTH0grSbNfkWUFiIIvCN/Q/hQPl3pnjypHd+xdPXaQPmYn7aMoh8aHGJp3+fHn4BW4s/hdgGxuhXuF8sbp70GML8Yow+FcZPAZcKsAB0KT8HN4vAm/sfxo6SLwz/FDA6YCAuTL0R6ZGTNUuN2Hrk+Z334Fj9YVMUIJrB/Kwjsao1JXISlk54ULMhRMG3t/xbvH/wCTS112rWr6s68nDzVLZ9OTPxYleFwHEpYBoBFoCmSSUn4kqB2tYKPLblJsM/BRSGUxJmY86w6xCg4cf1xxuLsGr3vahsOubKNEk7tnjyNyA0DTdNeFjTs2yrW48rCz/2lm2Udu59CSwuKAl3TnuOr377gsbfUuC/CLAA5K1BAY0EvjnyIVZnrYQdPRr16Jpugn3CcWHKjRgTc4Zmr4LFTI7UZePt/Y+YZhNirbIjir+kfiOxaNTvNdns+WRcXT2d2FW6Ae8dfByd3e1aheuyfrzcfbBk3ANIiRjvshg4MAXMJMAC0EzZ5FxcKtDZ04Gntt2OI7UHXRqHFoOnRk5SNiCO9O+vRXf/6qOgJhMfZz+DIhNsoK0FjHilOTRsLC5IuR6xQYmarPgVcYlXv2UNhXhj/4Moqc/VIlSX9zGh/yxcOepul8fBAChgFgEWgGbJJOchhcDhqj14Yde9aOtqliIeR4MQ28LMGno1Ths4X9NXknZ7DwpqM7E+7zUIK/F/W/XycvdFetRkzBx8hVL8iQ25tbrE0z9xUs3mox9r1aVL+xELPpZOeAhiexxeFKCANgIsALVxZC8UUASUP3izV2JzkfH/4BUnLVwx8i4MDRutnEmr1dVt71aeSm0sfBeZFdvQ2d2mVdeG6cfPMwhj487CjIHzEOkfr2nxJxD2lG3C2wceMfxfRE4mdH7qzZgxaD7cNdij0jA3CQOlgM4CLAB1Bmb31hIQr97EKRgv7/kLTjSXGH7yg0LTsWziI/Dx8NN0LuIosqqWMmw+ulZZPd3cUa9p/zJ3FugdiukD5in7/AX5hGn22vfknE80l+LpjDtMseefmFNS2CjlLyJi+xdeFKCAdgIsALWzZE8UUAQ6utux5egarM5eaXgR8VpyasIFuHj47ZrPRRTLrZ1N2FX6Nb7Kf8MUK6hPhSQW2MxOvg4jY6bD10P9+b4/H088XX0m47fIrdp9qlAM8e/Fwg+xOGZk9HRNTqgxxKQZJAWcJMAC0EnQHMZaAuWNR/Be5hPIr9ln+ImLVaqXj7wLE/ufq8tcRNGSX7NfOTu4rD7ftHsFJvUbjYXpyxEdOEC3YmZtzgvYWPiO8imCGa6J8edhdvK1CPEJN8N0OAcKSCXAAlCqdDAYswiIc4LFq833D65QTsMw+iWexCyfvAIDQpIB2HSZjngauPbwC9h+bB26ujtMUQiKJ6hiQc3ZSYswa8iVuriJTsVimj3l3+DDrCfRaIINn8WcQnyjcHH6bRgeNUU3N3ZMASsLsAC0cvY5d10FxCa8n+aswu6yjSZY7WqD2IR3ybi/6v4tVk7VLnyZ9yZKG/KUV8RGPL5MPDX19QxQFtCcmXgJBoQM03QhzU9vXFH8FdYexLuZj0E8eTbD5e7mgdMGLsCvhlylOPKiAAW0F2ABqL0pe6TAvwTEasw1Oc+b4oN8sWddetQ0zE+7CaE+EbpmubmzATtKvlJOsDjeVITWTrGtjvzn2Ionfv5ewegfPBQjo2dgVMwM+HsG6WYliuPjjUfxUfbTEIWzWbbViQ9OxrzUmzAkbKRuduyYAlYXYAFo9TuA89dVoKWjEWsPr0LGsc8hNoo2+uXj4Y+J8bNw9uBLEaJzEShWCh9vKsa+8m+RX71PebolVgvL+UTQBrG6Nz54KNIiJyn7+/XzjdY93dUt5ViX+wr2lG1ElwnuLwHm6xGAMxIvxjlJl8PdzVN3Qw5AAasKsAC0auY5b6cJ5Ffvx3uZj6O8yRyv50ShMyVhDqYPnItg7zDdHcUxZpXNJRCniIhC8GjdIdS0Htd93N4OIPbxiw9JRnLYWAzql4Yo/wTYbPp8J/nTmBraqvFVwdvKN5NG33j85LzEfpOD+43E5SPuRITGp9D0Np/8HQWsIsAC0CqZ5jxdJiBWZH6R+xq+KfoA7V0tLotDy4GDvMOUjXmnJVwAfy/9XnH+NGbxRLCmtQIVjcUoqDmgnC1c1lCAls4GLafWq77E/OOCh2BAcDIS+6UrJ1T0843qVVstfiTmvD7vDWw/9rlL5q/FHH6pD/H6XJxDPTn+PL2GYL8UoMCPAiwAeStQwAkCta2VeH7nH5SFDUb4lq03JKIIOnPwJZiaMEfzjaJPNb5YHFLfXq18W1lUm43i+lxlA+7GjhpdvoMTizqCfSLQP2iIshI6ITgZYf6xCPIOhXgt7sxL/IVCbJmzs/RLZZGMWS7x9C8tYjKuGn0PF36YJamch9QCLAClTg+DM5NARsmXeOfAI6b5VkvkRhxpdtqgBTg3aRHEyk1nX2LRQ3t3G9q7WpXtT060lOBYfR7EaRhlDYVKQdjW1QS7vfcLSMRxY94eAcoTvajABIT7xSlFX4RfHPy8guDt7gtPd2/Nj2/rrd07mY9jZ8kXpthe6KdzFlsN3TLpcQwMTe0tBX9HAQqoEGABqAKPTSnQFwHxCnPF1ttRWLu/L82k/+0PW3ZchHmpS10cqx09drvyBFD5T0832rtble8F69qq0NRRj9bORnQr/30bWjrqEeAdCk83T3i4eyHAKxgBnsHKkz6xytnLw0fZukX5j81Nt21ceovW3dOF1/b9HfvKv4G4l8x2zRg4HxelLXfK95Nms+N8KOCIAAtAR9TYhgIOCoiVrA99twTd9i4He5C32cT+s3DJ8Nvh6e6l22bR8s5ev8jE08uG9mq8deBRHDqRocsrbv2i713PYuXvA2d/qBTdvChAAecIsAB0jjNHocC/BD44+BS+LfrQNN8CnpyYeEqWGjkZc1NuVDaLdsUrYbPdZmJrl+K6w1iT808cqc0y5ZM/d5uHctb0lITZZksf50MBqQVYAEqdHgZnRgGxfcdjW29GdUuZ6aYnFkskhAzDOUmLMCRslNMXh5gJVGx+nX0iA1/mv6GsdjbrNSRsDG6c8CC83L3NOkXOiwJSCrAAlDItDMrMAuL7rW3F6/BB1pOmWhDy05yJPdzEN11jYk5HkI/+ewWa6X4R3zCKVePiCMGtxZ+iqqXUTNP7t7kEeIXgqtF/wLDwcS7/xtK0yJwYBf6LAAtA3hoUcIFAfVs13j7wCLIqt7lgdOcMKbaJGRVzOibGn4u4oMEQr/p4/W+BHnuPssehKPyyKzNMtcffL81c/CXh/ORr4OcZyFuDAhRwsgALQCeDczgKCAGxCORgxVa8m/mYsn2JWS9Pdx/EBw9RTg4ZH3c2xCtiXr8sIF757ij5EjtKvkBJQy5EMWjmKzpwIC4dficSQ9O58tfMiebcpBVgAShtahiY2QVE4fd53iv4vuhjs08Vob5RSImYgBkD5ylPA3n9u0Be9X58e+RDFNYeMPVfCE7O2sPNE7OGXo3TBi6At4cvbwcKUMAFAiwAXYDOISkgBMT2HjlVu7A6ayWONxWZHsXDzQuhvpE4bdBFytNAvvYD6tuqlOPcdpSsR1VLmSlX+f7SjZ0cPhZzU5ehf1CS6e97TpACsgqwAJQ1M4zLEgKdPR34IvdVbCh42zJ/+Hu6eSMuKEn59is5fIwlP/7v6G5DZsVWbCh4C2JvSLHJs1UuX89AnD/0GswYONeSubdKnjlP+QVYAMqfI0ZocgFxdNnq7KeQX22uE0JOlTZvDz+kRU7GmYkLERs0GOK1oA22UzUz7L8XT3w7etpQUp+PrwveUbZ46e7pNOx8HAlc5HdE9HQsTL8VwT7hjnTBNhSggEYCLAA1gmQ3FFAjIJ4AfpX/Jlo6G9V0Y8i2/l4hGBkzA1Piz0eYX7TyathMi0W6ejqVvJY2FGD7sS9wsGKz6c7x7e2NJ85XnjPsBoyLO6u3Tfg7ClBAJwEWgDrBslsK9EWgru2Esi1MzoldlnkV/HMff69QpEdOQnrUZMQGJSLYO9ywCwTssKOtqwV1rSdwtO4QMiu2IKtimymPAOztfS6e8I6OPROXDv8NvNx55Ftv3fg7CuglwAJQL1n2S4E+Cuwq3aAsCGnsMO+2ML0hEcVBYr8RykkiA0JSEOEfC7GnoCggZL/E077atkpUNh1DUd0h5FfvQ1Fttmk3/O5LPsTm4ItG3YPE0LS+NONvKUABnQRYAOoEy24p0FeB9q5WvH3gUewt32j6PeB6YyNWDYf7xSE2aBASgpOV7wSjAuKVLWVk+law296N2tbjON54FOWNRThafwil9QWobauw1OKO/5VTcS702YMvVxb+yJS73tyH/A0FzCrAAtCsmeW8DClQ0pCPldvvQHNHnSHj1ytoXw9/hPhGQXxD1j94CKL8EyA2Eg73i4GvZ4Bew/5iv+L1bnNHPapaynG8sQjlTUU43ngE1S3lqGurQntXi1PjMcJgMYGJWDbxYYT4RBghXMZIAUsIsAC0RJo5SaMIiOLi89xX8Xnuy0YJ2elxern7wt8rEP6ecmf33AAADulJREFUwQj0DkVUwABEBSQg3D8OEX4xCPAK1fTbwZbOJjS116KypRRVzWWobC5WXvGKV/WiEBQLPDq7253uYKQBl4y9X1now4sCFJBHgAWgPLlgJBRQBFq7mvHw99ejqrmEIqcQEK8TPdy94OXuDfHK2NPNCwHeoejnG4Mg734I8g5VikQ/ryD4evrDy80booB0s9kA+w+dd6MH4vV7l70DLR1NSlEnTmkRBV5Dew1ONB9DW2czOnra0dXdAbF3o/inKNZ5nVogNXIyrht3vyG+4Tz1bPgLCphHgAWgeXLJmZhIIKtiO57beZeJZuS8qYii0GZT/idgc1P++cP/La6T+wyKf/68gPuhpBP79dnRI/4XpcjrsSv/rfMmYKKR3Nw8cO9prysLeXhRgAJyCbAAlCsfjIYCioB4pfjynr8is2IzRShgSAFRcs8csgjnDbkaYhEILwpQQC4BFoBy5YPRUEAREE+ejtbm4Jkdd6K1s4kqFDCcQFTAQCyd8CDC/GIMFzsDpoAVBFgAWiHLnKMhBUTh91XBW8qxYT32bkPOgUFbU0Ds5Tg/9WZM6H8uPN29rInAWVNAcgEWgJIniOFZW0BsC/Pm/odRUn/Y2hCcvaEE0iOnYH7azYjwjzNU3AyWAlYSYAFopWxzroYTaO9uw5aja5VtYdq6mg0XPwO2nkCwTzjmpizF6JjT+e2f9dLPGRtIgAWggZLFUK0pcLzpKD7OfhZZldusCcBZG0bAzeaOif1nKSd+BPuEGSZuBkoBKwqwALRi1jlnQwl093RhR8l6rMt9GXVtJwwVO4O1loA48WNu6lKkRIznkW/WSj1na0ABFoAGTBpDtp5AU0c9Pji4AnvKNv2wRx0vCkgm4OnujWkD5mJO8hIu/JAsNwyHAr8kwAKQ9wUFDCKQXZmBD7KeUk6m4EUB2QQSgpNx5ah7lDOaeVGAAvILsACUP0eMkAL/EhArgneVfomunk6qUEAaAR8Pf5w1+DL8asiV0sTEQChAgf8twAKQdwgFDCRQ3liEl/bch+ONRQaKmqGaWUCc+DEgJAVLJz4MP89AM0+Vc6OAqQRYAJoqnZyMFQTW57+hbAsjFofwooCrBbw9/LBo5O8xKmaGq0Ph+BSgQB8EWAD2AYs/pYAMAs0d9Xhmx10orjskQziMweICo2LOwOIxf4Kbzc3iEpw+BYwlwALQWPlitBRQBLIqM7Bq5z3otvMpIG8J1wkEeIdi+aQnEMOFH65LAkemgIMCLAAdhGMzCrhSQJwN/Pr+B7Gr5EtXhsGxLS5wwbAbMDPpcosrcPoUMKYAC0Bj5o1RUwAVTcVYse02NLZXU4MCTheIDxmGpeP/D4He/Zw+NgekAAXUC7AAVG/IHijgEgHx+vfbIx/io+xnXDI+B7WugM3mhmvH/BUjoqdC/O+8KEAB4wmwADRezhgxBf4lUN1Sjpf2/BnFdTlUoYDTBMbFnYP5qcsQ6B3qtDE5EAUooK0AC0BtPdkbBZwq0G3vxr7yb/Ha3gcgvgvkRQG9BQK8QnHtuL8gqd9IvYdi/xSggI4CLAB1xGXXFHCGQE1rBdbk/BN7Sr+GHXZnDMkxLCrgbvPAmYMvwdmDL+Omzxa9Bzht8wiwADRPLjkTCwtkVmzF+wefQG1rhYUVOHW9BeKDh2JB2i0Y3G+E3kOxfwpQQGcBFoA6A7N7CjhDoLGjDuvzXsOWo2vR1dPhjCE5hsUEfD0DlCd/pw+6CF7uPhabPadLAfMJsAA0X045I4sK5FXvw+rsp1FSn2tRAU5bLwFx3m9yxDjMT72Zmz7rhcx+KeBkARaATgbncBTQS6Cjuw1f5b+Fb4s+RGtnk17DsF8LCgT7hGPW0MWYHH8ej3yzYP45ZXMKsAA0Z145K4sKnGguwWv7/o6i2iyLCnDaWgu42dyRHjUFl4/8Hfw9g7Tunv1RgAIuEmAB6CJ4DksBPQTs9h5sLv4Unx1eheaOBj2GYJ8WExBP/xaNugfDwsdabOacLgXMLcAC0Nz55ewsKCBOCFm5/Q4UVO/ntjAWzL+WUxZP/yb0PxeXjfgtX/1qCcu+KCCBAAtACZLAECigtUBezX48v+NutHe1aN01+7OQgJ9nEO457SUE+0RYaNacKgWsIcAC0Bp55iwtKPD6vgexo+RzC86cU9ZCQJzxOzd1Gc4ctFCL7tgHBSggmQALQMkSwnAooJVAXdsJPLr5RtS3VWnVJfuxkEB88DDcMe0ZuNvcLTRrTpUC1hFgAWidXHOmFhT4rugjfJj1JHrsPRacPafsqICPhz+uHXc/F344Csh2FDCAAAtAAySJIVLAUQGxH+CqXfcir3qvo12wnQUFpiTMwcL05fBw87Lg7DllClhDgAWgNfLMWVpUQGwLk31iB17b+3e0dNZbVIHT7otApH8Cfj36XsSHDIU4AYQXBShgTgEWgObMK2dFgX8JtHY246v8N/FVwZtUocD/FBBP/Oan3oRJ8bPg6e5NLQpQwMQCLABNnFxOjQJCwA47KhqL8fGhZ5FVuY0oFPivAlMSZuO8oYshNn/mRQEKmFuABaC588vZUUAREEVgfvUBfJT9NI7VH6YKBf5DIC1yEi5MuRHRgQP56pf3BwUsIMAC0AJJ5hQpcFIgqzIDa3KeR3lDIU8J4W2hCIj9/gaFpmFuylLln7woQAFrCLAAtEaeOUsK/EvgwPHN+DzvVZQ1FKDH3k0ZCwuIPf4G9RuBOcOWIDE03cISnDoFrCfAAtB6OeeMKYDDVXuwPv91FNYcQHdPF0UsKODt4YehYaNxXvI16B+UZEEBTpkC1hZgAWjt/HP2FhYoazyCTYXvIatyOxrbaywsYb2ph/vHYVzsTEwdMAchXPBhvRuAM6aA+PzDbrfbKUEBClhToKWzEfvKv8WO0i9RVJOFbjufBpr5ThAnfCSFjcKE/udiRPQ0HvNm5mRzbhQ4hQALQN4iFLC4gNgsurg+F5kVm7G//HtUNB3lAhGT3RPubp6IC0rCuLizkBoxEZEB8Vzpa7IcczoU6KsAC8C+ivH3FDChgNgmpq2zGaUNBThYuQ37j3+P6pYyiOKQl3EFROEXGzgYY2LPwNDwMYgOSICXu49xJ8TIKUABzQRYAGpGyY4oYHyBHnsP2rtaUNNaidzqPcg8vhkFNfsh/ntexhEQRd6QsDEYFXMahoSNRIB3iFL48Wg34+SQkVJAbwEWgHoLs38KGFLAjm57j7JCWOwZmFezH3lV+1DWWIC6tkpDzsjMQYu9/ML9+iMmcBBSIscjKXQEwvyi4e7mATebu5mnzrlRgAIOCrAAdBCOzShgNQGxQKSquRwnmktQ116Flo5GqxFIN18bAH/vEIT6RCAqIAEhPhFws7lJFycDogAF5BNgAShfThgRBShAAQpQgAIU0FWABaCuvOycAhSgAAUoQAEKyCfAAlC+nDAiClCAAhSgAAUooKsAC0Bdedk5BShAAQpQgAIUkE+ABaB8OWFEFKAABShAAQpQQFcBFoC68rJzClCAAhSgAAUoIJ8AC0D5csKIKEABClCAAhSggK4CLAB15WXnFKAABShAAQpQQD4BFoDy5YQRUYACFKAABShAAV0FWADqysvOKUABClCAAhSggHwCLADlywkjogAFKEABClCAAroKsADUlZedU4ACFKAABShAAfkEWADKlxNGRAEKUIACFKAABXQVYAGoKy87pwAFKEABClCAAvIJsACULyeMiAIUoAAFKEABCugqwAJQV152TgEKUIACFKAABeQTYAEoX04YEQUoQAEKUIACFNBVgAWgrrzsnAIUoAAFKEABCsgnwAJQvpwwIgpQgAIUoAAFKKCrAAtAXXnZOQUoQAEKUIACFJBPgAWgfDlhRBSgAAUoQAEKUEBXARaAuvKycwpQgAIUoAAFKCCfAAtA+XLCiChAAQpQgAIUoICuAiwAdeVl5xSgAAUoQAEKUEA+ARaA8uWEEVGAAhSgAAUoQAFdBVgA6srLzilAAQpQgAIUoIB8AiwA5csJI6IABShAAQpQgAK6CrAA1JWXnVOAAhSgAAUoQAH5BFgAypcTRkQBClCAAhSgAAV0FWABqCsvO6cABShAAQpQgALyCbAAlC8njIgCFKAABShAAQroKsACUFdedk4BClCAAhSgAAXkE2ABKF9OGBEFKEABClCAAhTQVYAFoK687JwCFKAABShAAQrIJ8ACUL6cMCIKUIACFKAABSigqwALQF152TkFKEABClCAAhSQT4AFoHw5YUQUoAAFKEABClBAVwEWgLrysnMKUIACFKAABSggnwALQPlywogoQAEKUIACFKCArgIsAHXlZecUoAAFKEABClBAPgEWgPLlhBFRgAIUoAAFKEABXQVYAOrKy84pQAEKUIACFKCAfAIsAOXLCSOiAAUoQAEKUIACugqwANSVl51TgAIUoAAFKEAB+QRYAMqXE0ZEAQpQgAIUoAAFdBVgAagrLzunAAUoQAEKUIAC8gmwAJQvJ4yIAhSgAAUoQAEK6CrAAlBXXnZOAQpQgAIUoAAF5BNgAShfThgRBShAAQpQgAIU0FWABaCuvOycAhSgAAUoQAEKyCfAAlC+nDAiClCAAhSgAAUooKsAC0Bdedk5BShAAQpQgAIUkE+ABaB8OWFEFKAABShAAQpQQFcBFoC68rJzClCAAhSgAAUoIJ8AC0D5csKIKEABClCAAhSggK4CLAB15WXnFKAABShAAQpQQD4BFoDy5YQRUYACFKAABShAAV0FWADqysvOKUABClCAAhSggHwCLADlywkjogAFKEABClCAAroKsADUlZedU4ACFKAABShAAfkEWADKlxNGRAEKUIACFKAABXQVYAGoKy87pwAFKEABClCAAvIJsACULyeMiAIUoAAFKEABCugqwAJQV152TgEKUIACFKAABeQTYAEoX04YEQUoQAEKUIACFNBVgAWgrrzsnAIUoAAFKEABCsgnwAJQvpwwIgpQgAIUoAAFKKCrAAtAXXnZOQUoQAEKUIACFJBPgAWgfDlhRBSgAAUoQAEKUEBXARaAuvKycwpQgAIUoAAFKCCfAAtA+XLCiChAAQpQgAIUoICuAv8PkP+5T3f7S6MAAAAASUVORK5CYII=;" vertex="1" parent="1">
          <mxGeometry x="-48" y="334" width="108.45" height="61" as="geometry" />
        </mxCell>
        <mxCell id="auokp5sfF3vydT2iOztg-31" value="" style="image;sketch=0;aspect=fixed;html=1;points=[];align=center;fontSize=12;image=img/lib/mscae/Docker.svg;" vertex="1" parent="1">
          <mxGeometry x="-83" y="309" width="50" height="41" as="geometry" />
        </mxCell>
        <mxCell id="auokp5sfF3vydT2iOztg-32" value="" style="rounded=0;whiteSpace=wrap;html=1;" vertex="1" parent="1">
          <mxGeometry x="119" y="325" width="128" height="89.5" as="geometry" />
        </mxCell>
        <mxCell id="auokp5sfF3vydT2iOztg-33" value="" style="shape=image;verticalLabelPosition=bottom;labelBackgroundColor=default;verticalAlign=top;aspect=fixed;imageAspect=0;image=data:image/png,iVBORw0KGgoAAAANSUhEUgAAAoAAAAFoCAYAAADHMkpRAAAgAElEQVR4Xu3dB3gVVd4/8O9N74X0hAQIgZBC79WKLgpKESu6olhARV3d1XXddXd197WtimJb7L2igqIogoUWOoSEkEYIKSSk937/zxll/67rLsmdmXvPzHxnn+f1fdd7zvmdz2/ehx8zc86x2e12O3hRgAIUoAAFKEABClhGwMYC0DK55kQpQAEKUIACFKCAIsACkDcCBShAAQpQgAIUsJgAC0CLJZzTpQAFKEABClCAAiwAeQ9QgAIUoAAFKEABiwmwALRYwjldClCAAhSgAAUowAKQ9wAFKEABClCAAhSwmAALQIslnNOlAAUoQAEKUIACLAB5D1CAAhSgAAUoQAGLCbAAtFjCOV0KUIACFKAABSjAApD3AAUoQAEKUIACFLCYAAtAiyWc06UABShAAQpQgAIsAHkPUIACFKAABShAAYsJsAC0WMI5XQpQgAIUoAAFKMACkPcABShAAQpQgAIUsJgAC0CLJZzTpQAFKEABClCAAiwAeQ9QgAIUoAAFKEABiwmwALRYwjldClCAAhSgAAUowAKQ9wAFKEABClCAAhSwmAALQIslnNOlAAUoQAEKUIACLAB5D1CAAhSgAAUoQAGLCbAAtFjCOV0KUIACFKAABSjAApD3AAUoQAEKUIACFLCYAAtAiyWc06UABShAAQpQgAIsAHkPUIACFKAABShAAYsJsAC0WMI5XQpQgAIUoAAFKMACkPcABShAAQpQgAIUsJgAC0CLJZzTpQAFKEABClCAAiwAeQ9QgAIUoAAFKEABiwmwALRYwjldClCAAhSgAAUowAKQ9wAFKEABClCAAhSwmAALQIslnNOlAAUoQAEKUIACLAB5D1CAAhSgAAUoQAGLCbAAtFjCOV0KUIACFKAABSjAApD3AAUoQAEKUIACFLCYAAtAiyWc06UABShAAQpQgAIsAHkPUIACFKAABShAAYsJsAC0WMI5XQpQgAIUoAAFKMACkPcABShAAQpQgAIUsJgAC0CLJZzTpQAFKEABClCAAiwAeQ9QgAIUoAAFKEABiwmwALRYwjldClCAAhSgAAUowAKQ9wAFKEABClCAAhSwmAALQIslnNOlAAUoQAEKUIACLAB5D1CAAhSgAAUoQAGLCbAAtFjCOV0KUIACFKAABSjAApD3AAUoQAEKUIACFLCYAAtAiyWc06UABShAAQpQgAIsAHkPUIACFKAABShAAYsJsAC0WMI5XQpQgAIUoAAFKMACkPcABShAAQpQgAIUsJgAC0CLJZzTpQAFKEABClCAAiwAeQ9QgAIUoAAFKEABiwmwALRYwjldClCAAhSgAAUowAKQ9wAFKEABClCAAhSwmAALQIslnNOlAAUoQAEKUIACLAB5D1CAAhSgAAUoQAGLCbAAtFjCOV0KUIACFKAABSjAApD3AAUoQAEKUIACFLCYAAtAiyWc06UABShAAQpQgAIsAHkPUIACFKAABShAAYsJsAC0WMI5XQpQgAIUoAAFKMACkPcABShAAQpQgAIUsJgAC0CLJZzTpQAFKEABClCAAiwAeQ9QgAIUoAAFKEABiwmwALRYwjldClCAAhSgAAUowAKQ9wAFKEABClCAAhSwmAALQIslnNOlAAUoQAEKUIACLAB5D1CAAhSgAAUoQAGLCbAAtFjCOV0KUIACFKAABSjAApD3AAUoQAEKUIACFLCYAAtAiyWc06VAXwV67N3Irz6AI3XZKKrNQk3rcTS0VaOrp7OvXfH3GgvYYIOnuw+CfcIR7heLQf3SMCgkFQNDUzUeid1RgAJmE2ABaLaMcj4UUCnQY+9Bd08njtXnYnfZJhyo2Iy61gqVvbK5MwViAhMxMnoGRkZPR1RgAjxsHrDZ3JwZAseiAAUkF2ABKHmCGB4FnCXQbe9CQ1sNCmozsaNkPQqqD6Cju9VZw3McHQR8PAKQGjkRE/qfiwEhyfDzDISbzV2HkdglBShgNAEWgEbLGOOlgMYCdtjR0F6DotpsbC3+FPnV+9DR3abxKOzOlQL+XsFIi5yMcXFnISF4GPy9AgHYXBkSx6YABVwswALQxQng8BRwpYB43XukNgsZJV/gYMVWNLbXuDIcjq2zQJhfjPJqeGzc2UgIHqrzaOyeAhSQWYAFoMzZYWwU0FGguaMee8q/wfZjn6O47pCOI7FrmQTEwpGksFGYNuBCDI+aCk93L5nCYywUoICTBFgAOgmaw1BAJoHK5hJsLHwP+8q/RXNHnUyhMRYnCYT5xSrfBk5LmIMgnzAnjcphKEABWQRYAMqSCcZBAScJHKvPw/r815FduR2d3e1OGpXDyCjg6xmgvBL+1dBfI8w3WsYQGRMFKKCTAAtAnWDZLQVkFDhal4N1uS8jt2o39/GTMUEuiMnT3RujY87A+cnXoJ9vlAsi4JAUoIArBFgAukKdY1LABQIVTcVYk/NPHKzYArH4gxcFTgqIrWGmJJyP84Zeg0DvUMJQgAIWEGABaIEkc4oUaGyvxRd5r+K7oo+IQYFfFHCzeeC85MU4feACeHv4UokCFDC5AAtAkyeY06NAZ08HMo59gQ8OPoFuezdBKPBfBQK8Q3H5iN8hLXIiN4zmfUIBkwuwADR5gjk9awuITZ6L63Lx6t77caL5mLUxOPteCSSFjcblI36LCP+4Xv2eP6IABYwpwALQmHlj1BTolYB4+vdu5uPIOLauV7/njyggBOYMux5nJV4CdzcPglCAAiYVYAFo0sRyWhQQAtmVGXhx9594tBtvhz4JhPpG4sYJDyE2MLFP7fhjClDAOAIsAI2TK0ZKgT4JtHW1YsW25Sipz+1TO/6YAkJgTOxZWDzmT8SgAAVMKsAC0KSJ5bQo8GX+W1ib808AdmJQoM8CYn/Aa8b8BelRk/vclg0oQAH5BVgAyp8jRkiBPgucaC5Vnv7Vt1X1uS0bUOCkQHTAINw5/Tl4u/sQhQIUMJkAC0CTJZTToYAQeGXPA9hb/jU3fObtoErAw81TOSbu3KQrVfXDxhSggHwCLADlywkjooAqgewTO/DW/of49E+VIhufFAj3i8XSiQ8j0j+eKBSggIkEWACaKJmcCgVaO5vw6t4HkH0iA3Ye98YbQgMBDzcvjO9/LhamL4enm5cGPbILClBABgEWgDJkgTFQQAOBHns3Nh9di/V5r6KhvUaDHtkFBX4QiPCPx0VptyA1ciJJKEABkwiwADRJIjkNCpQ1HsEHB59EXvUeYlBAUwE3mztGx56BeanLEOwdpmnf7IwCFHCNAAtA17hzVApoKtDe1YpNR97H1wXvoK2rWdO+2RkFhECwTzjOG3oNJsb/Cu42d6JQgAIGF2ABaPAEMnwKCIGCmgP4MOspHOOmz7whdBRIiZiIualLERs4SMdR2DUFKOAMARaAzlDmGBTQUaCpow5f5r+J74pWo7unS8eR2LXVBbzdfXF+8rWYOmAOvLg3oNVvB87f4AIsAA2eQIZvbQG73Y7cqj14Zd/9aGqvtTYGZ+8UAXE+8KJRv0d88FCnjMdBKEABfQRYAOrjyl4p4BQBsdr3vYNPYH/5t04Zj4NQwAYbZg65EmcPvhS+Hv4EoQAFDCrAAtCgiWPYFBD7/B04vhkv7P4jMSjgVAEvdz8sn/I4BgQnA7A5dWwORgEKaCPAAlAbR/ZCAacLNLbX4umMO1HakO/0sTkgBUZEz8CVo34PHw8/YlCAAgYUYAFowKQxZAoIgS/yXsdnh18gBgVcJnDd2AcwIma6y8bnwBSggOMCLAAdt2NLCrhM4HhTER7bcjNaOxtdFgMHpkBM4CDcPOkxBHn3IwYFKGAwARaABksYw6VAV08nXtn7APaXf0MMCrhcYGbSlbhg2BKXx8EAKECBvgmwAOybF39NAZcL7CnbiDf3P4SO7jaXx8IAKBDoHYYbxv8dA0KGEYMCFDCQAAtAAyWLoVKgob0aL+66D0dqD8IOO0Eo4HIBN5sbxIKQq0f/Ee5uHi6PhwFQgAK9E2AB2Dsn/ooCUgisy30VmwrFeb8tUsRjxCACvEMR7B0GcapFS1czGtqr0NLRYMSpSBNzoHc/zEtZhvH9Z0oTEwOhAAX+twALQN4hFDCIQElDPt7a/zCO1R82SMTyhOnt4Ych4WMwNuYMDO43En5eARAbGouTVJo66lFQewAZx75AfvV+9Nh5nF5fMycsh4SNwuKxf0aAV0hfm/P3FKCACwRYALoAnUNSoK8C4ozf1dnPYEvxGnT3dPa1uWV/LwqT6MBBuDDleqRGTlKKvv92tXe1YF/5d9hQ8DYqmoshNtrm1XsBX89AnD34MswcfBlsNrfeN+QvKUABlwiwAHQJOwelQO8FxFOqg5Xb8Mmh51HRVNT7hhb/pSj2EvuNwCXDf4OYwIG91jhSm6VYi+8se+zdvW7HHwKD+43AgvTliA8aQg4KUEByARaAkieI4VGgvq0Ka3NWIaNkPcCFH72+IeKDh+LqMfch0r9/r9uc/GFh7UG8l/k4yhoKuNimD3oe7l44Y9DFOCfpCp4Q0gc3/pQCrhBgAegKdY5JgV4KiNe9u8s2YU3Oc6hvq+5lK/5MvI68ftzfkBQ20mEMUXC/l/kYt9vpo6B45T4/9SYMCx8Hm43nBPeRjz+ngNMEWAA6jZoDUaDvAieaS/Bh1kpkVW7re2MLt5iScAEuG3GHKoHO7g48t+Nu5FbvVtWP1RqLV+9TBszBeUOvRpB3mNWmz/lSwDACLAANkyoGajUBsdHztmPrsObQ83wK1Yfke7p54zfTnkH/oKQ+tPrln+4u3YhX9v5FdT9W6yDQO1T59jI9agrcbdwb0Gr553yNIcAC0Bh5YpQWFKhoPoZ/7rwHlU3FFpy941MW3/7dOvlJeHv4Ot7Jjy2bOxrw542Xoa2rSXVfVutgWMR4XDHyboT4hFtt6pwvBQwhwALQEGlikFYTEOf9rj28CpsK3uMihD4mf1zcTFw+8nfwdPPqY8v//Lk4beXh765HSUOu6r6s1oGHmycuSr8Nk+Nnwc3mbrXpc74UkF6ABaD0KWKAVhQobyzCQ99fC7H/H6++CcwYtADzUpZCFCBaXM/u+D2yK7dq0ZXl+gj2CccfTnsNvp7+lps7J0wB2QVYAMqeIcZnOQGx99zK7Xcir3qP5eauxYSnD1yA+anaFYDP7bwHWRVbtAjNkn2ckXgJ5qUu/Z+bcFsShpOmgIsFWAC6OAEcngI/F9hTtgkv7/kzYRwUmD5wPuanLtPsCSALQAcT8WMzcSrI3dNfRGxQorqO2JoCFNBUgAWgppzsjALqBBraa/D41ltQ1VyiriPJWovXsT4e/vBy91G+aWzvakN7VzO6dTh31wgFoPgmTniIV6Pubp7KmcSd3e1o7qxX/mm2a1j4BCwZ9xeIM5l5UYACcgiwAJQjD4yCAui2d+Ozwy9hY+E7pvn2z98rGNEBAxEXnKScyBHoFaocr1bfXoOKpqMobchHRVMxxDm8Wl0yF4BuNjeE+kYhISQFCcHJCPeLUQpBkXux4ri8qRBFtdkobShAa2ejViQu78fDzQsXp/8GkxNmuTwWBkABCvwgwAKQdwIFJBEoqD6A1/f/HdUt5ZJE5HgY4rVfdMAAiBW5KZETEBMw8D9eybZ1NaO0oRCZFVuwq/SrH086sTs+6I8tZS0ARfE3LGICJsbPwuDQ4Qjy6fcf38WJJ4FljT+Y7Cz9yjRbAInNofsHJ2PxmPsQ4R+rOsfsgAIUUC/AAlC9IXuggGqB1q4mvJ+5AnvLN0FsAWPkS2zEnBQ2CtMHzsWQsFGnPBO2qaMOmce3Yl3uS6hrO6F66rIWgGNiz8I5SYsQ14tv4dq6WpBdmYHvilbjSG2W8tTU6JfYl3HGwIswO/kaiGKYFwUo4FoBFoCu9efoFFAEdpR8qez7V9daaWgR8Y3fuLhzcGbiQoT7xcLdrXenQIjv3vaUb8I7B/6Brp4OVQYyFoADQtKweOyfEOYb3eu5dfZ0oKyhEJsK30dmxWYTnAZjQ0zgICxMv1X5iwEvClDAtQIsAF3rz9EpgJqW41idvVJ57ddj7zGsiCj2zkm6EjMGzkOAV3Cf5yGKwLcyH8Wuki/73PanDWQrAMUij9unrMSAkGF9npfd3oPGjnp8VfA2thWvQXtXa5/7kKmBuEcm9p+FeanLTvlkWKa4GQsFzCjAAtCMWeWcDCXwzZEP8dnhFyG+iTPyddnI32Fi3Lm9fur3S3OtbanEnzddquqVp2wF4Ni4s3HFiN/B093b4fSKzwI2FLyDL/JeMfwCoX6+Ubgg5QaMjT3LYQ82pAAF1AuwAFRvyB4o4LBAcX0uPsp+GvnV+xzuw9UNxWvfq0b9ASNjZmgSytMZdyLnxE6H+5KrALRh8Zg/YVTM6Zp89yb+svDJoedUvyZ3GFejhqIovnDYDQj1jdSoR3ZDAQr0VYAFYF/F+HsKaCQgXudtOvI+1uW+DPGqz4iXOOrrkuG/QVrkZE0KHGGwPv8NfJqzymEOmQpAX89ALJ/0BPoHJzk8n5833Hbsc6w59BzE4hmjXj6eAZiXsgwT+6t7YmzU+TNuCsggwAJQhiwwBssJiIKvoCYTb2c+atCtPmzKHnZzUq7HiKhpmp26IW6EjNIv8cbevzl8T8hUAPbzjcHNk/6BCP84h+fz84ZiRXBGyXp8nvsKalsrNOvX2R0NCRuNi9JvRWzgIGcPzfEoQAHuA8h7gAKuERCb/q49/AK2HP3ENQGoHDXSPwG/GnIVRsZMV0730PLaemwd3t7/kMNdylQAiiekt0x6HFEBCQ7P55cadnS3YWfJV/iy4A1lEZERL3EayuxhS5RFQ97uvkacAmOmgKEF+ATQ0Olj8EYUEE//Dp7IUJ5ytRjwtIcwv1hlP7uxsWdC7O2m9bUmZxW+yn/D4W5lKgA93bxw44SHMSR81H9s+uzwBH9sKO6d7cc+V7aJqWsz5vZB4f5xWDz6T4gPSdbcR60v21PA7AIsAM2eYc5POgFx7NlzO+9BfvVe6WI7VUBB3v1w1uDLMDn+PPh6Bpzq5w79+0c3L8XRumyH2opGMhWAIp7zk6/FzMGXq1od/d8wxHeA3x75CN8f/QjNHfUOm7my4eSE2bg4/VaI4+J4UYACzhNgAeg8a45EAUXgu6KPsTrrKXTbuwwl4u3hh+kD5uLswZfB3ytIl9jzqvfjmYw7Va1yla0AjAoYiDunPavbvncN7TX47PDL2Fn6JTq723TJi56dirOQrx33VwwLH6fnMOybAhT4mQALQN4SFHCiQGNHHf72zVWGe1ojzvZNj5yCRaPugp+nPsWfOAf3iW23obBG3ZY4shWA4tizc5KuwvnJi3W702paj+PN/Q8jr3qvIVeUxwUNwd0zXtDNhx1TgAL/KcACkHcFBZwo8Pq+v2NHyXonjqjNUME+kbh7+ioEeIdo0+Ev9CK+/dtU+K7qs5BlKwDFVMUJGIvH/Bkjo6fr5GeH2FPyxV1/RI0BVwbbYMOC9Ftx2sB5OvmwWwpQ4OcCLAB5T1DASQJHag9i5fY7DHemq4ebJ26buhIDgvt+lNmpaO2wo7unExsL38eGgrfQ2tl0qian/PcyFoAiaPGN28L02zCh/zmabpvzU5AdJV/h3cx/oKPbeEfGiW9K/3j66wj07nfKHPMHFKCAegEWgOoN2QMFTikgNn3+5657kVe9G+JVp1EusYr1gpQbcfqgBZqHLL6BrGouw8bC97C77GuIxTFaXLIWgGJuPh5+mDrgQpwx6CKl0BGvh7W+3s18DFuOroEoro10iW1hJsWfj4Xpy3UrkI3kwVgpoLcAC0C9hdm/5QXEti9bj32GtTmrDPbtnw1jYs/EolF3QxSCWl6d3R0orM3EhoK3kVu1R9XZvz+PS+YCUMQqzgQW31OeNfhSxAUN1rzYEXsErth2K4rrcrRMmVP6CvEJx6JR9yA5fKxTxuMgFLCyAAtAK2efc3eKQEVTMd468AiO1GQa6qlMTGAifj36XsQGJWq6R5so/rIqtynF39G6Q5rnQPYCUExYPO0a3G+EsqJ6SNgopSjU8iqsPYiXdt+H+rYqLbvVvS93mwfSo6bikhG/QaCXft+b6j4RDkABAwiwADRAkhiicQU6u9vxZf6b+PbIB2jtajbMRPw8A3Fhyo0YHzdT0+JEHGO2s/QrbCx4F2WNhbp4GKEAPDnxhJBhyqbaqZETNX3K2t3Tha8L38Vnh19Aj8HOmRanp5w39Bplr0mbzabLPcJOKUABgAUg7wIK6CggtuVYnf00SurzdBxF+67FQoU5ydchxDdS0843H/0EGwreQXVLmab9/rQzIxWAIu7YoMGYnbwEaZGTNP0msLrlON4+8CgOV+3UzVqPjsWWQ8nh4zA/9SbEBA7UYwj2SQEK8Cxg3gMU0E+gqaMe6/Negyh6uno69RtI454jAxIwL2UpUjUuSLYd+wyf5ryIhvZqjSP+9+6MVgCK6CMD4nHx8N8gOWyMZjZikU3m8a14J/NRg317CohNx8WT0TMSF2r6ZFQzXHZEARMI8AmgCZLIKcgpkFmxFe8dfAJ1BtqXTXyDdXriQswacpXyh7BW167Sr/HxoadR36Zv8SfiNWIBKOIO8YnAjRMfQlzgYK3Y0dhei89zX8H3Rz/WrE9ndZQQnIwFabcgsd9wZw3JcShgKQEWgJZKNyfrLAGxGa/Y2Hh36QbAQNtxDAhJxfy0m5EYmqYZ1eGq3Xj7wCOobinXrM//1ZFRC0Axp1DfaNwxdSWCfSI0srIjq3IHPji4AlUtpRr16ZxuxKtgcYayWCij17nTzpkJR6GAnAIsAOXMC6MysIBY6LCv/Du8uvd+Tbc30ZtErEQ9beACXJhyg2ZDlTcW4Y19f0dx/WHN+jxVR0YuAMWJGEPCx+GG8Q/Ay93nVFPt1b8X+yuKs4K/KXrfUHtQismJvRIXj7kPSWEjNV2J3is4/ogCJhdgAWjyBHN6zheoai7Fa/v+DnHyh3EuGxJCknH5iLsQF5SoSdgN7TX4MOsp7Cv/xqkrUY1cAAp4UfhNHXABZidfq1kReOjETnyU/QzKdVp5rckN8186Gd//XOWb1EDvUD2HYd8UsJwAC0DLpZwT1lNAfHj/7ZEPlT9sjXSJomPagLmYl7pUk7Dbulrw7ZHV2Fj4Llo6GzTps7edGL0AFPMM9Y3C+cnXYlzsWco5wmovcRLNx4eexfZj6wy1IEnMWxxFePWY+zA8aqqmq6TVmrI9BYwuwALQ6Blk/FIJiFeeT2fcifq2E1LFdapgIv3jcc3YvygnU6i9uu3dyK7cjk8OPQexCbazLzMUgMJsUGga5qfegoGhKZoQZlVm4MOsJ3GiuUST/pzZifg29frxDyDIO8yZw3IsCphagAWgqdPLyTlbQLz63Vmy3tnDqhpPnEoxOWE2Lhl+uybfWYnFBquznkZmxRZVcTna2CwFoIebF6YkzMa5Q65EkHc/Rzn+1a6tqxlv7X8EB45/D/Gk2mjXnGHXKVvD8KIABbQRYAGojSN7oQCyKrfjxd1/gjj9w0iXeP27fPKTGBCSrDrs9u5WbD66BusOvwRxJq0rLrMUgMJOnIoxN2UpRsecrsmr4J2lG7A6ayWaOmpdkRpVY4oi+JbJjyM6gJtDq4JkYwr8KMACkLcCBTQQEN+8rdi6HCUNxjrxQ0w9JWICbhj/fxoUGHaUNhTin7vuQU3LcQ1UHevCTAXgyfxclLZc2Sxa7dXS2YRnMn6L4rpDhjqX+uS8R8TMwHVj71fLwPYUoABPAuE9QAFtBNbnvYEv8l4x3Af2YvZLxj2AkdHTVUOI007ez3oSW4+udeneh2YrAMWr4AVpN2Ni/1nwdPdSnSdxr36e9zLEecFGu8Tm5FeN+gNGRE8zWuiMlwLSCfAJoHQpYUBGEzjRVILndt6NyuZjRgsdgd7heODs9yC+A1R7HavPwz823wCxCMSVl9kKQGEZFTAASyc8hDC/GNW0lc0lePi7JRCv64132RAfPBS3TlkBb3df44XPiCkgkQALQImSwVCMJ9Bj78G7mY9jR8kX6OrpMNwEzky8DPNSb1Qdt91ux/M7f4+sym2q+1LbgRkLQGEizgqemjBbk2L9mYzf4dCJDLXULmkvTgWZmXSFckKI2DibFwUo4JgAC0DH3NiKAsprTnHMltjs+IQBn/6Jc3/vmPYM4oPVL/44WpeDRzdrd4KImtvLrAVgmF+ckq9ArxA1PErbnaVf4bW9D6jux1UdiKeAi0bdg9jAQa4KgeNSwPACLAANn0JOwFUCje21WJ39NPaUbTTUkW8nveKChuA3U1eqPm1CHH338p77sa98k6tS8W/jmrUAFJO8ZMQdmJZwgWrnpo56/HnjpRDHxBnx8nL3xbQBF+C85MV8FWzEBDJmKQRYAEqRBgZhNAFR9GQcW491uS+hzmCbPp+0Pjvpcpw/9BrlpAU1V1njETy+5SaIfeZkuMxcAMYEDsKd056Hl7u3aupnd/we2ZVbVffjqg5iAhMxN3UpUiMmuCoEjksBQwuwADR0+hi8qwSONx3Fx9nPSvHNmyMG7m6euH7835ASPh42m5sjXfyrzSc5q7Cp4B1pNhc2cwEo0G+c8AjSItUXPWK/xncz/6Eq965sLD5hmBg/C+cNXYxgH54Q4spccGxjCrAANGbeGLULBcQGx1uK12Ld4ZeleerVV44I/3gsnfAgIvz797Xpv/1evAZ/dsddOFaf69KtX34alNkLwBHRM3DdOPV74Ym/xDz83fXo7HHNht2qbrwfG4uj4eal3oQxsadrsjhGi5jYBwWMIsAC0CiZYpzSCJTU5+GN/Q+h1ICbPp9EHBN7JsTmwoHeoapc95Z/g/cPrkBje42qfrRsbPYCMMArBL+d/k/0841SxSa+/1ux7dYfi3dVXbm0cXrUVMxPvQkR/nEujYODU8BoAiwAjZYxxutSgdauZmzIfxsbCt4y5MKPk3izh9IcsyQAACAASURBVC3B6QMvgreHur3U3j34BDKKP0OnRFvgmL0AFBtDL0y/DVMSzlf1/wti4+4Psp7ClqOfqOrH1Y093b2xMO1WjO8/E8KGFwUo0DsBFoC9c+KvKKAIiM2OV2xbbtjVk2IO4g/JxWPuQ3rUFLip+P6voa0aL+35MwpqDkh1d5i9ABTfbI6Ino4lY/+qyl0sZNp2bB3eOfCoqn5kaCw+aVg28WGE+8XKEA5joIAhBFgAGiJNDFIGAfHt36t7/4YDx7+TIRyHYxB/WP569L0YEDLM4T5Ew0MnduKDrBWobJLrBBSzF4DCXrzuvGXS4whV8RrYDjuO1GThye23obunU9W9IEPjXw29GucmLVK9ql2GuTAGCjhDgAWgM5Q5hikEDlZsw/M77zb8XJLDx2Fh+q2ICkhQNZeNhe/hy/w30NxRr6ofrRtboQAUix/EnoAjoqaq4qtqKcPTGb9FVXOJqn5kaCz2Bvzt9OcRHTBAhnAYAwWkF2ABKH2KGKAMAmLj3BVbb8XxpiMyhKMqhknx52F28rUI9gl3uJ/O7g6szl6JbcWfSbP9y8nJWKEA9PHww5mJl2LW0F87nEPRsL6tCm/uf9iwx8L9fPLDo6Zj8Zg/wdOd3wKqujHY2BICLAAtkWZOUq3A53mvYt3hl9R2I0X7c5IWKeeoijNVHb2qW8rx/sEnkFW53dEudGtnhQJQ7IE3MuY0XDnq96peeYqnt2tyVmFr8Vrd8uHsjheP+TPGxJ7h7GE5HgUMJ8AC0HApY8DOFihpyMezGXehob3K2UNrPp6bzUPZMkMco+Xu5uFw/0dqs/Bh1kocrct2uA+9GlqhABR2iaHDcfWY+xDqG+EwZVtXCzYWvovPc19xuA/ZGsYGDsaySY8g2JubQ8uWG8YjlwALQLnywWgkE+i2dymvyHaXbjD0ti8nWf08g3Dx8NsxNvZMVdL7j2/GJ4eew4lmuRaAiElZpQAUhc5lI+7EwNBUh3PZ1dOhHGn4TqbxVwKfRBCn3IjTQc5JusJhFzakgBUEWABaIcuco8MChbUH8eqe+1HTetzhPmRqGOYXo+whlxY5SVVYW4s/w9rDq9DUXquqHz0aW6UAFFuezE29CSOjpznM2GPvwYHjm/Hq3vshikFzXDb0D0pSjjpUs0raHBacBQX+uwALQN4dFPgfAquzn8WWox9DbAFjhks8NboofTmGhI1yeDqiaBArgMVrw47uVof70auhVQpAsRL4vORrMDVhtirKvKp9yn6OTR3yFfOOTszfKxhzkq/D1AFzHO2C7ShgegEWgKZPMSfoqICsGx07Oh/RbkBIKhak3YxBoWkOd9PR3Y51uS9jY8E7EHvJyXZZpQD09QzEzMGXY2bS5apSUFR3SHkCWNVcqqofmRq72dyVzbKvHv1HVd+6yjQnxkIBrQVYAGotyv5MIyD2/RNbnZwwwR5pJ5MyJHyMsghEvCJz9GrpaMDawy9gs6RHiFmlAPRy98HpiRdjTvK1jqZSaVdcn4s39v0d5Y3G3+LopxD9g4di0ci7ERc0WJUPG1PArAIsAM2aWc5LlYB4srWh4B1syH8TLZ2NqvqSqXFKxETMTV2K2MBBDofV0F6NNTn/RMaxLxzuQ8+GVikAxWKHqQkXYEHaTRBPvBy9ShsK8Nb+h1Fcn+NoF1K2E9//XTjsRoyNU7fgScrJMSgKaCDAAlADRHZhPoH2rlZ8kPUUdpR8YYrVvyczlBo5CXNTlyFGxWkJNa0VWHPoeewu+1rKxFulABRF36T487EwfbmqvQDLGgvx9oF/oKj2oJT5dDQoHw9/nDX4UvxqyJUAbI52w3YUMK0AC0DTppYTUyMgjsh6P/MJZJ/IUNONdG3F5sEXptyICL9Yh2Orbj2uFIB7yjY63IeeDWcMWoB5KUtVFUU/je/5nffgYMUWPUN2qG8bbBgbdxYuTr9d1abeZQ2iAHwURXVZDsUhayM3mxsm9p+lHHvo6e4ta5iMiwIuE2AB6DJ6DiyzQFFdDlZnPYUjJnsqMirmDFyYcgPC/WIc5hdb4nwicQGo9RPAZ3f8DtmVMv5FwIYxMWfgkuG3w88ryOF8mrUAFCDDo6fhkvTbVR176DAsG1JAcgEWgJIniOG5RiCnahc+yn4GZQ0FrglAp1FHRM/AXPEE0D/O4RHEE0BRAO6V9Ang+LhzcNnI38LTTZvzYB/8fglK6/Mc9tKroQ1uGBc3ExcPvw3ibGBHLzMXgMnhY3FR+q2IVvHJg6OubEcB2QVYAMqeIcbnEgGxOe7Hkp50oQYkJXIi5qUsQ0zgQIe7qW2txCc5zyuno8h4xQcn47YpT0KsklV7iQVA9319Kdq6mtR2pXl78Q3glITZWJB2i6rX3Wb9BlCAD+43QvGJDx6quT87pIDRBVgAGj2DjF8Xgd2lXytFTm1rhS79u6rTYRETMC91mapVwI3ttVib809sO7bOVdP4n+N6uHnirukvIFpFkXtygP3Hv8cLu/4ISLjfoZjntAFzlXyK790cvcRZ1+K4w5L6w452IW27ASEpmJ92MxJD06WNkYFRwFUCLABdJc9xpRbYVfo11piwAEwKG6XsA6jmiYh4KvZpzgv4/ujH0uZQfAd4cfqtquN7avsdyK3apbofPTrwdvfFGYmX4Pzkxaq6L647jNf2/Q0VTUdV9SNj47igJMxLvQnJ4WNkDI8xUcClAiwAXcrPwWUV2FW64ccCsFLWEB2KS4uTQDq7O/B53ivYUPA27PYeh+LQu5F4PfrHM96AOC/XkUvsA7n/+Ga8tvd+dHa3O9KF7m38PINwzpBFOCvxElVjHanNxit7/4qalnJV/cjYOCFkGOan3ozB/YbLGB5jooBLBVgAupSfg8sqsK/8O3yS85ypjscS1tGBg7AwbTmGqngiIoqjb4+sxmeHX0RbV7OsKVSOvbt+/N8Q5N2vTzHa7XZUNB/DC7vulfqpWLBPOM5PXoLJ8bP6NL+f/ljkUpwF/OLu+9DSWe9wP7I2HNRvuPIN4IDgZFlDZFwUcJkAC0CX0XNgmQWyT+zAx9nPoryxUOYw+xxbqG80Lk6/DelRk/vc9qcNdpSsV04DqW+rUtWPno3FU0Cx7+Hsodcg3D+2V6dliKeb4ki0T3NfUl79dvd06Rmiqr7D/eMwP/UWDFeRyx57Nw4c/x6v7L1f6rk6CjUkbDQWpC9HXGCio12wHQVMK8AC0LSp5cTUCBTWHsTqrJU4WndITTfStfX1DFA2DhYbCIuNhB29sioz8HH2MzjeVORoF05p5+HmhaFhYzB5wGwMCklFoHfoLy6YEIWQKGZzq/Zha/FaJe/ddnmLP4Envm+7fOTvkKDi6VZnTwe2H1uH9zIfd0o+nD1IWuRkZZucfr7Rzh6a41FAegEWgNKniAG6QqCiqRjvH1yBw5IuAHDURKwWvTBlKWYMnAtRHDl6HavPw4dZT6Kg5oCjXTitnZizePIpXnsPDElBpH8CAryDlX0C27pb0dLRgOONRRBFf371ftS1GeG7TxuSwkZi8Zj7+vyK+6fw4hX+hsJ3sD73Naflw1kD2Wy2H/ZJTBf7JPo7a1iOQwHDCLAANEyqGKgzBVo6G/DBwaewu2wDeiRd6OCox9mDL8PMpCvg5xnoaBdoaK/F+wefwL7yb6XcIuWXJiZeCQd4BSPYJwJ+ngFwd/NUFni0djWjrrUSTR3iGzi7wybObOju5oExsWfhipF3wd3m7vDQYs5iv8sMSbf0cXhigLIP5OmDFmJ28rUQxSAvClDg3wVYAPKOoMAvCIii74u817Cp8D2pFzo4krwJ/c/FnGHXIcQnwpHmShvxynRNzip8V7Ra2lWyDk/OAA3FEy1RxJ+TdIWqaOvaTuC1ff+HvKrdqvqRsbGySGbotZiccJ6M4TEmCrhcgAWgy1PAAGQV2F22CWsOPQdx9q2ZLvFh/MXDb1d9PNbW4s/wWe6LaGirNhOPIeYiipvLR96F1IgJquI90VyKlRl3oqalTFU/MjaOCUzEpSPu4CbQMiaHMUkhwAJQijQwCBkFKptK8Nq+B0y3ECTMLw5Xj/4jBoamqGIvqsvB2wceNt15yapQnNQ4KiABt01+CgHeIQ6PKLaAya/aj5UZt5vuMwfAhuSIcbhu7P3w9vB12IgNKWBmARaAZs4u56Za4I39D0JsCt3d06m6L1k6EN++XT36XoyInt6rrVH+W9wd3W3KMWk5J3ZCFBO8nCMgFrWMiT0bvx79B1UDitf4W4rXmnIFsHhFLr51PXfIlaqM2JgCZhZgAWjm7HJuqgUOVGzFu5mPmu4156yhV+PMxEvg4+GnyujzvFexseAdtHW1qOqHjXsvIFZvi+1fxsfN7H2jX/hlV08H3s18AtuPfaaqHxkbR/j3x5Jx9yOW+//JmB7GJIkAC0BJEsEw5BRo72rDql33Ird6F8QJEWa5xNO/S4b/RtUWIsKioCYTr+69H7WtFWahkX4eQT7huGv6KtW5E1vAPLblZtNtdi5We0+MPw+Xj7hT+lwyQAq4UoAFoCv1ObYhBA5WbMOre/9qqqdcYX4xWDrhYYhvydRc4jXwqp334rDJCmQ1Jnq3nRh/PhaN/J3qYUob8vHo5hvRZaLPGwRKiE8kbpzwEOKCePqH6puEHZhagAWgqdPLyWkhII4D++FbwK+06E6KPsRTkmvH/hXDo6bAZnNTFZNYDSz2BBSvFHnpKyDyduvkp5DYL031QF8Xvquc5mK26/zka/GrIVeZbVqcDwU0F2ABqDkpOzSjQEXzMazYuhyN7TWmmd7pgy7ChSk3wsPNU9WcGttr8ejmZahpNd9WIqpgdGicGDoCyyc/DrERtNrryW23I696j9pupGofH5yMmyY+An+vYKniYjAUkFGABaCMWWFMUgpsLHwPH2U/LWVsjgQVFTAAv53+PLzd1W+T8dnhl/FF3iuOhME2fRBYMu4BjIye3ocWv/xT8c3mA99cBfEK3yyXOO3jxvEPITVyolmmxHlQQFcBFoC68rJzMwk0ddTh2Yy7UFyfY4ppideJyyc/gcH9RqieT3NHPf6y6Qq0djaq7osd/LJA/6ChuGXyY6qO8DvZ8/fFa/DegX+Yinps7Nm4bMSd3PfPVFnlZPQUYAGopy77NpWAWAV86MQOPLtD/Qf4ssBMSZij/KGpxbU+/w18mrNKi67Yxy8I/Hr0vcr5v2IfQLXXo1uW4WhtltpupGkvzrVePnkF4oIGSxMTA6GA7AIsAGXPEOOTSqCxvQ4fZq/EbpMsCPH1CMTfZn4IT3dv1c6tnc24/5sr0djOo+FUY/6sg6Sw0crGz2rObz7ZZWlDAR7bssw0r3/Fq99ZQxfjjEELVe9rqXXe2B8FZBZgAShzdhibhAJ25FcfwCt7/4r6tioJ4+t7SItG3YOJ/c/te8OftegWJ0scXYPV2SshVk7z0kZAfKMpNn4eGT1D9eIPcWLLJ4eexzeF76Pbbo4ciYUfwqd/UJI24OyFAhYRYAFokURzmtoJNHc24OuCd7Gp8F1T7KE2KDRdWVkqTphQe9W1ncBre/+GvOq9artie0DZomdc3EzMSV6CUN9I1SYNbdVYmXGnaTZ/FifZzBl2PSbHnw9Pd/X3r2pgdkABAwmwADRQshiqPAJHarPwYdZKHK3LlicoByPxcvfGDRMexNCwMQ728P+biSd/mRVb8P7BFWjgq2DVnmKj7gVpt2BYxHjYYFPd3/dHP8GnOS+gpbNBdV+u7kB4pEdNxYUpN6je0NzVc+H4FHCFAAtAV6hzTMMLiO0zvj2yGl8VvGX4la9iUcHomDNx5ajfq37FKBIrVkt/mf8Wvi9abYonpK66WcXChjMSL8ZpAxfA19NfdRhNHfV4c/+DyK7MQI+9W3V/ru4g1DcKs5OXYFzc2ZosjHH1fDg+BZwtwALQ2eIczzQCFU3F+CDrSeSc2Gn4OfXzjcavx/wRiaHpmsylpD4PH2U/g1yTbTSsCU4vOhFb9KRFTsa81GWI8I/rRYtT/2RP2Ubl+7+a1uOn/rHkv3C3eWBs3NmYm7oUgV4hkkfL8CggpwALQDnzwqgMINBj78H2Y59jXe5Lhl8QIr7/mxD/K1ySfhtE8aH26u7pxN7y7/BZ7ouoai5V253l2otNuhem34qh4WM0efXb1F6Hjw49g92lX5ti8Yd4Nb4w/TYkh4+13L3BCVNAKwEWgFpJsh9LCrR1teD1ff+HgxVbDP9aLSZwEBam344hYSM1yaV4Tb6h4B18c+QDw78m1wSkl534ewXhvKHXYkrC+aqP6Ts55J6yb7Am5zlUt5T3Mgp5fya2LJocPxvzUpdq5iPvbBkZBfQTYAGony17tohAbvU+vL73AYgVsEa+xGs1sTH0grSbNfkWUFiIIvCN/Q/hQPl3pnjypHd+xdPXaQPmYn7aMoh8aHGJp3+fHn4BW4s/hdgGxuhXuF8sbp70GML8Yow+FcZPAZcKsAB0KT8HN4vAm/sfxo6SLwz/FDA6YCAuTL0R6ZGTNUuN2Hrk+Z334Fj9YVMUIJrB/Kwjsao1JXISlk54ULMhRMG3t/xbvH/wCTS112rWr6s68nDzVLZ9OTPxYleFwHEpYBoBFoCmSSUn4kqB2tYKPLblJsM/BRSGUxJmY86w6xCg4cf1xxuLsGr3vahsOubKNEk7tnjyNyA0DTdNeFjTs2yrW48rCz/2lm2Udu59CSwuKAl3TnuOr377gsbfUuC/CLAA5K1BAY0EvjnyIVZnrYQdPRr16Jpugn3CcWHKjRgTc4Zmr4LFTI7UZePt/Y+YZhNirbIjir+kfiOxaNTvNdns+WRcXT2d2FW6Ae8dfByd3e1aheuyfrzcfbBk3ANIiRjvshg4MAXMJMAC0EzZ5FxcKtDZ04Gntt2OI7UHXRqHFoOnRk5SNiCO9O+vRXf/6qOgJhMfZz+DIhNsoK0FjHilOTRsLC5IuR6xQYmarPgVcYlXv2UNhXhj/4Moqc/VIlSX9zGh/yxcOepul8fBAChgFgEWgGbJJOchhcDhqj14Yde9aOtqliIeR4MQ28LMGno1Ths4X9NXknZ7DwpqM7E+7zUIK/F/W/XycvdFetRkzBx8hVL8iQ25tbrE0z9xUs3mox9r1aVL+xELPpZOeAhiexxeFKCANgIsALVxZC8UUASUP3izV2JzkfH/4BUnLVwx8i4MDRutnEmr1dVt71aeSm0sfBeZFdvQ2d2mVdeG6cfPMwhj487CjIHzEOkfr2nxJxD2lG3C2wceMfxfRE4mdH7qzZgxaD7cNdij0jA3CQOlgM4CLAB1Bmb31hIQr97EKRgv7/kLTjSXGH7yg0LTsWziI/Dx8NN0LuIosqqWMmw+ulZZPd3cUa9p/zJ3FugdiukD5in7/AX5hGn22vfknE80l+LpjDtMseefmFNS2CjlLyJi+xdeFKCAdgIsALWzZE8UUAQ6utux5egarM5eaXgR8VpyasIFuHj47ZrPRRTLrZ1N2FX6Nb7Kf8MUK6hPhSQW2MxOvg4jY6bD10P9+b4/H088XX0m47fIrdp9qlAM8e/Fwg+xOGZk9HRNTqgxxKQZJAWcJMAC0EnQHMZaAuWNR/Be5hPIr9ln+ImLVaqXj7wLE/ufq8tcRNGSX7NfOTu4rD7ftHsFJvUbjYXpyxEdOEC3YmZtzgvYWPiO8imCGa6J8edhdvK1CPEJN8N0OAcKSCXAAlCqdDAYswiIc4LFq833D65QTsMw+iWexCyfvAIDQpIB2HSZjngauPbwC9h+bB26ujtMUQiKJ6hiQc3ZSYswa8iVuriJTsVimj3l3+DDrCfRaIINn8WcQnyjcHH6bRgeNUU3N3ZMASsLsAC0cvY5d10FxCa8n+aswu6yjSZY7WqD2IR3ybi/6v4tVk7VLnyZ9yZKG/KUV8RGPL5MPDX19QxQFtCcmXgJBoQM03QhzU9vXFH8FdYexLuZj0E8eTbD5e7mgdMGLsCvhlylOPKiAAW0F2ABqL0pe6TAvwTEasw1Oc+b4oN8sWddetQ0zE+7CaE+EbpmubmzATtKvlJOsDjeVITWTrGtjvzn2Ionfv5ewegfPBQjo2dgVMwM+HsG6WYliuPjjUfxUfbTEIWzWbbViQ9OxrzUmzAkbKRuduyYAlYXYAFo9TuA89dVoKWjEWsPr0LGsc8hNoo2+uXj4Y+J8bNw9uBLEaJzEShWCh9vKsa+8m+RX71PebolVgvL+UTQBrG6Nz54KNIiJyn7+/XzjdY93dUt5ViX+wr2lG1ElwnuLwHm6xGAMxIvxjlJl8PdzVN3Qw5AAasKsAC0auY5b6cJ5Ffvx3uZj6O8yRyv50ShMyVhDqYPnItg7zDdHcUxZpXNJRCniIhC8GjdIdS0Htd93N4OIPbxiw9JRnLYWAzql4Yo/wTYbPp8J/nTmBraqvFVwdvKN5NG33j85LzEfpOD+43E5SPuRITGp9D0Np/8HQWsIsAC0CqZ5jxdJiBWZH6R+xq+KfoA7V0tLotDy4GDvMOUjXmnJVwAfy/9XnH+NGbxRLCmtQIVjcUoqDmgnC1c1lCAls4GLafWq77E/OOCh2BAcDIS+6UrJ1T0843qVVstfiTmvD7vDWw/9rlL5q/FHH6pD/H6XJxDPTn+PL2GYL8UoMCPAiwAeStQwAkCta2VeH7nH5SFDUb4lq03JKIIOnPwJZiaMEfzjaJPNb5YHFLfXq18W1lUm43i+lxlA+7GjhpdvoMTizqCfSLQP2iIshI6ITgZYf6xCPIOhXgt7sxL/IVCbJmzs/RLZZGMWS7x9C8tYjKuGn0PF36YJamch9QCLAClTg+DM5NARsmXeOfAI6b5VkvkRhxpdtqgBTg3aRHEyk1nX2LRQ3t3G9q7WpXtT060lOBYfR7EaRhlDYVKQdjW1QS7vfcLSMRxY94eAcoTvajABIT7xSlFX4RfHPy8guDt7gtPd2/Nj2/rrd07mY9jZ8kXpthe6KdzFlsN3TLpcQwMTe0tBX9HAQqoEGABqAKPTSnQFwHxCnPF1ttRWLu/L82k/+0PW3ZchHmpS10cqx09drvyBFD5T0832rtble8F69qq0NRRj9bORnQr/30bWjrqEeAdCk83T3i4eyHAKxgBnsHKkz6xytnLw0fZukX5j81Nt21ceovW3dOF1/b9HfvKv4G4l8x2zRg4HxelLXfK95Nms+N8KOCIAAtAR9TYhgIOCoiVrA99twTd9i4He5C32cT+s3DJ8Nvh6e6l22bR8s5ev8jE08uG9mq8deBRHDqRocsrbv2i713PYuXvA2d/qBTdvChAAecIsAB0jjNHocC/BD44+BS+LfrQNN8CnpyYeEqWGjkZc1NuVDaLdsUrYbPdZmJrl+K6w1iT808cqc0y5ZM/d5uHctb0lITZZksf50MBqQVYAEqdHgZnRgGxfcdjW29GdUuZ6aYnFkskhAzDOUmLMCRslNMXh5gJVGx+nX0iA1/mv6GsdjbrNSRsDG6c8CC83L3NOkXOiwJSCrAAlDItDMrMAuL7rW3F6/BB1pOmWhDy05yJPdzEN11jYk5HkI/+ewWa6X4R3zCKVePiCMGtxZ+iqqXUTNP7t7kEeIXgqtF/wLDwcS7/xtK0yJwYBf6LAAtA3hoUcIFAfVs13j7wCLIqt7lgdOcMKbaJGRVzOibGn4u4oMEQr/p4/W+BHnuPssehKPyyKzNMtcffL81c/CXh/ORr4OcZyFuDAhRwsgALQCeDczgKCAGxCORgxVa8m/mYsn2JWS9Pdx/EBw9RTg4ZH3c2xCtiXr8sIF757ij5EjtKvkBJQy5EMWjmKzpwIC4dficSQ9O58tfMiebcpBVgAShtahiY2QVE4fd53iv4vuhjs08Vob5RSImYgBkD5ylPA3n9u0Be9X58e+RDFNYeMPVfCE7O2sPNE7OGXo3TBi6At4cvbwcKUMAFAiwAXYDOISkgBMT2HjlVu7A6ayWONxWZHsXDzQuhvpE4bdBFytNAvvYD6tuqlOPcdpSsR1VLmSlX+f7SjZ0cPhZzU5ehf1CS6e97TpACsgqwAJQ1M4zLEgKdPR34IvdVbCh42zJ/+Hu6eSMuKEn59is5fIwlP/7v6G5DZsVWbCh4C2JvSLHJs1UuX89AnD/0GswYONeSubdKnjlP+QVYAMqfI0ZocgFxdNnq7KeQX22uE0JOlTZvDz+kRU7GmYkLERs0GOK1oA22UzUz7L8XT3w7etpQUp+PrwveUbZ46e7pNOx8HAlc5HdE9HQsTL8VwT7hjnTBNhSggEYCLAA1gmQ3FFAjIJ4AfpX/Jlo6G9V0Y8i2/l4hGBkzA1Piz0eYX7TyathMi0W6ejqVvJY2FGD7sS9wsGKz6c7x7e2NJ85XnjPsBoyLO6u3Tfg7ClBAJwEWgDrBslsK9EWgru2Esi1MzoldlnkV/HMff69QpEdOQnrUZMQGJSLYO9ywCwTssKOtqwV1rSdwtO4QMiu2IKtimymPAOztfS6e8I6OPROXDv8NvNx55Ftv3fg7CuglwAJQL1n2S4E+Cuwq3aAsCGnsMO+2ML0hEcVBYr8RykkiA0JSEOEfC7GnoCggZL/E077atkpUNh1DUd0h5FfvQ1Fttmk3/O5LPsTm4ItG3YPE0LS+NONvKUABnQRYAOoEy24p0FeB9q5WvH3gUewt32j6PeB6YyNWDYf7xSE2aBASgpOV7wSjAuKVLWVk+law296N2tbjON54FOWNRThafwil9QWobauw1OKO/5VTcS702YMvVxb+yJS73tyH/A0FzCrAAtCsmeW8DClQ0pCPldvvQHNHnSHj1ytoXw9/hPhGQXxD1j94CKL8EyA2Eg73i4GvZ4Bew/5iv+L1bnNHPapaynG8sQjlTUU43ngE1S3lqGurQntXi1PjMcJgMYGJWDbxYYT4RBghXMZIAUsIsAC0RJo5SaMIiOLi89xX8Xnuy0YJ2elxern7wt8rEP6ecmf33AAADulJREFUwQj0DkVUwABEBSQg3D8OEX4xCPAK1fTbwZbOJjS116KypRRVzWWobC5WXvGKV/WiEBQLPDq7253uYKQBl4y9X1now4sCFJBHgAWgPLlgJBRQBFq7mvHw99ejqrmEIqcQEK8TPdy94OXuDfHK2NPNCwHeoejnG4Mg734I8g5VikQ/ryD4evrDy80booB0s9kA+w+dd6MH4vV7l70DLR1NSlEnTmkRBV5Dew1ONB9DW2czOnra0dXdAbF3o/inKNZ5nVogNXIyrht3vyG+4Tz1bPgLCphHgAWgeXLJmZhIIKtiO57beZeJZuS8qYii0GZT/idgc1P++cP/La6T+wyKf/68gPuhpBP79dnRI/4XpcjrsSv/rfMmYKKR3Nw8cO9prysLeXhRgAJyCbAAlCsfjIYCioB4pfjynr8is2IzRShgSAFRcs8csgjnDbkaYhEILwpQQC4BFoBy5YPRUEAREE+ejtbm4Jkdd6K1s4kqFDCcQFTAQCyd8CDC/GIMFzsDpoAVBFgAWiHLnKMhBUTh91XBW8qxYT32bkPOgUFbU0Ds5Tg/9WZM6H8uPN29rInAWVNAcgEWgJIniOFZW0BsC/Pm/odRUn/Y2hCcvaEE0iOnYH7azYjwjzNU3AyWAlYSYAFopWxzroYTaO9uw5aja5VtYdq6mg0XPwO2nkCwTzjmpizF6JjT+e2f9dLPGRtIgAWggZLFUK0pcLzpKD7OfhZZldusCcBZG0bAzeaOif1nKSd+BPuEGSZuBkoBKwqwALRi1jlnQwl093RhR8l6rMt9GXVtJwwVO4O1loA48WNu6lKkRIznkW/WSj1na0ABFoAGTBpDtp5AU0c9Pji4AnvKNv2wRx0vCkgm4OnujWkD5mJO8hIu/JAsNwyHAr8kwAKQ9wUFDCKQXZmBD7KeUk6m4EUB2QQSgpNx5ah7lDOaeVGAAvILsACUP0eMkAL/EhArgneVfomunk6qUEAaAR8Pf5w1+DL8asiV0sTEQChAgf8twAKQdwgFDCRQ3liEl/bch+ONRQaKmqGaWUCc+DEgJAVLJz4MP89AM0+Vc6OAqQRYAJoqnZyMFQTW57+hbAsjFofwooCrBbw9/LBo5O8xKmaGq0Ph+BSgQB8EWAD2AYs/pYAMAs0d9Xhmx10orjskQziMweICo2LOwOIxf4Kbzc3iEpw+BYwlwALQWPlitBRQBLIqM7Bq5z3otvMpIG8J1wkEeIdi+aQnEMOFH65LAkemgIMCLAAdhGMzCrhSQJwN/Pr+B7Gr5EtXhsGxLS5wwbAbMDPpcosrcPoUMKYAC0Bj5o1RUwAVTcVYse02NLZXU4MCTheIDxmGpeP/D4He/Zw+NgekAAXUC7AAVG/IHijgEgHx+vfbIx/io+xnXDI+B7WugM3mhmvH/BUjoqdC/O+8KEAB4wmwADRezhgxBf4lUN1Sjpf2/BnFdTlUoYDTBMbFnYP5qcsQ6B3qtDE5EAUooK0AC0BtPdkbBZwq0G3vxr7yb/Ha3gcgvgvkRQG9BQK8QnHtuL8gqd9IvYdi/xSggI4CLAB1xGXXFHCGQE1rBdbk/BN7Sr+GHXZnDMkxLCrgbvPAmYMvwdmDL+Omzxa9Bzht8wiwADRPLjkTCwtkVmzF+wefQG1rhYUVOHW9BeKDh2JB2i0Y3G+E3kOxfwpQQGcBFoA6A7N7CjhDoLGjDuvzXsOWo2vR1dPhjCE5hsUEfD0DlCd/pw+6CF7uPhabPadLAfMJsAA0X045I4sK5FXvw+rsp1FSn2tRAU5bLwFx3m9yxDjMT72Zmz7rhcx+KeBkARaATgbncBTQS6Cjuw1f5b+Fb4s+RGtnk17DsF8LCgT7hGPW0MWYHH8ej3yzYP45ZXMKsAA0Z145K4sKnGguwWv7/o6i2iyLCnDaWgu42dyRHjUFl4/8Hfw9g7Tunv1RgAIuEmAB6CJ4DksBPQTs9h5sLv4Unx1eheaOBj2GYJ8WExBP/xaNugfDwsdabOacLgXMLcAC0Nz55ewsKCBOCFm5/Q4UVO/ntjAWzL+WUxZP/yb0PxeXjfgtX/1qCcu+KCCBAAtACZLAECigtUBezX48v+NutHe1aN01+7OQgJ9nEO457SUE+0RYaNacKgWsIcAC0Bp55iwtKPD6vgexo+RzC86cU9ZCQJzxOzd1Gc4ctFCL7tgHBSggmQALQMkSwnAooJVAXdsJPLr5RtS3VWnVJfuxkEB88DDcMe0ZuNvcLTRrTpUC1hFgAWidXHOmFhT4rugjfJj1JHrsPRacPafsqICPhz+uHXc/F344Csh2FDCAAAtAAySJIVLAUQGxH+CqXfcir3qvo12wnQUFpiTMwcL05fBw87Lg7DllClhDgAWgNfLMWVpUQGwLk31iB17b+3e0dNZbVIHT7otApH8Cfj36XsSHDIU4AYQXBShgTgEWgObMK2dFgX8JtHY246v8N/FVwZtUocD/FBBP/Oan3oRJ8bPg6e5NLQpQwMQCLABNnFxOjQJCwA47KhqL8fGhZ5FVuY0oFPivAlMSZuO8oYshNn/mRQEKmFuABaC588vZUUAREEVgfvUBfJT9NI7VH6YKBf5DIC1yEi5MuRHRgQP56pf3BwUsIMAC0AJJ5hQpcFIgqzIDa3KeR3lDIU8J4W2hCIj9/gaFpmFuylLln7woQAFrCLAAtEaeOUsK/EvgwPHN+DzvVZQ1FKDH3k0ZCwuIPf4G9RuBOcOWIDE03cISnDoFrCfAAtB6OeeMKYDDVXuwPv91FNYcQHdPF0UsKODt4YehYaNxXvI16B+UZEEBTpkC1hZgAWjt/HP2FhYoazyCTYXvIatyOxrbaywsYb2ph/vHYVzsTEwdMAchXPBhvRuAM6aA+PzDbrfbKUEBClhToKWzEfvKv8WO0i9RVJOFbjufBpr5ThAnfCSFjcKE/udiRPQ0HvNm5mRzbhQ4hQALQN4iFLC4gNgsurg+F5kVm7G//HtUNB3lAhGT3RPubp6IC0rCuLizkBoxEZEB8Vzpa7IcczoU6KsAC8C+ivH3FDChgNgmpq2zGaUNBThYuQ37j3+P6pYyiOKQl3EFROEXGzgYY2LPwNDwMYgOSICXu49xJ8TIKUABzQRYAGpGyY4oYHyBHnsP2rtaUNNaidzqPcg8vhkFNfsh/ntexhEQRd6QsDEYFXMahoSNRIB3iFL48Wg34+SQkVJAbwEWgHoLs38KGFLAjm57j7JCWOwZmFezH3lV+1DWWIC6tkpDzsjMQYu9/ML9+iMmcBBSIscjKXQEwvyi4e7mATebu5mnzrlRgAIOCrAAdBCOzShgNQGxQKSquRwnmktQ116Flo5GqxFIN18bAH/vEIT6RCAqIAEhPhFws7lJFycDogAF5BNgAShfThgRBShAAQpQgAIU0FWABaCuvOycAhSgAAUoQAEKyCfAAlC+nDAiClCAAhSgAAUooKsAC0Bdedk5BShAAQpQgAIUkE+ABaB8OWFEFKAABShAAQpQQFcBFoC68rJzClCAAhSgAAUoIJ8AC0D5csKIKEABClCAAhSggK4CLAB15WXnFKAABShAAQpQQD4BFoDy5YQRUYACFKAABShAAV0FWADqysvOKUABClCAAhSggHwCLADlywkjogAFKEABClCAAroKsADUlZedU4ACFKAABShAAfkEWADKlxNGRAEKUIACFKAABXQVYAGoKy87pwAFKEABClCAAvIJsACULyeMiAIUoAAFKEABCugqwAJQV152TgEKUIACFKAABeQTYAEoX04YEQUoQAEKUIACFNBVgAWgrrzsnAIUoAAFKEABCsgnwAJQvpwwIgpQgAIUoAAFKKCrAAtAXXnZOQUoQAEKUIACFJBPgAWgfDlhRBSgAAUoQAEKUEBXARaAuvKycwpQgAIUoAAFKCCfAAtA+XLCiChAAQpQgAIUoICuAiwAdeVl5xSgAAUoQAEKUEA+ARaA8uWEEVGAAhSgAAUoQAFdBVgA6srLzilAAQpQgAIUoIB8AiwA5csJI6IABShAAQpQgAK6CrAA1JWXnVOAAhSgAAUoQAH5BFgAypcTRkQBClCAAhSgAAV0FWABqCsvO6cABShAAQpQgALyCbAAlC8njIgCFKAABShAAQroKsACUFdedk4BClCAAhSgAAXkE2ABKF9OGBEFKEABClCAAhTQVYAFoK687JwCFKAABShAAQrIJ8ACUL6cMCIKUIACFKAABSigqwALQF152TkFKEABClCAAhSQT4AFoHw5YUQUoAAFKEABClBAVwEWgLrysnMKUIACFKAABSggnwALQPlywogoQAEKUIACFKCArgIsAHXlZecUoAAFKEABClBAPgEWgPLlhBFRgAIUoAAFKEABXQVYAOrKy84pQAEKUIACFKCAfAIsAOXLCSOiAAUoQAEKUIACugqwANSVl51TgAIUoAAFKEAB+QRYAMqXE0ZEAQpQgAIUoAAFdBVgAagrLzunAAUoQAEKUIAC8gmwAJQvJ4yIAhSgAAUoQAEK6CrAAlBXXnZOAQpQgAIUoAAF5BNgAShfThgRBShAAQpQgAIU0FWABaCuvOycAhSgAAUoQAEKyCfAAlC+nDAiClCAAhSgAAUooKsAC0Bdedk5BShAAQpQgAIUkE+ABaB8OWFEFKAABShAAQpQQFcBFoC68rJzClCAAhSgAAUoIJ8AC0D5csKIKEABClCAAhSggK4CLAB15WXnFKAABShAAQpQQD4BFoDy5YQRUYACFKAABShAAV0FWADqysvOKUABClCAAhSggHwCLADlywkjogAFKEABClCAAroKsADUlZedU4ACFKAABShAAfkEWADKlxNGRAEKUIACFKAABXQVYAGoKy87pwAFKEABClCAAvIJsACULyeMiAIUoAAFKEABCugqwAJQV152TgEKUIACFKAABeQTYAEoX04YEQUoQAEKUIACFNBVgAWgrrzsnAIUoAAFKEABCsgnwAJQvpwwIgpQgAIUoAAFKKCrAAtAXXnZOQUoQAEKUIACFJBPgAWgfDlhRBSgAAUoQAEKUEBXARaAuvKycwpQgAIUoAAFKCCfAAtA+XLCiChAAQpQgAIUoICuAv8PkP+5T3f7S6MAAAAASUVORK5CYII=;" vertex="1" parent="1">
          <mxGeometry x="128" y="334" width="108.45" height="61" as="geometry" />
        </mxCell>
        <mxCell id="auokp5sfF3vydT2iOztg-34" value="" style="image;sketch=0;aspect=fixed;html=1;points=[];align=center;fontSize=12;image=img/lib/mscae/Docker.svg;" vertex="1" parent="1">
          <mxGeometry x="93" y="309" width="50" height="41" as="geometry" />
        </mxCell>
        <mxCell id="auokp5sfF3vydT2iOztg-36" value="" style="endArrow=classic;html=1;rounded=0;" edge="1" parent="1">
          <mxGeometry relative="1" as="geometry">
            <mxPoint x="-759" y="133.19" as="sourcePoint" />
            <mxPoint x="-659" y="133.19" as="targetPoint" />
          </mxGeometry>
        </mxCell>
        <mxCell id="auokp5sfF3vydT2iOztg-37" value="8080" style="edgeLabel;resizable=0;html=1;;align=center;verticalAlign=middle;" connectable="0" vertex="1" parent="auokp5sfF3vydT2iOztg-36">
          <mxGeometry relative="1" as="geometry" />
        </mxCell>
        <mxCell id="auokp5sfF3vydT2iOztg-39" value="&lt;b&gt;&lt;font style=&quot;color: rgb(255, 128, 0); font-size: 14px;&quot;&gt;REQUEST&lt;/font&gt;&lt;/b&gt;" style="text;html=1;align=center;verticalAlign=middle;resizable=0;points=[];autosize=1;strokeColor=none;fillColor=none;" vertex="1" parent="1">
          <mxGeometry x="-872" y="117.25" width="86" height="29" as="geometry" />
        </mxCell>
        <mxCell id="auokp5sfF3vydT2iOztg-40" value="WebGoat" style="text;html=1;align=center;verticalAlign=middle;resizable=0;points=[];autosize=1;strokeColor=none;fillColor=none;" vertex="1" parent="1">
          <mxGeometry x="-29.779999999999973" y="238" width="68" height="26" as="geometry" />
        </mxCell>
        <mxCell id="auokp5sfF3vydT2iOztg-41" value="WebWolf" style="text;html=1;align=center;verticalAlign=middle;resizable=0;points=[];autosize=1;strokeColor=none;fillColor=none;" vertex="1" parent="1">
          <mxGeometry x="148" y="240" width="66" height="26" as="geometry" />
        </mxCell>
        <mxCell id="auokp5sfF3vydT2iOztg-42" value="WebGoat" style="text;html=1;align=center;verticalAlign=middle;resizable=0;points=[];autosize=1;strokeColor=none;fillColor=none;" vertex="1" parent="1">
          <mxGeometry x="-27.99999999999997" y="389" width="68" height="26" as="geometry" />
        </mxCell>
        <mxCell id="auokp5sfF3vydT2iOztg-43" value="WebWolf" style="text;html=1;align=center;verticalAlign=middle;resizable=0;points=[];autosize=1;strokeColor=none;fillColor=none;" vertex="1" parent="1">
          <mxGeometry x="150.78" y="389" width="66" height="26" as="geometry" />
        </mxCell>
      </root>
    </mxGraphModel>
  </diagram>
</mxfile>
